<svg width="53" height="40" viewBox="0 0 53 40" fill="none" xmlns="http://www.w3.org/2000/svg">
    <g clip-path="url(#clip0_9_9129)">
    <path d="M0 3.26241V12.5768C0 15.4137 3.58984 16.9267 5.78363 14.9409L16.254 5.62648C18.5475 3.59338 17.0517 0 13.9106 0H3.44026C1.54563 0 0 1.46572 0 3.26241Z" fill="#5986EF"/>
    <path d="M49.5597 0H39.0894C35.9981 0 34.4525 3.59338 36.746 5.62648L47.2164 14.9409C49.4101 16.8794 53 15.4137 53 12.5768V3.26241C53 1.46572 51.4544 0 49.5597 0Z" fill="#5986EF"/>
    <path d="M28.8683 22.7424L47.2164 39.1018C49.4102 41.0403 53 39.5746 53 36.7377V27.3287C53 26.4304 52.6011 25.5793 51.9031 24.9646L28.8683 4.39727C27.5221 3.21523 25.4779 3.21523 24.1317 4.39727L1.0969 24.9646C0.398871 25.5793 0 26.4304 0 27.3287V36.7377C0 39.5746 3.58984 41.0876 5.78363 39.1018L24.1317 22.7424C25.4779 21.5604 27.5221 21.5604 28.8683 22.7424Z" fill="#5986EF"/>
    </g>
    <defs>
    <clipPath id="clip0_9_9129">
    <rect width="53" height="40" fill="white"/>
    </clipPath>
    </defs>
    </svg>
    