<svg width="419" height="20" viewBox="0 0 419 20" fill="none" xmlns="http://www.w3.org/2000/svg">
    <path d="M391.74 10.5416C391.169 10.5573 390.592 10.568 390.033 10.5915C389.67 10.6061 389.514 10.5631 389.272 10.5406C389.191 10.5328 389.104 10.5172 389.029 10.5191C388.464 10.5348 387.899 10.5524 387.333 10.57C387.16 10.6081 387.051 10.6589 386.785 10.6775C386.526 10.6951 386.22 10.6951 385.932 10.7039C385.551 10.7146 385.17 10.7254 384.79 10.7351C384.599 10.74 384.444 10.7586 384.38 10.7938C384.369 10.7997 384.495 10.8143 384.565 10.8231C384.795 10.8524 385.02 10.8857 385.274 10.9081C385.516 10.9296 385.816 10.8945 386.076 10.9218C386.659 10.9834 386.664 10.9824 387.109 10.9707C387.489 10.9599 387.87 10.9482 388.251 10.9404C388.326 10.9384 388.412 10.9531 388.493 10.9609C388.735 10.9824 388.891 11.0313 389.249 11.0127C389.52 10.9981 389.82 10.9951 390.102 10.9873C390.339 11.0157 390.558 11.0479 390.812 11.0704C391.048 11.0919 391.118 11.1085 390.991 11.1369C390.875 11.1632 390.714 11.174 390.5 11.176C390.31 11.1769 390.12 11.1857 389.929 11.1906C389.831 11.1935 389.739 11.1955 389.647 11.1984C389.283 11.2092 389.283 11.2092 388.62 11.1466C388.36 11.1222 388.066 11.1564 387.818 11.1329C387.651 11.1173 387.506 11.0939 387.345 11.0772C387.276 11.0704 387.166 11.0694 387.08 11.0714C386.791 11.0782 386.503 11.0831 386.226 11.0958C386.03 11.1046 385.914 11.132 385.938 11.1593C385.943 11.1701 386.082 11.1857 386.162 11.1867C386.347 11.1887 386.543 11.175 386.722 11.1818C386.895 11.1887 387.074 11.2082 387.201 11.2297C387.46 11.2747 387.754 11.2346 388.003 11.2463C388.262 11.259 388.475 11.2981 388.724 11.3216C388.787 11.3274 388.908 11.3177 389.006 11.3147C389.289 11.3079 389.572 11.302 389.854 11.2952C390.091 11.3235 390.345 11.3489 390.558 11.3812C390.944 11.4398 391.36 11.4623 391.862 11.434C392.144 11.4183 392.421 11.4242 392.646 11.4623C392.877 11.5014 393.142 11.4975 393.436 11.4897C393.707 11.4819 393.984 11.4604 394.261 11.4877C394.861 11.5483 394.867 11.5513 395.576 11.5278C395.79 11.521 395.951 11.519 396.113 11.5415C396.263 11.562 396.424 11.5796 396.58 11.5992C396.863 11.5923 397.151 11.5855 397.434 11.5777C397.797 11.5669 397.999 11.5806 398.086 11.6353C398.137 11.6686 398.161 11.6989 398.288 11.7213C398.438 11.7487 398.599 11.7477 398.818 11.7399C399.026 11.7331 399.176 11.7223 399.262 11.6871C399.297 11.6725 399.366 11.6588 399.43 11.6471C399.482 11.6383 399.562 11.6246 399.608 11.6265C399.695 11.6304 399.81 11.6412 399.839 11.6539C400.122 11.7722 400.122 11.7731 400.41 11.8073C400.727 11.8455 401.056 11.8797 401.345 11.9227C401.604 11.9608 401.864 11.9442 402.147 11.9442C402.36 11.9442 402.498 11.9696 402.481 11.995C402.47 12.0097 402.389 12.0312 402.32 12.0331C401.754 12.0527 401.183 12.0693 400.612 12.083C400.543 12.0849 400.456 12.0673 400.376 12.0585C400.214 12.0409 400.07 12.0136 399.897 12.0077C399.724 12.0018 399.522 12.0165 399.332 12.0214C399.141 12.0263 398.939 12.039 398.766 12.0312C398.593 12.0234 398.455 11.995 398.293 11.9764C398.218 11.9676 398.115 11.9549 398.051 11.9579C397.63 11.9813 397.318 11.9491 397.018 11.9061C396.955 11.8973 396.845 11.8914 396.765 11.8934C396.096 11.91 395.432 11.9295 394.763 11.9481C394.492 11.9559 394.273 11.9217 394.215 11.864C394.186 11.8318 394.129 11.7995 394.129 11.7673C394.129 11.7086 393.811 11.6764 393.581 11.6832C393.2 11.693 392.813 11.7008 392.438 11.7155C392.133 11.7272 391.873 11.7155 391.665 11.6803C391.423 11.6402 391.146 11.648 390.87 11.6588C390.662 11.6666 390.604 11.6989 390.616 11.78C390.627 11.8455 390.529 11.866 390.154 11.8767C389.681 11.8904 389.202 11.9041 388.724 11.9149C388.649 11.9168 388.562 11.9002 388.487 11.8914C388.326 11.8738 388.181 11.8455 388.008 11.8396C387.835 11.8328 387.633 11.8474 387.443 11.8533C387.253 11.8582 387.051 11.8718 386.878 11.865C386.705 11.8582 386.56 11.8288 386.405 11.8103C386.33 11.8015 386.237 11.7888 386.162 11.7907C385.782 11.7985 385.401 11.8103 385.02 11.821C384.593 11.8328 384.593 11.8328 383.988 11.7722C383.711 11.7448 383.434 11.7663 383.163 11.7741C382.874 11.7819 382.603 11.7858 382.378 11.7467C382.228 11.7213 382.061 11.7057 381.882 11.7106C381.404 11.7223 380.931 11.737 380.452 11.7487C380.371 11.7507 380.262 11.7458 380.198 11.737C379.892 11.6959 379.592 11.6637 379.165 11.6842C378.796 11.7018 378.398 11.7028 378.029 11.7194C377.827 11.7282 377.735 11.7595 377.775 11.7839C377.798 11.7966 377.919 11.8113 378 11.8113C378.185 11.8122 378.387 11.7976 378.56 11.8034C378.917 11.8152 379.096 11.8973 379.563 11.8748C379.84 11.8611 380.129 11.8562 380.417 11.8523C380.492 11.8513 380.573 11.8699 380.654 11.8797C380.884 11.9061 381.086 11.9403 381.421 11.9227C381.698 11.909 381.992 11.9051 382.275 11.8973C382.724 11.8846 382.725 11.8855 383.307 11.9452C383.584 11.9735 383.861 11.951 384.132 11.9442C384.334 11.9393 384.524 11.9295 384.686 11.9432C384.934 11.9637 385.113 12.0106 385.418 12.0077C385.707 12.0048 385.989 11.9911 386.278 11.9862C386.457 11.9833 386.624 11.9989 386.768 12.0253C386.918 12.0517 387.08 12.0634 387.276 12.0576C387.558 12.0497 387.847 12.04 388.135 12.0351C388.216 12.0341 388.308 12.0429 388.383 12.0507C388.545 12.0683 388.7 12.0888 388.856 12.1074C389.139 12.1015 389.427 12.0996 389.704 12.0879C389.918 12.0791 390.068 12.083 390.241 12.1025C390.46 12.1289 390.639 12.1758 390.996 12.1533C391.175 12.1426 391.383 12.1455 391.562 12.1357C391.781 12.123 391.931 12.1279 392.087 12.1572C392.381 12.213 392.75 12.2139 393.131 12.1924C393.546 12.169 393.857 12.1964 394.169 12.2394C394.498 12.2843 394.498 12.2833 394.752 12.3918C394.827 12.4231 395.04 12.4378 395.219 12.4319C395.519 12.4221 395.778 12.427 395.997 12.4641C396.228 12.5042 396.505 12.4993 396.788 12.4886C397.163 12.4739 397.538 12.4612 397.843 12.5179C397.993 12.5453 398.155 12.5521 398.357 12.5453C398.928 12.5277 399.505 12.5169 400.064 12.4954C400.405 12.4817 400.601 12.513 400.831 12.5394C401.143 12.5756 401.483 12.6078 401.483 12.685C401.483 12.6977 401.564 12.7124 401.633 12.7222C401.783 12.7427 401.945 12.7603 402.1 12.7798C402.331 12.8092 402.556 12.8336 402.873 12.818C403.15 12.8053 403.444 12.8013 403.727 12.7926C404.01 12.7838 404.269 12.7789 404.523 12.816C404.817 12.858 405.129 12.8981 405.463 12.9294C405.7 12.9519 406.011 12.9138 406.265 12.9441C406.421 12.9626 406.571 12.9841 406.738 12.9998C406.807 13.0066 406.917 13.0017 407.009 12.9998C407.2 12.9958 407.396 12.9929 407.58 12.9831C407.794 12.9724 407.955 12.9744 408.117 12.9968C408.267 13.0174 408.417 13.0457 408.59 13.0516C408.849 13.0604 409.138 13.0213 409.397 13.0662C409.53 13.0887 409.697 13.1102 409.87 13.1171C410.043 13.1239 410.245 13.1092 410.43 13.1102C410.511 13.1102 410.609 13.1258 410.655 13.1386C410.684 13.1454 410.643 13.164 410.603 13.1737C410.551 13.1855 410.476 13.2011 410.401 13.2031C409.83 13.2207 409.259 13.2353 408.688 13.2519C408.348 13.2617 408.348 13.2617 407.661 13.2001C407.5 13.1855 407.321 13.1884 407.119 13.1952C406.848 13.204 406.571 13.2207 406.288 13.2031C405.919 13.1366 405.463 13.1307 404.979 13.1561C404.777 13.1669 404.592 13.1669 404.442 13.1483C404.125 13.1112 403.791 13.077 403.508 13.033C403.289 12.9988 403.185 12.9959 403.093 13.0428C403.064 13.0574 403.035 13.0731 403.041 13.0867C403.075 13.1356 403.139 13.1835 403.173 13.2324C403.185 13.2461 403.139 13.2617 403.11 13.2764C403.018 13.3174 402.897 13.3145 402.695 13.2803C402.493 13.2461 402.25 13.2236 401.927 13.2392C401.651 13.2529 401.351 13.251 401.074 13.2656C400.647 13.2871 400.347 13.2558 400.041 13.2138C399.978 13.205 399.868 13.2001 399.787 13.2021C398.928 13.2246 398.074 13.25 397.215 13.2725C397.03 13.2773 396.863 13.2627 396.719 13.2363C396.569 13.2099 396.401 13.1962 396.217 13.2011C395.455 13.2216 394.694 13.2402 393.932 13.2656C393.621 13.2764 393.373 13.2637 393.16 13.2294C392.998 13.204 392.848 13.1962 392.646 13.1991C392.427 13.2021 392.271 13.2119 392.162 13.2402C392.058 13.2676 392.133 13.2842 392.363 13.3057C392.611 13.3291 392.842 13.3594 393.079 13.3868C393.269 13.3829 393.459 13.3751 393.644 13.3761C393.725 13.3761 393.8 13.3936 393.881 13.4034C394.111 13.4318 394.325 13.4601 394.653 13.4445C394.93 13.4308 395.224 13.4279 395.507 13.4191C395.899 13.4083 395.899 13.4083 396.534 13.4699C396.695 13.4855 396.868 13.4845 397.076 13.4757C397.255 13.4689 397.44 13.4826 397.566 13.5119C397.618 13.5236 397.601 13.5432 397.492 13.6077C397.492 13.6556 397.613 13.6341 397.653 13.6028C397.716 13.5579 397.595 13.5432 397.365 13.5676C397.203 13.5852 397.122 13.6106 397.163 13.6312C397.186 13.6419 397.295 13.6556 397.492 13.6077C397.999 13.5491 398.386 13.5422 398.755 13.5266C398.974 13.5178 399.112 13.5217 399.285 13.5471C399.493 13.5774 399.701 13.6097 400.041 13.594C400.41 13.5764 400.803 13.5745 401.177 13.5598C401.524 13.5461 401.702 13.5891 401.922 13.6145C402.187 13.6448 402.481 13.6106 402.723 13.6282C402.977 13.6458 403.156 13.6888 403.45 13.6966C403.877 13.6702 404.148 13.7191 404.471 13.7514C404.725 13.7758 405.025 13.7543 405.296 13.7436C405.602 13.7318 405.856 13.7426 406.069 13.7778C406.311 13.8178 406.582 13.809 406.859 13.8002C407.505 13.7807 407.528 13.7778 407.903 13.8315C408.174 13.8706 408.434 13.853 408.705 13.8481C408.942 13.8745 409.172 13.9029 409.42 13.9263C409.484 13.9322 409.605 13.9224 409.703 13.9195C409.986 13.9117 410.274 13.9038 410.557 13.896C410.747 13.8911 410.949 13.8765 411.122 13.8823C411.295 13.8892 411.439 13.9175 411.595 13.9361C411.751 13.9547 411.912 13.9732 412.062 13.9928C412.293 14.0221 412.512 14.0465 412.835 14.0319C413.112 14.0192 413.401 14.0153 413.689 14.0065C414.052 13.9957 414.041 13.9987 414.716 14.0573C415.079 14.0896 415.454 14.0505 415.823 14.0466C416.008 14.0446 416.187 14.0553 416.314 14.0837C416.366 14.0954 416.348 14.115 416.366 14.1316C415.414 14.158 414.456 14.1804 413.516 14.2127C413.152 14.2254 412.962 14.1902 412.766 14.1609C412.443 14.114 412.016 14.1824 411.71 14.1218C411.526 14.0856 411.26 14.0651 410.943 14.0827C410.759 14.0925 410.563 14.0915 410.372 14.1003C409.888 14.1218 409.443 14.1228 409.057 14.0553C408.924 14.0319 408.734 14.0192 408.596 13.9967C408.434 13.9723 408.278 13.9586 408.088 13.9635C407.228 13.9869 406.375 14.0104 405.521 14.0358C405.446 14.0377 405.371 14.0524 405.308 14.0632C405.146 14.0905 405.198 14.112 405.458 14.1296C405.544 14.1355 405.613 14.1482 405.694 14.158C405.85 14.1765 405.994 14.2059 406.167 14.2127C406.34 14.2195 406.542 14.2059 406.732 14.201C406.923 14.1961 407.125 14.1814 407.298 14.1873C407.471 14.1941 407.615 14.2225 407.776 14.2401C407.851 14.2489 407.944 14.2635 408.019 14.2626C408.4 14.2567 408.774 14.2459 409.155 14.2371C409.392 14.2635 409.594 14.3016 409.876 14.3104C410.055 14.3163 410.245 14.3056 410.43 14.3075C410.511 14.3085 410.614 14.3231 410.655 14.3359C410.678 14.3437 410.603 14.3632 410.545 14.373C410.326 14.4101 410.026 14.4033 409.755 14.415C409.461 14.4277 409.195 14.4238 408.971 14.3857C408.821 14.3603 408.653 14.3466 408.469 14.3515C407.99 14.3642 407.517 14.3789 407.038 14.3896C406.957 14.3916 406.859 14.3828 406.784 14.3759C406.179 14.3163 406.179 14.3144 405.752 14.3271C405.123 14.3456 405.123 14.3456 404.702 14.2938C404.621 14.284 404.535 14.2655 404.465 14.2665C403.796 14.2821 403.133 14.2977 402.47 14.3202C402.25 14.3271 402.1 14.3271 401.939 14.3016C401.8 14.2801 401.639 14.2557 401.466 14.2498C401.287 14.244 401.091 14.2586 400.901 14.2635C400.71 14.2684 400.508 14.2811 400.341 14.2733C400.168 14.2655 400.018 14.2381 399.868 14.2186C399.712 14.198 399.545 14.199 399.332 14.2068C398.674 14.2293 398.668 14.2264 398.016 14.1658C397.941 14.1589 397.843 14.1511 397.763 14.1531C397.284 14.1648 396.811 14.1795 396.332 14.1912C396.148 14.1961 395.969 14.1834 395.842 14.155C395.79 14.1433 395.807 14.1238 395.773 14.0856C395.732 14.0768 395.778 14.0925 395.79 14.1071C395.876 14.1052 395.98 14.1071 396.044 14.0993C396.205 14.0808 396.286 14.0563 396.245 14.0358C396.222 14.025 396.113 14.0114 396.044 14.0114C395.917 14.0114 395.807 14.0329 395.773 14.0856C395.409 14.1179 395.023 14.1247 394.648 14.1404C394.428 14.1502 394.29 14.1453 394.117 14.1199C393.909 14.0886 393.696 14.0583 393.356 14.0739C392.986 14.0915 392.594 14.0944 392.213 14.1081C391.775 14.1238 391.585 14.0358 391.216 14.0377C390.835 14.0397 390.454 14.0563 390.073 14.0681C389.739 14.0778 389.739 14.0778 389.047 14.0143C388.793 13.9908 388.493 14.025 388.245 14.0006C388.078 13.985 387.933 13.9615 387.772 13.9449C387.703 13.9381 387.593 13.9381 387.507 13.94C387.028 13.9517 386.543 13.9596 386.082 13.9811C385.557 14.0065 385.159 13.9791 384.784 13.9214C384.311 13.9322 383.832 13.9381 383.365 13.9566C383.025 13.9703 382.828 13.9381 382.598 13.9117C382.517 13.9029 382.448 13.8882 382.361 13.8843C382.275 13.8804 382.171 13.8882 382.078 13.8911C381.698 13.9019 381.305 13.9068 380.936 13.9244C380.481 13.9469 380.308 13.8667 379.956 13.8569C379.719 13.9048 379.592 13.9703 379.125 13.9752C378.744 13.9791 378.364 13.9947 377.983 14.0055C377.793 14.0104 377.602 14.0163 377.412 14.0211C377.106 14.0299 376.962 14.068 377.025 14.1267C377.06 14.1589 377.089 14.1912 377.118 14.2235C377.175 14.2811 377.031 14.33 376.789 14.3368C376.12 14.3554 375.456 14.3749 374.787 14.3916C374.608 14.3964 374.435 14.3798 374.291 14.3534C374.141 14.3271 373.974 14.3153 373.789 14.3202C373.12 14.3388 372.457 14.3583 371.788 14.375C371.713 14.3769 371.615 14.3671 371.54 14.3593C371.378 14.3417 371.222 14.3212 371.067 14.3026C370.686 14.3114 370.311 14.3173 369.936 14.329C369.33 14.3466 369.33 14.3476 368.886 14.2938C368.805 14.284 368.725 14.2655 368.65 14.2665C368.361 14.2704 368.079 14.2801 367.79 14.2889C366.942 14.3144 366.942 14.3144 366.694 14.285C366.469 14.2577 366.267 14.2244 365.927 14.2401C365.558 14.2577 365.166 14.2635 364.785 14.2733C364.502 14.2801 364.22 14.288 363.937 14.2899C363.862 14.2909 363.781 14.2723 363.701 14.2626C363.47 14.2323 363.245 14.2078 362.927 14.2244C362.743 14.2342 362.547 14.2362 362.356 14.2411C361.86 14.2547 361.86 14.2547 361.047 14.1961C360.966 14.1902 360.868 14.1834 360.787 14.1863C360.118 14.2039 359.455 14.2235 358.786 14.2401C358.705 14.242 358.607 14.2362 358.526 14.2313C357.615 14.1746 357.615 14.1746 356.646 14.202C356.277 14.2117 356.265 14.2156 355.879 14.1638C355.706 14.1414 355.561 14.1306 355.359 14.1374C354.598 14.1609 353.831 14.1765 353.075 14.2039C352.735 14.2156 352.539 14.1863 352.308 14.1599C352.227 14.1511 352.141 14.1316 352.072 14.1326C351.31 14.1511 350.549 14.1736 349.787 14.1922C349.718 14.1941 349.631 14.1746 349.551 14.1658C349.395 14.1482 349.245 14.1218 349.072 14.1159C348.893 14.1101 348.697 14.1247 348.501 14.1296C348.022 14.1423 348.022 14.1414 347.468 14.0837C347.393 14.0759 347.295 14.0651 347.22 14.0671C346.459 14.0866 345.692 14.1032 344.936 14.1316C344.503 14.1472 344.209 14.1189 343.903 14.0778C343.84 14.069 343.73 14.0651 343.65 14.0671C342.79 14.0896 341.936 14.115 341.077 14.1374C340.898 14.1423 340.725 14.1257 340.581 14.1003C340.35 14.0602 340.079 14.0651 339.791 14.0739C339.127 14.0944 339.122 14.0935 338.729 14.0466C338.648 14.0368 338.579 14.0241 338.493 14.0192C338.412 14.0143 338.308 14.0172 338.222 14.0192C337.841 14.029 337.46 14.0397 337.08 14.0505C336.699 14.0612 336.312 14.0671 335.937 14.0837C335.476 14.1042 335.257 14.0407 334.934 14.0114C334.461 14.0241 333.976 14.0319 333.509 14.0524C333.151 14.068 332.984 14.025 332.748 14.0026C332.667 13.9947 332.58 13.9781 332.505 13.9801C331.646 14.0016 330.786 14.025 329.933 14.0514C329.725 14.0573 329.586 14.0495 329.413 14.026C329.027 13.9732 329.01 13.9752 328.364 13.9947C328.081 14.0035 327.81 14.0114 327.567 13.9713C327.354 13.9351 327.095 13.9263 326.789 13.9381C326.414 13.9527 326.027 13.9605 325.647 13.9703C325.266 13.9811 324.885 13.9957 324.505 14.0006C324.199 14.0055 324.014 13.9596 323.772 13.9361C323.697 13.9293 323.593 13.9283 323.507 13.9302C323.126 13.939 322.734 13.9459 322.365 13.9625C321.915 13.983 321.667 13.9293 321.349 13.898C321.28 13.8911 321.165 13.8951 321.078 13.898C320.409 13.9156 319.746 13.9351 319.076 13.9537C318.84 13.9273 318.598 13.9019 318.361 13.8755C317.98 13.8853 317.6 13.896 317.219 13.9058C316.931 13.9136 316.636 13.9166 316.365 13.9312C316.013 13.9508 315.84 13.9048 315.604 13.8823C315.523 13.8745 315.437 13.8579 315.362 13.8599C314.883 13.8706 314.404 13.8823 313.931 13.899C313.481 13.9156 313.302 13.8276 312.933 13.8286C312.552 13.8296 312.16 13.8423 311.791 13.8599C311.364 13.8804 311.064 13.8491 310.759 13.8071C310.695 13.7983 310.586 13.7934 310.505 13.7954C310.026 13.8071 309.553 13.8217 309.074 13.8335C308.993 13.8354 308.895 13.8305 308.815 13.8247C307.903 13.767 307.903 13.766 307.505 13.7778C307.223 13.7856 306.934 13.7954 306.646 13.8002C306.565 13.8022 306.467 13.7934 306.392 13.7856C305.792 13.726 305.792 13.725 305.359 13.7367C304.979 13.7475 304.598 13.7582 304.217 13.769C303.981 13.7426 303.738 13.7172 303.502 13.6908C303.029 13.7035 302.544 13.7133 302.077 13.7308C301.858 13.7387 301.714 13.7357 301.546 13.7113C301.339 13.682 301.131 13.6478 300.785 13.6644C300.416 13.682 300.024 13.6839 299.649 13.6986C299.199 13.7162 299.014 13.6272 298.651 13.6282C298.27 13.6292 297.878 13.6419 297.509 13.6595C297.082 13.68 296.782 13.6488 296.476 13.6067C296.413 13.5979 296.303 13.593 296.222 13.595C295.172 13.6233 294.128 13.6517 293.079 13.682C292.433 13.7005 292.433 13.7015 291.204 13.6478C291.117 13.6439 291.025 13.64 290.938 13.6419C290.558 13.6507 290.165 13.6575 289.796 13.6742C289.346 13.6947 289.098 13.6419 288.781 13.6096C288.712 13.6028 288.602 13.6067 288.51 13.6087C288.222 13.6155 287.939 13.6243 287.65 13.6321C287.27 13.6429 286.889 13.6536 286.508 13.6644C286.272 13.639 286.03 13.6126 285.793 13.5872C285.32 13.5999 284.836 13.6067 284.368 13.6272C284.011 13.6429 283.843 13.6018 283.607 13.5784C283.526 13.5706 283.44 13.5539 283.365 13.5549C282.505 13.5764 281.646 13.5989 280.792 13.6263C280.44 13.638 280.279 13.594 280.042 13.5715C279.961 13.5647 279.869 13.552 279.794 13.5539C279.223 13.5676 278.652 13.5842 278.081 13.6009C277.758 13.6106 277.758 13.6106 277.054 13.55C276.973 13.5432 276.881 13.5363 276.8 13.5383C274.989 13.5872 273.183 13.639 271.372 13.6878C271.188 13.6927 271.02 13.6781 270.876 13.6517C270.726 13.6253 270.559 13.6116 270.374 13.6165C269.613 13.637 268.846 13.6556 268.09 13.681C267.779 13.6918 267.53 13.679 267.317 13.6448C267.155 13.6194 267.006 13.6097 266.804 13.6155C266.423 13.6272 266.042 13.637 265.662 13.6478C265.281 13.6585 264.9 13.6693 264.519 13.68C264.139 13.6908 263.752 13.6966 263.377 13.7133C262.916 13.7338 262.691 13.6732 262.374 13.6429C261.803 13.6575 261.231 13.6722 260.666 13.6878C259.905 13.7084 259.143 13.7309 258.382 13.7504C258.313 13.7524 258.226 13.7348 258.145 13.726C257.909 13.7015 257.736 13.6673 257.384 13.6781C255.676 13.7299 253.958 13.7739 252.244 13.8247C251.887 13.8354 251.731 13.7934 251.489 13.7709C251.408 13.7641 251.316 13.7504 251.241 13.7524C250.289 13.7768 249.337 13.8042 248.385 13.8305C247.999 13.8413 247.999 13.8413 247.353 13.7807C247.278 13.7739 247.18 13.7651 247.099 13.767C245.859 13.8002 244.624 13.8354 243.384 13.8696C243.2 13.8745 243.032 13.8608 242.882 13.8345C242.738 13.8081 242.565 13.7934 242.386 13.7983C241.244 13.8296 240.096 13.8599 238.96 13.8941C238.654 13.9038 238.4 13.8951 238.181 13.8599C238.025 13.8345 237.87 13.8237 237.674 13.8296C235.96 13.8775 234.247 13.9234 232.534 13.9742C232.205 13.984 231.974 13.9654 231.767 13.9332C231.599 13.9078 231.455 13.9029 231.247 13.9068C231.028 13.9117 230.896 13.9224 230.775 13.9517C230.619 13.9899 230.521 14.0377 230.152 14.0407C229.771 14.0436 229.384 14.0553 229.009 14.072C228.652 14.0886 228.484 14.0446 228.26 14.0182C228.092 13.9996 227.937 13.9967 227.723 14.0055C227.527 14.0133 227.406 14.0299 227.29 14.0612C227.037 14.1277 227.014 14.1277 226.702 14.0856C226.535 14.0632 226.385 14.0456 226.2 14.0495C225.439 14.069 224.677 14.0905 223.916 14.113C223.478 14.1257 223.472 14.1277 223.143 14.0788C222.982 14.0544 222.826 14.0426 222.635 14.0485C220.541 14.1071 218.448 14.1638 216.354 14.2254C216.031 14.2352 215.811 14.2147 215.581 14.1853C215.506 14.1756 215.431 14.1619 215.344 14.158C215.258 14.1541 215.16 14.158 215.067 14.1599C213.545 14.2019 212.016 14.242 210.499 14.2889C210.153 14.2997 209.968 14.2684 209.732 14.243C209.651 14.2342 209.582 14.2205 209.495 14.2166C209.409 14.2137 209.305 14.2205 209.212 14.2235C207.69 14.2655 206.161 14.3056 204.644 14.3525C204.281 14.3632 204.125 14.3222 203.888 14.3007C203.807 14.2929 203.721 14.2782 203.646 14.2801C203.167 14.2909 202.694 14.3056 202.215 14.3183C201.073 14.3505 199.931 14.3808 198.789 14.4141C198.351 14.4268 198.16 14.3398 197.791 14.3437C197.312 14.3486 196.839 14.3681 196.36 14.3818C195.98 14.3925 195.599 14.4023 195.218 14.4141C194.843 14.4248 194.843 14.4248 193.909 14.3681C193.828 14.3632 193.73 14.3564 193.649 14.3583C192.317 14.3945 190.979 14.4307 189.652 14.4698C189.346 14.4786 189.092 14.4737 188.873 14.4375C188.717 14.4121 188.556 14.3994 188.366 14.4052C186.364 14.461 184.368 14.5167 182.366 14.5714C182.291 14.5734 182.193 14.5636 182.118 14.5558C181.957 14.5382 181.801 14.5177 181.645 14.4991C181.53 14.5216 181.38 14.5421 181.305 14.5675C181.201 14.6017 181.063 14.6115 180.844 14.6173C180.624 14.6232 180.486 14.6213 180.313 14.5958C180.105 14.5646 179.892 14.5401 179.552 14.5499C177.458 14.6115 175.364 14.6672 173.27 14.7278C172.924 14.7376 172.762 14.6946 172.52 14.6721C172.439 14.6652 172.347 14.6545 172.272 14.6564C171.412 14.6789 170.559 14.7034 169.699 14.7268C167.317 14.7933 164.935 14.8568 162.558 14.9272C162.125 14.9399 161.831 14.9154 161.525 14.8734C161.462 14.8646 161.352 14.8597 161.272 14.8617C157.938 14.9536 154.603 15.0464 151.275 15.1393C151.096 15.1442 150.923 15.1285 150.779 15.1031C150.629 15.0767 150.462 15.064 150.277 15.0689C148.754 15.1109 147.232 15.153 145.709 15.196C145.328 15.2067 145.322 15.2077 144.93 15.1608C144.849 15.151 144.763 15.1324 144.699 15.1344C144.567 15.1393 144.44 15.1637 144.347 15.1969C144.255 15.2321 144.111 15.2419 143.897 15.2487C143.678 15.2556 143.534 15.2527 143.367 15.2292C143.153 15.1999 142.957 15.1715 142.611 15.1813C138.233 15.3064 133.855 15.4266 129.476 15.5507C129.125 15.5605 128.963 15.5195 128.721 15.497C128.64 15.4902 128.559 15.4804 128.473 15.4784C128.38 15.4765 128.282 15.4823 128.19 15.4853C121.049 15.6837 113.908 15.8831 106.767 16.0815C106.34 16.0932 106.345 16.0932 105.878 16.1831C105.82 16.1939 105.745 16.2085 105.665 16.2105C103.478 16.273 101.287 16.3336 99.0946 16.3942C98.1428 16.4206 97.191 16.448 96.2393 16.4734C95.8989 16.4822 95.8989 16.4822 95.0856 16.5878C95.0164 16.5966 94.9355 16.6083 94.8548 16.6102C91.0477 16.7168 87.2405 16.8233 83.4276 16.9279C83.1277 16.9357 82.8855 16.9533 82.747 17.0002C82.6489 17.0335 82.5221 17.053 82.3317 17.0589C79.6667 17.1331 77.0018 17.2084 74.3311 17.2807C74.0138 17.2895 73.8234 17.3169 73.6676 17.358C73.6157 17.3716 73.5695 17.3873 73.4945 17.397C73.4253 17.4058 73.3215 17.4088 73.235 17.4117C70.9507 17.4752 68.6665 17.5407 66.3765 17.6013C66.0362 17.6101 65.8976 17.6463 65.7304 17.6844C65.6727 17.6971 65.6323 17.7147 65.5573 17.7235C65.4823 17.7313 65.3727 17.7313 65.2804 17.7333C63.3769 17.786 61.4734 17.8398 59.5698 17.8926C59.2006 17.8877 59.1198 17.9444 58.941 17.9786C58.8775 17.9903 58.8315 18.006 58.7565 18.0138C58.6758 18.0216 58.5718 18.0206 58.4737 18.0226C56.9509 18.0646 55.4281 18.1096 53.8995 18.1487C53.5476 18.1575 53.4783 18.2073 53.288 18.2415C53.2245 18.2523 53.1612 18.2689 53.0862 18.2718C52.1344 18.3002 51.1826 18.3265 50.2309 18.352C49.9136 18.3608 49.9136 18.3598 49.3541 18.4565C49.2906 18.4673 49.2156 18.479 49.1348 18.482C47.71 18.523 46.2795 18.5621 44.849 18.6022C44.6644 18.6071 44.5375 18.6305 44.4452 18.6637C44.3529 18.697 44.2203 18.7185 44.0357 18.7234C42.8935 18.7556 41.7513 18.7888 40.6092 18.8182C40.2919 18.826 40.0843 18.8504 39.9459 18.8944C39.842 18.9276 39.7151 18.9443 39.5132 18.9501C38.3711 18.9814 37.229 19.0156 36.0811 19.043C35.7465 19.0508 35.5734 19.084 35.435 19.1251C35.3254 19.1583 35.1984 19.17 34.985 19.1759C32.8911 19.2326 30.7915 19.2893 28.7033 19.3518C28.3515 19.3626 28.1726 19.3284 27.9419 19.3039C27.6131 19.2697 27.3074 19.2326 27.3074 19.1563C27.3074 19.1446 27.2094 19.1309 27.1401 19.1212C26.6267 19.0479 26.6267 19.0479 26.546 18.9697C26.4998 18.9218 26.4479 18.8729 26.4075 18.824C26.3326 18.7439 26.1479 18.7234 25.6172 18.738C25.4269 18.7429 25.2365 18.7498 25.0461 18.7537C24.7635 18.7605 24.5501 18.7283 24.4982 18.6696C24.4693 18.6374 24.4348 18.6051 24.4059 18.5728C24.6944 18.565 24.6885 18.5641 25.1961 18.4458C25.4096 18.3959 25.4096 18.3959 25.0001 18.3461C24.8444 18.3275 24.6943 18.307 24.5271 18.2894C24.4521 18.2816 24.354 18.2767 24.2733 18.2787C23.7945 18.2904 23.3215 18.3041 22.8485 18.3177C22.0871 18.3393 22.087 18.3392 21.314 18.2396C21.2506 18.2317 21.1525 18.2171 21.1641 18.2093C21.2275 18.1731 21.3832 18.1574 21.5794 18.1535C21.8678 18.1477 22.1504 18.1379 22.4331 18.1301C22.6234 18.1252 22.8138 18.1193 23.0041 18.1145C23.1829 18.0773 23.3676 18.0411 23.5349 18.003C23.8003 17.9444 23.8002 17.9424 23.4368 17.9014C23.206 17.874 22.958 17.8496 22.7215 17.8242C22.4388 17.832 22.1504 17.8408 21.8678 17.8476C21.5101 17.8564 21.3659 17.8378 21.2736 17.7743C21.1929 17.7186 21.2909 17.6707 21.5678 17.659C21.8505 17.6473 22.1159 17.6394 22.2601 17.5896C22.3986 17.5417 22.6408 17.5231 22.9408 17.5192C23.1311 17.5163 23.3215 17.5094 23.5118 17.5036C23.7599 17.4958 23.8926 17.4459 23.8407 17.3902C23.8118 17.354 23.7541 17.3237 23.5291 17.3159C22.5312 17.2817 22.5196 17.2827 22.0235 17.2162C21.9774 17.2104 21.9429 17.1928 21.9602 17.184C21.989 17.1693 22.0525 17.1478 22.1217 17.1449C22.7851 17.1234 23.4484 17.1038 24.1117 17.0892C24.3309 17.0843 24.4925 17.0774 24.5675 17.0413C24.6713 16.9914 24.6252 16.9455 24.4233 16.9113C24.3598 16.9005 24.2559 16.8868 24.1867 16.8878C23.4252 16.9054 22.6696 16.9279 21.9082 16.9455C21.839 16.9474 21.7121 16.9308 21.6833 16.9181C21.6256 16.8947 21.7121 16.8634 21.914 16.8526C22.1793 16.838 22.4504 16.837 22.6292 16.7881C22.8773 16.7187 23.183 16.6552 23.4599 16.5887C23.506 16.577 23.5811 16.5545 23.5638 16.5526C23.4196 16.5311 23.2523 16.5145 23.1023 16.4939C22.8485 16.4597 22.8484 16.4118 22.9061 16.3659C22.9523 16.3288 23.1253 16.3141 23.3387 16.3141C23.431 16.3141 23.5464 16.3141 23.6214 16.3053C23.8175 16.2838 23.881 16.2564 23.7829 16.2359C23.7252 16.2242 23.6215 16.2076 23.5522 16.2095C22.3178 16.2418 21.0775 16.273 19.8489 16.3131C19.4854 16.3248 19.3183 16.2877 19.0991 16.2613C18.9318 16.2408 18.776 16.233 18.5683 16.2476C18.3722 16.2613 18.1819 16.2535 18.0607 16.2212C17.9627 16.1949 18.1357 16.1724 18.6029 16.147C18.6895 16.1421 18.7875 16.1391 18.8509 16.1294C19.5201 16.0238 19.52 16.0228 19.9815 16.0091C20.4314 15.9964 20.4316 15.9955 20.6681 15.9388C20.7777 15.9124 20.8987 15.886 21.0025 15.8586C21.0429 15.8479 21.1122 15.8283 21.0891 15.8225C20.9622 15.7922 20.7891 15.7853 20.5872 15.7922C20.1373 15.8088 19.6067 15.7951 19.3702 15.888C19.2779 15.9231 19.1337 15.9329 18.926 15.9388C16.8379 15.9955 14.7496 16.0561 12.6557 16.1108C12.3154 16.1196 12.1597 16.1558 12.0271 16.1958C11.9117 16.2291 11.7848 16.2388 11.5656 16.2447C11.3464 16.2506 11.1732 16.2535 11.0463 16.2212C10.9714 16.2017 11.0348 16.1743 11.2079 16.147C11.4559 16.1079 11.4097 16.059 11.329 16.0131C11.2713 15.9828 11.0925 15.9613 10.9021 15.9632C10.6195 15.9671 10.3484 15.9779 10.1119 15.9388C9.9735 15.9163 9.80042 15.9007 9.64467 15.8811C9.34472 15.841 9.04475 15.8 8.62366 15.8264C8.33524 15.8166 8.13335 15.7814 7.90262 15.7541C7.51614 15.7091 7.48153 15.7022 7.75841 15.6544C8.0699 15.6006 7.82758 15.5302 8.00063 15.4774C8.18522 15.4208 8.43911 15.3709 8.66408 15.3181C8.72176 15.3045 8.7737 15.2917 8.83138 15.2781C8.69871 15.2585 8.5776 15.2341 8.42185 15.2204C8.21996 15.2028 8.11613 15.1813 8.12766 15.1207C8.08728 15.1119 8.10447 15.1344 8.15062 15.1402C8.20253 15.1461 8.32953 15.1412 8.39298 15.1344C8.5545 15.1158 8.63517 15.0914 8.59479 15.0709C8.57172 15.0601 8.4622 15.0464 8.39298 15.0464C8.26608 15.0464 8.1565 15.0679 8.12189 15.1207C7.47583 15.1608 6.8066 15.1803 6.13747 15.196C6.06825 15.1979 5.98177 15.1784 5.90101 15.1686C5.63567 15.1354 5.63564 15.1363 4.85691 15.1266C4.77615 15.1256 4.66661 15.1119 4.62623 15.0982C4.45895 15.0386 4.46476 14.9731 4.38401 14.9096C4.53398 14.8685 4.68384 14.8285 4.83959 14.7884C5.15108 14.7073 5.55495 14.6359 5.79722 14.547C5.74531 14.4991 5.67608 14.4512 5.92988 14.4121C6.65093 14.3632 6.64521 14.3632 6.84133 14.3163C7.40086 14.1834 7.95459 14.0495 8.53719 13.9185C8.69294 13.8843 8.69296 13.8657 8.41608 13.8511C8.32955 13.8472 8.23714 13.8462 8.14484 13.8481C7.85642 13.855 7.56801 13.8726 7.28536 13.8687C7.00271 13.8657 6.79505 13.8227 6.56432 13.7963C6.32782 13.769 6.09133 13.7406 5.85482 13.7123C5.58371 13.7152 5.31265 13.7426 5.04154 13.6986C4.83388 13.6644 4.57432 13.6399 4.33781 13.6116C4.51663 13.5373 4.85125 13.4806 5.11082 13.4151C5.34733 13.3555 5.35296 13.3565 5.98748 13.3106C6.28744 13.2891 6.39127 13.1786 6.13747 13.1464C5.83174 13.1073 5.50878 13.0711 5.19729 13.034C4.92618 13.0369 4.64936 13.0633 4.38978 13.0193C4.18789 12.9861 3.95711 12.9636 3.62254 12.9763C3.05724 12.9978 2.48043 13.0086 1.90936 13.0261C1.71323 13.032 1.49974 13.0281 1.41322 12.9949C1.35554 12.9714 1.52283 12.9392 1.71318 12.9323C2.0016 12.9225 2.26115 12.9108 2.40536 12.862C2.5438 12.8131 2.79758 12.7984 3.09753 12.7916C3.17829 12.7896 3.27065 12.7779 3.31103 12.7662C3.51869 12.7095 3.74944 12.6606 4.1936 12.6626C4.37819 12.643 4.47619 12.6186 4.41851 12.5951C4.3839 12.5824 4.26283 12.5658 4.1936 12.5678C3.71483 12.5775 3.23607 12.5873 2.76884 12.6049C2.54964 12.6127 2.38227 12.6147 2.24383 12.5853C2.14577 12.5658 2.19768 12.5394 2.38226 12.5111C2.54378 12.4866 2.58997 12.4583 2.57844 12.4251C2.5496 12.3478 2.37651 12.3254 1.82275 12.3302C1.42473 12.3342 1.32667 12.3214 1.24014 12.255C1.21707 12.2393 1.15948 12.2178 1.19986 12.2071C1.4479 12.1406 1.60943 12.0585 2.07666 12.0273C2.26125 12.0155 2.4573 12.0155 2.57266 11.9901C2.68803 11.9647 2.79191 11.9354 2.91305 11.9109C3.06302 11.8816 3.16675 11.8543 3.09753 11.8357C2.98217 11.8025 2.79764 11.7995 2.58421 11.8113C2.39962 11.821 2.20351 11.822 2.01315 11.8279C1.67282 11.8386 1.396 11.8132 1.35562 11.7702C1.24602 11.6568 1.13062 11.5444 1.03256 11.4311C1.02102 11.4174 1.04978 11.3998 1.09593 11.388C1.25744 11.347 1.43056 11.3079 1.59785 11.2678C1.79397 11.2219 2.10551 11.2307 2.37086 11.2219C2.7458 11.2092 2.74567 11.2102 3.24752 11.1163C3.44364 11.0792 3.78399 11.0938 3.98588 11.0606C4.04933 11.0499 4.1474 11.0323 4.13009 11.0225C4.10702 11.0098 3.99171 11 3.90519 10.9941C3.82443 10.9883 3.72639 10.9854 3.63987 10.9883C2.59002 11.0166 1.54598 11.0469 0.49614 11.0743C0.317321 11.0792 0.121192 11.0577 0.0577399 11.0274C-0.00571202 10.999 0.0115367 10.9648 0 10.9326C0.167282 10.8925 0.357565 10.8554 0.501774 10.8124C0.611372 10.7791 0.738299 10.7645 0.957496 10.7625C1.24591 10.7596 1.52859 10.7478 1.85162 10.7391C2.45153 10.5964 3.03986 10.4468 3.68592 10.3041C3.94549 10.2464 3.88214 10.1878 3.93406 10.1262C3.98597 10.0695 4.37243 10.0783 4.63201 10.0617C4.83967 10.048 4.9088 10.0168 4.82804 9.99526C4.78189 9.98255 4.67812 9.96789 4.59736 9.96789C4.40701 9.96789 4.21666 9.97669 4.0263 9.98157C3.83594 9.98646 3.61676 9.98353 3.46101 10.0001C3.31104 10.0158 3.21292 10.049 3.11485 10.0774C3.00526 10.1086 2.86115 10.1194 2.64195 10.1213C2.3593 10.1233 2.07667 10.1321 1.79402 10.1389C1.48253 10.1008 1.15943 10.0637 0.859479 10.0236C0.801796 10.0158 0.790197 9.99331 0.795965 9.97865C0.807502 9.94053 0.720999 9.91707 0.530644 9.8985C0.36913 9.88286 0.236446 9.86038 0.086469 9.84083C0.201836 9.81444 0.328785 9.78903 0.421079 9.76068C0.622971 9.70106 0.876807 9.65806 1.3152 9.66002C1.48825 9.6219 1.62665 9.57498 1.85162 9.54859C2.06505 9.52318 2.42847 9.54859 2.58999 9.49092C2.67074 9.46257 2.79195 9.43032 2.94769 9.41859C3.19573 9.40002 3.51875 9.40981 3.66296 9.35507C3.74949 9.3238 3.87634 9.29545 4.04362 9.28763C4.23398 9.27883 4.43005 9.27688 4.56849 9.25831C4.64348 9.24854 4.72425 9.2329 4.72425 9.21921C4.72425 9.21042 4.60897 9.19673 4.52821 9.19087C4.45323 9.18402 4.35505 9.17914 4.26853 9.18109C3.98011 9.18696 3.69746 9.19771 3.40905 9.20357C3.32829 9.20553 3.23602 9.19869 3.1495 9.19282C2.89569 9.17718 2.91296 9.15764 3.11485 9.12245C3.31675 9.08824 3.46104 9.04425 3.62832 9.00418C3.8129 8.99734 4.0436 9.00027 4.17051 8.9817C4.38394 8.9514 4.53388 8.90742 4.70693 8.8693C4.89728 8.86344 5.09339 8.86149 5.27221 8.85074C5.3472 8.84683 5.38184 8.82532 5.44529 8.81262C5.56066 8.78818 5.6588 8.753 5.81455 8.74127C6.06835 8.72367 6.37984 8.73051 6.52982 8.67676C6.61634 8.64548 6.74896 8.61226 6.91048 8.6103C7.36041 8.60639 7.55077 8.55262 7.7815 8.5018C7.95455 8.46368 8.32374 8.48323 8.5141 8.44512C8.641 8.42068 8.73335 8.39038 8.86025 8.36692C8.91217 8.35715 9.02173 8.35227 9.10825 8.34933C9.58126 8.33467 10.06 8.32392 10.533 8.30828C10.608 8.30535 10.6773 8.29069 10.735 8.27896C10.8561 8.25355 10.931 8.21836 11.081 8.20175C11.231 8.18513 11.4444 8.18513 11.629 8.18025C12.2231 8.16559 12.2693 8.16949 12.5404 8.08641C12.7596 8.01897 13.2961 8.06686 13.4749 7.99258C13.5788 7.94958 13.769 7.91439 14.1094 7.90951C14.5881 7.90267 15.0611 7.88409 15.5399 7.87139C15.9668 7.85966 15.961 7.85965 16.4225 7.76876C16.6301 7.72771 16.9359 7.73358 17.207 7.72576C17.4955 7.71794 17.7608 7.70621 17.8992 7.65734C18.0377 7.60945 18.2914 7.5938 18.5856 7.58696C18.8567 7.58012 19.1625 7.58502 19.376 7.54592C19.8951 7.45209 19.8893 7.45111 20.2528 7.44133C20.8238 7.42569 21.3949 7.41006 21.9659 7.39344C22.3466 7.38269 22.7446 7.38074 23.1023 7.35924C23.3619 7.3436 23.4772 7.28886 23.6445 7.25075C24.1175 7.23609 24.5905 7.22142 25.0635 7.20773C25.7268 7.18819 26.3959 7.1706 27.0651 7.15203C27.3535 7.11489 27.394 7.03279 27.8785 7.02888C28.1669 7.02692 28.4496 7.01422 28.738 7.0064C29.2168 6.99271 29.6897 6.97512 30.1685 6.96828C30.5319 6.96339 30.5953 6.91061 30.7856 6.87738C30.8491 6.86565 30.9068 6.84904 30.9818 6.84611C31.7317 6.81874 32.5046 6.81287 33.2372 6.7728C33.3122 6.76889 33.3814 6.74836 33.3987 6.7337C33.4102 6.72588 33.3122 6.71123 33.2487 6.70439C33.1737 6.69657 33.0757 6.68875 32.995 6.6907C30.6126 6.75619 28.2304 6.82265 25.848 6.88814C25.5135 6.89791 25.5135 6.89693 24.7001 7.00444C24.6309 7.01324 24.5501 7.02301 24.4635 7.02594C24.0828 7.03767 23.6964 7.04452 23.3214 7.05918C23.0157 7.07091 22.762 7.05917 22.5428 7.02398C22.387 6.99857 22.2254 6.99076 22.0293 6.99271C21.8101 6.99565 21.666 7.0064 21.5391 7.03279C21.3718 7.06895 21.2852 7.11586 20.9334 7.12564C19.3125 7.16767 17.6915 7.21458 16.0763 7.25954C15.8514 7.24586 15.7418 7.22533 15.7995 7.2009C15.8341 7.18624 15.9033 7.16669 15.9725 7.16474C16.6359 7.14421 17.305 7.12662 17.9684 7.10707C18.0607 7.10414 18.1875 7.10608 18.2395 7.09631C18.4933 7.05233 18.5857 6.98098 19.0644 6.97609C19.3413 6.97316 19.6239 6.95851 19.8893 6.94482C19.9643 6.94091 20.0335 6.92039 20.0508 6.90572C20.0566 6.89791 19.9643 6.88324 19.895 6.8764C19.6412 6.84805 19.3471 6.88227 19.0933 6.86272C19.0068 6.85588 18.8856 6.84611 18.8683 6.83438C18.8567 6.82363 18.9548 6.80603 19.024 6.79528C19.0875 6.7855 19.1739 6.77671 19.2605 6.77378C20.0219 6.7513 20.7834 6.72784 21.5449 6.71025C21.8563 6.7034 22.0755 6.67897 22.2139 6.63401C22.3178 6.60078 22.4447 6.58319 22.6408 6.5783C23.9733 6.54214 25.3057 6.50206 26.644 6.46883C26.9786 6.46101 27.1517 6.42876 27.2901 6.38674C27.3997 6.3535 27.5266 6.34177 27.7401 6.33591C29.6494 6.28509 31.5471 6.2284 33.4565 6.17953C33.8083 6.17073 33.9122 6.1287 34.091 6.09254C34.1545 6.07983 34.1948 6.0642 34.2755 6.05638C34.3563 6.04856 34.4601 6.04953 34.5582 6.04757C36.081 6.00554 37.604 5.96059 39.1326 5.9215C39.4902 5.9127 39.5593 5.86382 39.7439 5.82962C39.8074 5.81886 39.8651 5.80128 39.9401 5.79834C41.0822 5.76511 42.2243 5.73384 43.3664 5.70158C44.1279 5.68008 44.8893 5.65858 45.6507 5.63805C46.0256 5.62828 46.0257 5.62729 46.5333 5.53444C46.591 5.52369 46.6718 5.51098 46.7468 5.50805C48.9387 5.4455 51.1249 5.38589 53.3169 5.32431C53.5014 5.31942 53.6341 5.29693 53.7264 5.2637C53.8187 5.23047 53.9515 5.20799 54.1303 5.2031C55.8435 5.15423 57.5566 5.10635 59.2756 5.06041C59.5871 5.05259 59.8062 5.02913 59.9447 4.98515C60.0485 4.95192 60.1754 4.93433 60.3715 4.92944C62.0847 4.88253 63.798 4.83267 65.517 4.78771C65.8458 4.77892 66.0072 4.74569 66.1688 4.70659C66.2264 4.69291 66.2726 4.67043 66.3418 4.66847C67.1956 4.64111 68.0435 4.61276 68.903 4.59419C69.2606 4.58637 69.3818 4.54532 69.526 4.50622C69.6414 4.47495 69.7741 4.4642 69.9933 4.46029C70.472 4.45149 70.945 4.43488 71.4122 4.41827C71.4815 4.41534 71.568 4.39383 71.5738 4.38015C71.5853 4.35474 71.4526 4.33714 71.2334 4.32834C68.9491 4.39187 66.6592 4.4554 64.3749 4.51893C63.9999 4.52968 63.9999 4.52969 63.4923 4.62254C63.4346 4.63329 63.3538 4.646 63.273 4.64893C61.0811 4.71051 58.8949 4.77111 56.7029 4.83268C56.5184 4.83757 56.3857 4.86005 56.2934 4.89328C56.2011 4.92651 56.0683 4.94899 55.8895 4.95388C53.7956 5.01252 51.7018 5.07214 49.6021 5.12786C49.2906 5.13567 49.0714 5.15814 48.933 5.2031C48.8292 5.23634 48.7023 5.25394 48.5061 5.25882C46.5045 5.31356 44.5086 5.37122 42.5012 5.424C42.2993 5.42888 42.1494 5.40054 42.1609 5.37415C42.1667 5.36046 42.2531 5.33799 42.3223 5.33604C43.3664 5.30379 44.4048 5.27055 45.4547 5.24612C45.8065 5.2383 45.9103 5.19529 46.0891 5.15913C46.1468 5.14642 46.193 5.12981 46.2679 5.12296C46.3487 5.11514 46.4525 5.11613 46.5506 5.11417C49.0252 5.04478 51.4999 4.97441 53.9803 4.90892C54.3379 4.89915 54.4071 4.85125 54.5916 4.81704C54.6551 4.80531 54.7128 4.78772 54.7878 4.78577C55.5492 4.76231 56.3106 4.74178 57.0721 4.72126C58.4045 4.68412 59.737 4.64697 61.0753 4.60983C61.4617 4.59908 61.4618 4.59908 61.9578 4.5072C62.0155 4.49645 62.0963 4.48278 62.1713 4.48082C65.6958 4.38211 69.2203 4.28339 72.7448 4.18565C72.9294 4.18076 73.062 4.15828 73.1543 4.12505C73.2466 4.0928 73.3792 4.06934 73.5581 4.06347C78.3227 3.93055 83.0816 3.79762 87.8463 3.66665C88.1578 3.65785 88.3769 3.63732 88.5154 3.59139C88.6134 3.55816 88.7461 3.54057 88.9422 3.5347C94.1799 3.38907 99.4175 3.24344 104.661 3.09683C108.185 2.99909 111.71 2.8994 115.234 2.80362C115.557 2.79482 115.73 2.76451 115.892 2.72444C115.944 2.71076 115.996 2.68828 116.065 2.68632C116.821 2.66189 117.576 2.63941 118.332 2.61693C118.568 2.64332 118.805 2.66874 119.041 2.69513C119.22 2.65799 119.393 2.61986 119.572 2.58272C120.714 2.55438 121.839 2.5104 122.993 2.49671C123.068 2.49574 123.149 2.51431 123.229 2.52408C123.766 2.58566 124.071 2.58077 124.412 2.49867C124.533 2.46935 124.637 2.44296 124.821 2.43807C125.392 2.42048 125.969 2.40875 126.535 2.38822C126.84 2.37747 127.094 2.38724 127.313 2.42243C127.469 2.44784 127.631 2.4586 127.821 2.45274C128.871 2.42341 129.915 2.39507 130.965 2.36379C131.04 2.36183 131.109 2.34521 131.167 2.33348C131.288 2.30807 131.392 2.28071 131.507 2.25432C131.663 2.27094 131.836 2.28365 131.963 2.30515C132.124 2.33056 132.274 2.33055 132.493 2.32371C136.681 2.20545 140.875 2.09012 145.063 1.97088C145.42 1.9611 145.576 2.00216 145.818 2.02366C145.899 2.03148 145.98 2.04125 146.066 2.0432C146.159 2.04516 146.257 2.0393 146.349 2.03637C149.493 1.9484 152.636 1.86141 155.78 1.77344C156.196 1.76171 156.196 1.76171 156.813 1.82231C156.888 1.83013 156.986 1.83893 157.067 1.836C158.497 1.79788 159.928 1.75683 161.352 1.71773C161.537 1.71285 161.693 1.72848 161.86 1.75096C162.189 1.79495 162.212 1.79495 162.454 1.73044C162.569 1.70014 162.691 1.68156 162.881 1.67277C163.089 1.66299 163.256 1.66594 163.417 1.68353C163.648 1.70796 163.816 1.74901 164.167 1.73826C165.69 1.69232 167.219 1.6542 168.736 1.60729C169.082 1.59654 169.267 1.62977 169.497 1.6542C169.578 1.663 169.653 1.67668 169.74 1.67962C169.826 1.68255 169.93 1.6757 170.022 1.67277C171.926 1.61999 173.835 1.5682 175.733 1.51151C176.09 1.50076 176.246 1.54278 176.489 1.56428C176.569 1.5721 176.662 1.58579 176.737 1.58383C177.879 1.55353 179.027 1.52127 180.169 1.48902C180.578 1.47729 180.578 1.47827 181.201 1.53789C181.276 1.54571 181.374 1.55353 181.455 1.55157C182.788 1.51541 184.126 1.47827 185.458 1.44113C185.868 1.4294 185.868 1.4294 187.05 1.48022C187.137 1.48413 187.229 1.49001 187.316 1.48805C188.839 1.44602 190.367 1.40497 191.89 1.36001C192.196 1.35121 192.45 1.35903 192.669 1.39421C192.825 1.41962 192.986 1.43038 193.176 1.42452C194.89 1.37663 196.609 1.33069 198.316 1.27987C198.645 1.27009 198.858 1.29159 199.089 1.31993C199.164 1.3297 199.239 1.34339 199.326 1.3473C199.412 1.35121 199.51 1.3473 199.602 1.34436C201.316 1.29647 203.034 1.25151 204.742 1.19971C205.088 1.18896 205.273 1.22219 205.503 1.24663C205.584 1.25542 205.671 1.27302 205.74 1.27204C206.409 1.25542 207.078 1.24077 207.741 1.21633C208.099 1.20265 208.255 1.2476 208.497 1.2691C208.578 1.27595 208.67 1.29061 208.745 1.28866C210.176 1.25054 211.606 1.21047 213.031 1.16942C213.233 1.16356 213.383 1.17234 213.544 1.19776C213.758 1.23196 214.006 1.24565 214.317 1.2349C214.981 1.21242 215.65 1.19678 216.319 1.17821C216.711 1.16746 216.711 1.16746 217.911 1.21829C217.998 1.2222 218.09 1.22806 218.176 1.2261C219.319 1.19483 220.466 1.16453 221.603 1.13032C221.909 1.12055 222.162 1.12934 222.382 1.16453C222.537 1.18994 222.693 1.2007 222.889 1.19483C223.939 1.16551 224.983 1.13619 226.033 1.10687C226.414 1.09611 226.794 1.07754 227.175 1.07754C227.452 1.07852 227.654 1.12543 227.902 1.14889C227.971 1.15573 228.087 1.14792 228.179 1.14596C229.511 1.10882 230.85 1.07461 232.176 1.03258C232.522 1.02183 232.707 1.05506 232.938 1.0795C233.018 1.08829 233.105 1.10589 233.174 1.10491C233.653 1.09416 234.126 1.07949 234.605 1.06679C235.176 1.05115 235.753 1.03942 236.318 1.01792C236.779 1.00033 236.952 1.08536 237.322 1.08829C237.604 1.09122 237.893 1.07461 238.175 1.06679C238.746 1.05115 239.317 1.03356 239.888 1.01988C240.09 1.01499 240.246 0.999344 240.31 0.964158C240.321 0.957316 240.223 0.942662 240.16 0.933865C239.393 0.834171 239.392 0.834166 238.619 0.855669C238.141 0.869352 237.668 0.883038 237.189 0.894767C237.108 0.896722 237.016 0.888903 236.935 0.883039C236.704 0.866423 236.727 0.846877 236.924 0.811691C237.12 0.776505 237.27 0.733504 237.437 0.693431C237.673 0.718843 237.904 0.744246 238.141 0.769658C238.331 0.764771 238.521 0.758915 238.712 0.754028C239.664 0.728616 240.615 0.702225 241.567 0.678767C241.636 0.676813 241.723 0.696363 241.804 0.706137C242.034 0.734481 242.242 0.75891 242.577 0.748158C243.43 0.719814 244.29 0.699289 245.143 0.674854C245.518 0.664103 245.518 0.664104 246.176 0.724702C246.251 0.731544 246.349 0.739363 246.43 0.737408C247.289 0.714928 248.143 0.690496 249.002 0.667039C249.187 0.662152 249.366 0.674858 249.499 0.703202C249.551 0.714931 249.539 0.734475 249.758 0.894767C250.439 1.02476 250.906 1.01108 251.379 0.999355C251.581 0.994468 251.76 0.989576 251.892 0.970028C251.962 0.959277 252.048 0.943636 252.048 0.93093C252.048 0.921156 251.921 0.905515 251.841 0.90356C251.27 0.884012 250.727 0.925068 250.168 0.933865C249.908 0.937775 249.683 0.903565 249.637 0.847854C249.626 0.832216 249.608 0.815601 249.591 0.799963C249.574 0.784325 249.562 0.76771 249.545 0.752072C249.32 0.747185 249.187 0.764775 249.089 0.798006C249.008 0.825373 248.893 0.85665 248.737 0.871311C248.581 0.886949 248.368 0.884022 248.178 0.888909C247.993 0.893796 247.791 0.9065 247.618 0.899659C247.445 0.89184 247.307 0.86349 247.145 0.845897C247.07 0.837101 246.978 0.8244 246.903 0.826354C246.24 0.84297 245.582 0.859579 244.924 0.881082C244.578 0.892811 244.405 0.851767 244.186 0.826354C244.013 0.806807 243.84 0.811687 243.811 0.856647C243.736 0.96416 244.001 1.00912 244.59 0.988593C245.074 0.971 245.513 0.968077 245.893 1.03454C245.945 1.04334 246.066 1.04724 246.141 1.04529C246.614 1.03356 247.082 1.0189 247.555 1.00717C247.641 1.00521 247.734 1.00912 247.814 1.01303C248.991 1.06581 248.991 1.06679 249.389 1.05506C249.579 1.0492 249.764 1.04431 249.747 0.895745C250.11 0.736431 250.687 0.725681 251.246 0.702224C251.61 0.687563 251.766 0.73057 252.002 0.75305C252.083 0.760869 252.169 0.776505 252.244 0.77455C253.485 0.742296 254.719 0.708082 255.953 0.671919C256.161 0.666055 256.311 0.67192 256.472 0.697332C256.68 0.729586 256.911 0.750115 257.24 0.738387C257.897 0.714929 258.566 0.700272 259.236 0.680724C259.576 0.67095 259.576 0.67094 260.262 0.731538C260.337 0.73838 260.435 0.7462 260.516 0.744245C261.185 0.727629 261.849 0.70711 262.512 0.689517C262.697 0.68463 262.864 0.698312 263.008 0.724702C263.152 0.751091 263.325 0.764773 263.504 0.759886C264.173 0.742293 264.837 0.722752 265.5 0.705159C265.581 0.703204 265.679 0.710045 265.754 0.716887C266.458 0.777485 266.458 0.777475 266.781 0.767701C267.254 0.75304 267.738 0.746206 268.205 0.726659C268.661 0.707111 268.898 0.763795 269.209 0.795071C270.063 0.772591 270.922 0.754025 271.77 0.726659C272.116 0.71493 272.301 0.747181 272.532 0.772593C272.612 0.78139 272.693 0.799962 272.768 0.798985C273.056 0.795075 273.339 0.784326 273.622 0.776506C273.905 0.768687 274.193 0.760869 274.476 0.75305C274.799 0.781394 275.012 0.847856 275.474 0.825376C275.75 0.811693 276.045 0.80876 276.327 0.800941C276.61 0.793122 276.898 0.785304 277.181 0.777485C277.371 0.772598 277.567 0.769661 277.752 0.760865C278.092 0.746204 278.26 0.794102 278.502 0.815604C278.583 0.822446 278.675 0.834167 278.75 0.832212C279.321 0.818529 279.898 0.806801 280.457 0.784321C280.89 0.766728 281.184 0.796054 281.49 0.837104C281.553 0.845901 281.663 0.850787 281.744 0.848832C282.413 0.832217 283.076 0.811686 283.74 0.794093C283.918 0.789206 284.091 0.804844 284.236 0.830256C284.386 0.856645 284.553 0.869361 284.737 0.864474C285.401 0.846881 286.07 0.827327 286.733 0.809734C286.814 0.80778 286.912 0.8156 286.987 0.823419C287.633 0.884018 287.633 0.884996 288.014 0.873267C288.106 0.870335 288.204 0.868373 288.297 0.86544C288.77 0.851757 289.26 0.846877 289.721 0.823419C290.252 0.79703 290.639 0.830262 291.013 0.885974C291.486 0.874245 291.971 0.867402 292.432 0.847854C292.779 0.833193 292.963 0.870332 293.194 0.894767C293.275 0.903563 293.361 0.921157 293.43 0.919202C294.099 0.902586 294.769 0.88793 295.426 0.863496C295.784 0.849812 295.94 0.893787 296.182 0.916267C296.263 0.924086 296.349 0.937777 296.424 0.935822C296.805 0.928003 297.186 0.916268 297.566 0.905517C298.011 0.892811 298.01 0.893787 298.599 0.953408C298.876 0.981752 299.153 0.959271 299.424 0.95243C299.712 0.944611 299.983 0.938748 300.214 0.978821C300.358 1.00423 300.531 1.01987 300.71 1.01596C301.091 1.00717 301.477 0.998374 301.852 0.983713C302.152 0.971984 302.412 0.979799 302.631 1.01596C302.787 1.04137 302.948 1.05409 303.139 1.04822C303.992 1.02477 304.852 1.00032 305.705 0.977843C305.78 0.975888 305.884 0.984688 305.953 0.993484C306.115 1.01108 306.271 1.03062 306.426 1.05017C306.801 1.04137 307.188 1.03747 307.557 1.02379C307.949 1.01011 308.307 1.00522 308.613 1.05897C308.676 1.0707 308.768 1.08731 308.843 1.08633C309.132 1.08242 309.414 1.07265 309.697 1.06483C309.98 1.05701 310.268 1.04919 310.551 1.04138C310.88 1.06581 311.087 1.13618 311.549 1.1137C311.826 1.10002 312.12 1.09709 312.403 1.08927C312.685 1.08145 312.974 1.07265 313.256 1.06581C313.349 1.06386 313.452 1.05897 313.533 1.06288C313.62 1.06679 313.695 1.08047 313.77 1.09025C314 1.11859 314.214 1.14694 314.543 1.13032C314.819 1.11664 315.114 1.11371 315.396 1.10491C315.783 1.09416 315.783 1.09416 316.423 1.15573C316.683 1.18115 316.977 1.14792 317.225 1.16942C317.392 1.18408 317.536 1.20851 317.698 1.22513C317.767 1.23197 317.877 1.2349 317.957 1.23294C318.338 1.22414 318.725 1.21535 319.1 1.20069C319.405 1.18896 319.659 1.20069 319.873 1.23588C320.028 1.26129 320.184 1.27204 320.38 1.26618C321.332 1.23881 322.284 1.21535 323.23 1.18505C323.553 1.1743 323.812 1.19092 323.991 1.2261C324.297 1.2867 324.729 1.21535 325.047 1.26422C325.243 1.29452 325.439 1.32971 325.797 1.31505C326.454 1.28964 327.123 1.27595 327.787 1.25835C328.023 1.28474 328.26 1.31114 328.502 1.33753C328.883 1.32678 329.263 1.31602 329.644 1.30624C329.927 1.29843 330.215 1.28963 330.498 1.28279C330.59 1.28083 330.688 1.27692 330.775 1.28181C330.861 1.2867 330.931 1.29941 331.011 1.30918C331.409 1.35707 331.409 1.35805 332.067 1.33851C332.349 1.32971 332.621 1.32385 332.857 1.36294C333.076 1.3991 333.336 1.40594 333.636 1.39519C334.201 1.37564 334.772 1.36098 335.349 1.3473C335.528 1.34241 335.695 1.35903 335.845 1.38444C336.07 1.42451 336.347 1.42061 336.63 1.40985C337.005 1.39617 337.374 1.38249 337.691 1.43722C337.754 1.44895 337.853 1.46556 337.922 1.46458C338.395 1.45676 338.874 1.4509 339.335 1.43233C339.796 1.41376 340.021 1.47436 340.339 1.50368C340.812 1.49097 341.29 1.47827 341.763 1.46556C341.856 1.46263 341.965 1.45384 342.046 1.45872C342.386 1.47925 342.583 1.55255 343.05 1.53007C343.321 1.51737 343.615 1.51346 343.898 1.51053C343.973 1.50955 344.071 1.52616 344.123 1.53886C344.152 1.54571 344.123 1.56428 344.088 1.57405C343.984 1.60142 343.857 1.62684 343.765 1.65518C343.753 1.65909 343.863 1.67668 343.927 1.68449C344.082 1.70209 344.261 1.69916 344.469 1.69134C344.648 1.6845 344.832 1.69818 344.959 1.72751C345.011 1.73924 344.994 1.75878 344.884 1.82329C344.884 1.87118 345.005 1.84967 345.046 1.8184C345.109 1.77344 344.988 1.75878 344.757 1.78321C344.596 1.80081 344.515 1.82622 344.555 1.84675C344.578 1.8575 344.688 1.87118 344.884 1.82329C345.392 1.76465 345.772 1.7539 346.153 1.74315C346.251 1.74022 346.367 1.73044 346.436 1.7363C346.684 1.75976 346.915 1.78811 347.157 1.8145C347.434 1.80863 347.693 1.79396 347.964 1.83208C348.345 1.88584 348.362 1.88095 348.732 1.8702C348.922 1.86434 349.112 1.85946 349.303 1.85457C349.493 1.84969 349.643 1.86434 349.81 1.88682C350.151 1.93276 350.179 1.93275 350.404 1.8702C350.537 1.83208 350.629 1.81938 350.797 1.83697C351.35 1.89659 351.356 1.9005 351.829 1.88291C352.221 1.86825 352.591 1.86434 352.879 1.92005C353.075 1.95915 353.139 1.95035 353.294 1.9093C353.71 1.80081 353.9 1.80276 354.679 1.88095C355.042 1.91809 355.417 1.87802 355.786 1.87314C356.098 1.86923 356.317 1.89268 356.34 1.95426C356.357 1.99237 356.409 2.01975 356.617 2.03245C356.698 2.03734 356.796 2.04418 356.876 2.04222C357.355 2.03049 357.828 2.01681 358.307 2.00313C358.549 1.99628 358.682 1.95036 358.636 1.88976C358.584 1.82525 358.676 1.80178 359.022 1.78321C359.23 1.77246 359.397 1.77442 359.565 1.79202C359.749 1.81157 359.697 1.82916 359.536 1.86434C359.149 1.95035 359.195 2.00312 359.691 2.06274C359.865 2.08327 360.003 2.10185 360.043 2.13215C360.066 2.14779 360.043 2.16831 360.095 2.18004C360.378 2.24552 360.77 2.28756 361.209 2.31883C361.63 2.29244 361.918 2.33642 362.241 2.3716C362.495 2.39897 362.795 2.37552 363.066 2.36575C363.372 2.35499 363.625 2.36281 363.845 2.39897C364 2.42439 364.162 2.43611 364.352 2.43122C364.733 2.42047 365.119 2.41363 365.494 2.398C365.817 2.38431 366.06 2.40386 366.262 2.43709C366.515 2.47912 366.798 2.45077 367.063 2.45664C367.421 2.46348 367.6 2.55046 368.067 2.52701C368.344 2.51332 368.632 2.50844 368.921 2.50453C368.996 2.50355 369.088 2.52017 369.152 2.5319C369.457 2.58565 369.815 2.58272 370.207 2.56708C370.478 2.55633 370.744 2.54656 371.009 2.5837C371.447 2.64626 371.932 2.70099 372.393 2.75866C372.457 2.80362 372.411 2.85639 372.739 2.88278C372.913 2.89646 373.074 2.91699 373.207 2.93947C373.368 2.96586 373.518 2.97271 373.726 2.96587C374.101 2.95218 374.493 2.94924 374.862 2.93165C375.203 2.91601 375.416 2.94827 375.624 2.97857C375.791 3.00301 375.947 3.01473 376.149 2.99714C376.356 2.98052 376.506 2.99127 376.674 3.01766C376.91 3.05382 376.927 3.04992 377.712 3.06067C377.793 3.06165 377.891 3.0763 377.937 3.08901C377.96 3.09585 377.908 3.11541 377.868 3.12518C377.816 3.13691 377.735 3.15058 377.66 3.15352C376.806 3.17893 375.947 3.20141 375.093 3.22682C375.006 3.22975 374.914 3.2366 374.851 3.24638C374.782 3.25713 374.695 3.27178 374.695 3.28546C374.695 3.29524 374.81 3.30697 374.891 3.31381C375.145 3.33629 375.445 3.30208 375.693 3.3275C375.86 3.34411 375.999 3.36756 376.166 3.3832C376.235 3.39004 376.345 3.38907 376.431 3.38712C376.72 3.38027 377.002 3.3705 377.291 3.36464C377.372 3.36366 377.464 3.37344 377.539 3.38126C378.093 3.4399 378.093 3.4399 378.571 3.42719C378.762 3.4223 378.964 3.40764 379.142 3.41351C379.315 3.41937 379.465 3.44576 379.621 3.46238C379.944 3.49756 380.25 3.53177 380.273 3.60801C380.284 3.63733 380.475 3.66274 380.665 3.66469C380.85 3.66665 381.046 3.6559 381.236 3.65004C381.686 3.63831 381.686 3.63831 382.269 3.69793C382.43 3.71455 382.603 3.7165 382.811 3.70672C382.892 3.70281 382.99 3.70673 383.076 3.71162C383.359 3.72628 383.359 3.74484 383.174 3.78003C382.915 3.83183 382.938 3.83672 383.665 3.8807C383.942 3.89732 384.155 3.9286 384.386 3.95596C384.761 3.99995 384.755 3.99994 384.507 4.0576C384.449 4.07031 384.397 4.084 384.34 4.09768C384.172 4.1358 384.04 4.17685 383.694 4.18076C383.313 4.18467 382.932 4.20031 382.551 4.21106C382.182 4.22181 382.084 4.24526 382.119 4.31172C382.159 4.39187 382.234 4.40067 382.898 4.39969C383.088 4.39969 383.255 4.40751 383.399 4.4339C383.33 4.46517 383.203 4.48961 383.019 4.49547C382.546 4.51013 382.067 4.52284 381.594 4.53555C381.213 4.5463 380.833 4.55705 380.452 4.5678C380.215 4.57464 380.065 4.62547 380.129 4.68216C380.163 4.71441 380.192 4.74667 380.221 4.77892C380.284 4.84343 380.406 4.86005 380.792 4.85712C380.89 4.85614 380.982 4.84831 381.075 4.85027C381.45 4.85711 381.628 4.93823 382.078 4.92162C382.453 4.90793 382.846 4.905 383.215 4.88741C383.555 4.87177 383.745 4.90697 383.982 4.93336C384.063 4.94215 384.149 4.96071 384.219 4.95973C384.697 4.94898 385.176 4.93824 385.643 4.91967C385.863 4.91185 385.995 4.91771 386.168 4.94117C386.584 4.99786 386.595 4.99493 387.212 4.97733C387.662 4.96365 387.668 4.9656 388.245 5.02522C388.406 5.04184 388.579 5.04184 388.787 5.03402C389.058 5.02424 389.341 5.00861 389.623 5.02327C389.71 5.02718 389.82 5.03891 389.848 5.05162C389.866 5.06041 389.785 5.08192 389.716 5.08876C389.208 5.13958 388.614 5.13079 388.06 5.15131C387.887 5.15718 387.714 5.1386 387.57 5.11221C387.42 5.08582 387.258 5.07508 387.062 5.07996C386.682 5.09072 386.295 5.09755 385.92 5.11319C385.597 5.12688 385.372 5.10439 385.147 5.07409C385.072 5.06432 384.986 5.04575 384.911 5.04672C384.057 5.06627 383.198 5.08582 382.35 5.11319C382.009 5.12492 381.813 5.09365 381.582 5.06726C381.502 5.05846 381.421 5.03989 381.346 5.04087C381.058 5.04478 380.775 5.05552 380.486 5.06334C379.437 5.09267 378.392 5.12199 377.343 5.14935C377.273 5.15131 377.187 5.13078 377.106 5.12198C376.95 5.10439 376.789 5.08777 376.627 5.07116C376.339 5.07898 376.056 5.08875 375.768 5.09461C375.56 5.09852 375.376 5.11221 375.347 5.14935C375.329 5.17379 375.52 5.19627 375.722 5.19431C375.918 5.19236 376.114 5.18063 376.276 5.19333C377.077 5.25589 377.077 5.25687 377.579 5.24416C378.018 5.23243 377.971 5.22265 378.358 5.27641C378.525 5.29987 378.675 5.31356 378.866 5.30769C379.339 5.29401 379.817 5.28032 380.296 5.26859C380.371 5.26664 380.469 5.27642 380.544 5.28424C381.109 5.34288 381.109 5.34483 381.577 5.33017C382.188 5.31258 382.211 5.30769 382.621 5.36731C382.903 5.40836 383.163 5.38002 383.434 5.37806C383.745 5.41618 384.086 5.45039 384.369 5.4934C384.703 5.54422 385.055 5.53542 385.436 5.52076C385.718 5.51 385.995 5.5061 386.226 5.54617C386.445 5.58331 386.71 5.58723 387.01 5.57745C387.281 5.56866 387.558 5.55008 387.841 5.57158C387.916 5.57745 388.031 5.59211 388.026 5.60091C388.02 5.61459 387.945 5.63414 387.87 5.64001C387.339 5.68008 386.757 5.6791 386.197 5.69767C386.122 5.7006 386.024 5.68985 385.949 5.68203C385.788 5.66444 385.632 5.64391 385.476 5.62534C385.193 5.63121 384.905 5.63316 384.628 5.64489C384.415 5.65368 384.253 5.65271 384.097 5.62926C383.953 5.60775 383.797 5.58136 383.624 5.57452C383.451 5.56768 383.249 5.58234 383.059 5.5882C382.869 5.59407 382.65 5.59113 382.5 5.60677C382.35 5.62241 382.257 5.65662 382.159 5.68399C382.05 5.71428 381.9 5.72406 381.68 5.727C381.479 5.72993 381.317 5.72602 381.167 5.69865C381.104 5.68692 381.017 5.67812 380.93 5.6703C380.85 5.66346 380.757 5.6527 380.682 5.65466C379.823 5.67714 378.969 5.70158 378.11 5.72504C377.683 5.73677 377.689 5.73676 376.8 5.67909C376.72 5.67421 376.622 5.66737 376.541 5.66932C376.062 5.68105 375.589 5.69474 375.11 5.70842C374.626 5.7221 374.632 5.72015 373.807 5.65857C373.657 5.64684 373.438 5.66248 373.259 5.66053C372.884 5.65564 372.699 5.57354 372.261 5.58918C371.886 5.60286 371.493 5.60579 371.118 5.62339C370.778 5.63903 370.582 5.60482 370.351 5.57843C370.271 5.56963 370.184 5.55009 370.115 5.55204C369.255 5.57354 368.402 5.59798 367.26 5.60091C366.977 5.60091 367.104 5.62144 367.288 5.62828C367.554 5.63903 367.64 5.61851 367.496 5.57941C367.392 5.55204 367.242 5.53835 367.121 5.54519C367.058 5.5491 366.977 5.56768 367.26 5.60091C367.559 5.63805 367.542 5.65857 367.594 5.6703C367.721 5.69864 367.9 5.71037 368.085 5.70646C368.373 5.69962 368.656 5.68985 368.944 5.68399C369.025 5.68203 369.123 5.68887 369.198 5.69669C369.832 5.75729 369.838 5.7612 370.513 5.73775C370.726 5.7309 370.882 5.7309 371.049 5.74947C371.28 5.77489 371.447 5.81789 371.799 5.8042C372.267 5.78563 372.745 5.77489 373.224 5.76414C373.299 5.76218 373.38 5.77978 373.466 5.78759C373.703 5.81105 373.876 5.85503 374.228 5.83646C374.499 5.8218 374.793 5.81788 375.081 5.81495C375.156 5.81397 375.272 5.82962 375.306 5.84232C375.376 5.8648 375.289 5.8912 375.093 5.90977C375.012 5.91759 374.903 5.91563 374.81 5.91856C374.43 5.92931 374.049 5.94104 373.668 5.94983C373.466 5.95472 373.276 5.96939 373.253 6.00555C373.236 6.02999 373.443 6.05148 373.639 6.04953C373.928 6.0466 374.216 6.03878 374.493 6.02607C374.983 6.00457 375.41 6.01043 375.808 6.07201C376.091 6.11501 376.074 6.09938 376.374 6.22644C376.449 6.2587 376.674 6.26162 376.87 6.25967C377.343 6.25478 377.562 6.26945 377.521 6.29975C377.47 6.33689 377.302 6.34861 377.089 6.3535C376.708 6.36131 376.327 6.37403 375.947 6.38478C375.854 6.38771 375.751 6.39357 375.664 6.39162C375.578 6.38966 375.497 6.37793 375.422 6.36914C375.26 6.35057 375.122 6.32222 374.949 6.31538C374.776 6.30853 374.574 6.3232 374.383 6.32906C374.193 6.33395 373.991 6.34861 373.818 6.34177C373.645 6.33493 373.501 6.30561 373.345 6.28802C373.27 6.27922 373.178 6.26553 373.103 6.26651C372.722 6.27433 372.342 6.28704 371.961 6.29681C371.494 6.30952 371.494 6.30952 370.928 6.24892C370.767 6.23133 370.599 6.23231 370.386 6.24013C369.925 6.25577 369.919 6.25283 369.077 6.19614C368.996 6.19027 368.898 6.18343 368.817 6.18637C367.957 6.20885 367.104 6.23328 366.25 6.25673C365.517 6.27726 365.517 6.27727 365.114 6.37501C364.814 6.44733 364.808 6.44733 365.102 6.48056C365.339 6.50793 365.552 6.548 365.812 6.56266C366.054 6.57634 366.354 6.53236 366.619 6.57732C366.752 6.5998 366.925 6.62424 367.092 6.62815C367.358 6.63304 367.64 6.60469 367.894 6.64769C368.021 6.66919 368.211 6.69168 368.373 6.69266C368.656 6.69461 368.944 6.67897 369.227 6.67213C369.313 6.67017 369.411 6.67017 369.492 6.67506C369.578 6.68093 369.653 6.69266 369.728 6.70243C369.959 6.73566 370.207 6.7513 370.507 6.73468C370.997 6.70731 371.436 6.721 371.817 6.78355C371.869 6.79235 371.995 6.79333 372.076 6.78942C372.284 6.77965 372.463 6.77867 372.618 6.79724C372.682 6.80505 372.774 6.81873 372.763 6.82753C372.745 6.84219 372.676 6.86174 372.601 6.86663C372.059 6.89986 371.476 6.90377 370.917 6.92137C370.842 6.92332 370.749 6.91061 370.674 6.90181C370.513 6.88422 370.374 6.8549 370.201 6.84806C370.028 6.84122 369.827 6.85392 369.636 6.85881C369.446 6.8637 369.244 6.87836 369.071 6.8725C368.898 6.86565 368.736 6.84122 368.598 6.81971C368.436 6.79528 368.281 6.79235 368.067 6.80213C367.79 6.81483 367.502 6.81679 367.219 6.82363C367.064 6.80506 366.908 6.78452 366.746 6.76693C366.671 6.75813 366.579 6.74739 366.498 6.74837C366.117 6.75619 365.737 6.76791 365.356 6.77866C364.975 6.78941 364.975 6.78942 364.329 6.72882C364.254 6.72198 364.156 6.71416 364.075 6.71612C363.597 6.72784 363.124 6.7425 362.645 6.75422C362.46 6.75911 362.293 6.74543 362.143 6.71904C361.999 6.69265 361.826 6.67799 361.647 6.68288C360.885 6.7034 360.124 6.72295 359.363 6.74739C359.057 6.75716 358.797 6.74837 358.59 6.71318C358.347 6.67311 358.076 6.68288 357.794 6.6907C357.153 6.71025 357.148 6.70927 356.738 6.65942C356.657 6.64965 356.577 6.63107 356.502 6.63205C355.838 6.64671 355.169 6.6604 354.512 6.68385C354.165 6.69656 353.981 6.66235 353.75 6.63694C353.669 6.62815 353.583 6.60957 353.514 6.61153C353.035 6.62228 352.556 6.63206 352.089 6.65161C351.621 6.67115 351.443 6.58026 351.091 6.58124C350.612 6.58221 350.139 6.60469 349.666 6.61838C349.285 6.62913 348.905 6.63988 348.524 6.65063C348.143 6.66138 347.763 6.67017 347.382 6.68288C347.18 6.68972 347.03 6.68092 346.863 6.65648C346.649 6.62423 346.395 6.59883 346.165 6.56951C345.813 6.52748 345.813 6.52747 345.386 6.5392C345.294 6.54213 345.196 6.54409 345.103 6.54702C344.405 6.56852 344.405 6.56657 343.517 6.505C343.477 6.50206 343.373 6.51282 343.332 6.52064C343.211 6.54605 343.102 6.57341 342.992 6.5998C342.836 6.58416 342.646 6.57537 342.542 6.55289C342.248 6.48936 341.786 6.57634 341.487 6.51379C341.377 6.49033 341.187 6.46981 341.014 6.46394C340.835 6.45808 340.633 6.47176 340.448 6.47763C339.969 6.49229 339.969 6.49131 339.56 6.5783C339.352 6.62131 339.052 6.61348 338.781 6.62326C338.499 6.63401 338.227 6.63987 337.991 6.5998C337.777 6.56364 337.518 6.55484 337.212 6.56657C336.837 6.58123 336.451 6.59003 336.07 6.59882C335.989 6.60078 335.891 6.59589 335.81 6.59003C334.928 6.53236 334.928 6.53139 334.501 6.54409C334.311 6.54996 334.115 6.55191 333.93 6.5607C333.618 6.57634 333.382 6.55582 333.157 6.52454C333.082 6.51477 332.995 6.4962 332.921 6.49718C332.54 6.50207 332.165 6.51086 331.79 6.51966C331.501 6.5265 331.213 6.53041 330.936 6.54409C330.475 6.56657 330.25 6.50304 329.933 6.47371C329.46 6.48642 328.981 6.49522 328.508 6.51281C328.289 6.52063 328.144 6.5177 327.977 6.49425C327.764 6.46492 327.568 6.43169 327.221 6.44636C326.76 6.4659 326.275 6.47275 325.802 6.48448C325.485 6.45418 325.254 6.39259 324.799 6.41507C324.522 6.42876 324.228 6.43169 323.945 6.43951C323.564 6.45026 323.184 6.46004 322.803 6.47177C322.393 6.4835 322.399 6.48057 321.77 6.4229C321.407 6.38869 321.032 6.42681 320.663 6.43267C320.374 6.43756 320.23 6.48251 320.299 6.54018C320.369 6.59785 320.213 6.64281 319.947 6.65063C319.284 6.6692 318.615 6.68874 317.952 6.70535C317.871 6.70731 317.773 6.70047 317.698 6.69363C316.988 6.63205 316.988 6.63304 316.671 6.64183C316.198 6.65649 315.714 6.66431 315.246 6.68288C314.923 6.69558 314.687 6.67507 314.479 6.64183C314.318 6.61642 314.168 6.61056 313.96 6.61642C311.676 6.68191 309.391 6.7425 307.113 6.80994C306.773 6.81972 306.577 6.79138 306.346 6.76499C306.265 6.75619 306.19 6.73762 306.109 6.73762C305.919 6.73762 305.728 6.74641 305.538 6.75228C304.684 6.77574 303.831 6.80408 302.971 6.82167C302.608 6.82949 302.51 6.87445 302.354 6.91159C302.233 6.93994 302.095 6.95166 301.881 6.95557C301.673 6.95948 301.523 6.95459 301.362 6.92918C301.154 6.89595 300.918 6.87542 300.595 6.8891C300.22 6.90474 299.839 6.91159 299.452 6.92234C299.256 6.92723 299.106 6.94482 299.043 6.98001C299.031 6.98587 299.153 7.00054 299.222 7.00933C299.453 7.03865 299.672 7.07286 299.931 7.09339C300.197 7.11391 300.485 7.09045 300.762 7.08458C300.86 7.08263 300.952 7.07677 301.045 7.07775C301.131 7.07872 301.235 7.08361 301.298 7.09241C301.598 7.13639 301.916 7.16669 302.331 7.1403C302.689 7.15301 302.873 7.23413 303.329 7.21263C303.606 7.19992 303.894 7.19406 304.183 7.18917C304.258 7.18819 304.338 7.20579 304.419 7.21458C304.65 7.23902 304.834 7.27811 305.181 7.2615C305.55 7.2439 305.942 7.24097 306.317 7.22729C306.525 7.21947 306.674 7.22631 306.836 7.25172C307.044 7.28398 307.28 7.30841 307.603 7.29277C307.88 7.27908 308.174 7.27615 308.457 7.26735C308.826 7.2566 308.826 7.25758 309.484 7.31818C309.559 7.32502 309.657 7.33284 309.738 7.33089C310.216 7.31916 310.689 7.3045 311.168 7.29277C311.353 7.28788 311.532 7.30059 311.658 7.32893C311.71 7.34066 311.693 7.36022 311.71 7.37683C310.758 7.40322 309.807 7.4257 308.861 7.45795C308.503 7.47066 308.342 7.43058 308.105 7.4081C308.024 7.40029 307.938 7.38367 307.863 7.38563C307.194 7.40224 306.53 7.41983 305.867 7.44133C305.659 7.44817 305.504 7.44426 305.348 7.41592C304.95 7.34066 304.465 7.38171 304.015 7.39246C303.669 7.40028 303.56 7.43059 303.6 7.49509C303.652 7.57133 303.86 7.59479 304.39 7.5811C304.581 7.57622 304.771 7.56937 304.961 7.56546C305.146 7.56155 305.313 7.57426 305.463 7.60065C305.607 7.62704 305.78 7.64072 305.959 7.63681C306.34 7.62801 306.726 7.61922 307.096 7.60456C307.401 7.59283 307.655 7.6026 307.869 7.63877C308.105 7.67884 308.382 7.67004 308.659 7.66125C309.305 7.6417 309.311 7.64268 309.714 7.69155C309.795 7.70132 309.876 7.7199 309.951 7.71892C310.614 7.70426 311.283 7.69155 311.935 7.66809C312.276 7.65637 312.472 7.68764 312.697 7.71305C312.777 7.72185 312.858 7.7414 312.933 7.73944C313.412 7.72869 313.891 7.71794 314.358 7.69937C314.577 7.69057 314.71 7.69643 314.889 7.71989C315.315 7.77755 315.327 7.7756 315.933 7.75703C316.117 7.75116 316.319 7.74042 316.492 7.74824C316.665 7.75605 316.804 7.7844 316.965 7.802C317.04 7.80982 317.133 7.82056 317.213 7.8186C317.594 7.81079 317.975 7.79906 318.355 7.78831C318.713 7.77756 318.713 7.77854 319.382 7.83914C319.653 7.86455 319.936 7.84304 320.207 7.83522C320.501 7.82643 320.767 7.82643 320.992 7.86455C321.217 7.90267 321.488 7.90071 321.776 7.89289C322.047 7.88507 322.324 7.86357 322.601 7.88996C323.235 7.95056 323.236 7.95153 323.628 7.9398C324.199 7.92318 324.764 7.90755 325.341 7.89289C325.416 7.89093 325.514 7.90267 325.589 7.91049C325.75 7.92808 325.889 7.95739 326.062 7.96423C326.235 7.97205 326.437 7.96033 326.621 7.95446C327.216 7.93589 327.256 7.92905 327.654 7.99356C327.989 8.04634 328.404 7.9701 328.715 8.0307C328.894 8.06491 329.136 8.09227 329.471 8.07566C329.748 8.06198 330.036 8.05806 330.325 8.05025C330.78 8.03754 330.78 8.03853 331.357 8.09717C331.432 8.10499 331.53 8.11475 331.605 8.1128C331.986 8.10498 332.373 8.09814 332.742 8.08055C333.174 8.06003 333.451 8.09717 333.774 8.13333C334.028 8.16168 334.328 8.13822 334.599 8.12844C334.893 8.11867 335.159 8.12159 335.378 8.15971C335.609 8.19881 335.88 8.19392 336.168 8.1861C336.439 8.17926 336.716 8.15678 336.993 8.18415C337.587 8.24475 337.587 8.24475 338.02 8.23302C338.4 8.22227 338.781 8.21054 339.162 8.20272C339.237 8.20077 339.329 8.21347 339.404 8.22227C339.566 8.23986 339.704 8.26919 339.877 8.27603C340.05 8.28287 340.252 8.27017 340.442 8.26528C340.633 8.26039 340.835 8.24573 341.008 8.25159C341.181 8.25746 341.342 8.2819 341.481 8.3034C341.642 8.32881 341.792 8.33174 342.011 8.32196C342.288 8.30926 342.577 8.30633 342.859 8.29949C343.015 8.31806 343.177 8.33662 343.327 8.35715C343.482 8.37865 343.65 8.3767 343.863 8.36985C344.573 8.3464 344.578 8.34933 345.172 8.40993C345.444 8.4373 345.726 8.41482 345.997 8.40797C346.286 8.40016 346.557 8.39625 346.782 8.43534C347.001 8.47249 347.272 8.47737 347.561 8.46564C347.745 8.45782 347.941 8.45294 348.132 8.45001C348.218 8.44903 348.322 8.45294 348.385 8.46076C348.691 8.50181 348.991 8.53895 349.412 8.51256C349.781 8.52038 349.966 8.60053 350.41 8.58489C350.785 8.5712 351.177 8.56826 351.547 8.55067C351.887 8.53503 352.129 8.56241 352.302 8.59662C352.614 8.65721 353.052 8.57511 353.364 8.63474C353.542 8.66894 353.773 8.69631 354.119 8.68165C354.5 8.66601 354.621 8.68653 354.731 8.7481C354.794 8.78329 354.783 8.81164 354.667 8.83901C354.552 8.86735 354.425 8.86247 354.24 8.83021C354.027 8.79405 353.773 8.7872 353.467 8.79502C353.167 8.80284 352.983 8.75202 352.735 8.73248C352.487 8.71195 352.193 8.74616 351.933 8.71977C351.322 8.65819 351.322 8.65819 350.906 8.66992C350.624 8.67774 350.329 8.68165 350.053 8.69533C349.724 8.71195 349.51 8.68165 349.285 8.65428C349.205 8.64451 349.124 8.62593 349.055 8.62691C348.391 8.64157 347.722 8.65526 347.065 8.67969C346.718 8.6924 346.534 8.65721 346.303 8.63278C346.222 8.62398 346.136 8.60639 346.067 8.60834C345.496 8.62203 344.93 8.63962 344.359 8.65624C344.25 8.68262 344.128 8.70803 344.025 8.73638C343.915 8.7657 343.765 8.77841 343.546 8.77743C343.182 8.77743 342.825 8.81848 342.461 8.76668C342.086 8.7139 342.058 8.71683 341.694 8.72954C341.233 8.74616 340.742 8.74225 340.31 8.78037C340.235 8.78721 340.154 8.80577 340.154 8.81945C340.148 8.82825 340.269 8.84096 340.344 8.84878C340.598 8.87224 340.892 8.83803 341.146 8.86246C341.313 8.8781 341.452 8.90155 341.619 8.91817C341.688 8.92501 341.792 8.92404 341.885 8.92306C341.983 8.92208 342.075 8.91525 342.167 8.91622C342.254 8.9172 342.346 8.92306 342.415 8.93185C342.733 8.969 343.067 9.00321 343.35 9.04719C343.627 9.0902 343.886 9.06087 344.163 9.05892C345.271 9.12734 345.271 9.12831 346.015 9.10681C346.199 9.10192 346.39 9.09606 346.58 9.09704C346.661 9.09704 346.736 9.11462 346.816 9.1244C347.047 9.15372 347.266 9.18011 347.59 9.16447C347.866 9.15079 348.161 9.14786 348.443 9.13906C348.824 9.12831 348.824 9.12831 349.47 9.18989C349.632 9.20553 349.805 9.20358 350.012 9.19576C350.191 9.18892 350.376 9.20358 350.502 9.23192C350.554 9.24365 350.537 9.2632 350.554 9.27981C349.983 9.29545 349.407 9.3062 348.853 9.32966C348.495 9.34432 348.334 9.30229 348.097 9.27981C348.016 9.27199 347.93 9.25538 347.855 9.25733C347.29 9.27199 346.724 9.2886 346.159 9.30815C346.09 9.3101 346.003 9.33258 345.997 9.34627C345.986 9.37168 346.13 9.39611 346.338 9.39514C346.615 9.39416 346.886 9.37754 347.134 9.41761C347.341 9.4528 347.601 9.46845 347.907 9.45281C348.091 9.44402 348.288 9.44401 348.472 9.43619C348.962 9.41273 349.406 9.41762 349.776 9.48408C350.058 9.50168 350.335 9.48506 350.606 9.47627C350.808 9.46943 351.004 9.46258 351.149 9.48115C351.454 9.52024 351.754 9.55934 352.175 9.53295C352.631 9.56032 352.977 9.61798 353.358 9.6649C353.537 9.68738 353.675 9.70009 353.883 9.68543C353.969 9.67957 354.073 9.67956 354.165 9.67663C354.356 9.67174 354.558 9.65708 354.731 9.66294C354.904 9.66978 355.048 9.69813 355.204 9.71572C355.279 9.72452 355.365 9.73918 355.44 9.7382C355.729 9.73332 356.011 9.72354 356.294 9.71572C356.577 9.70888 356.859 9.70204 357.142 9.6952C357.378 9.72062 357.621 9.74603 357.857 9.77144C358.238 9.76069 358.619 9.74993 358.994 9.74016C359.415 9.72843 359.415 9.72941 360.02 9.79001C360.291 9.81737 360.58 9.79978 360.839 9.78707C361.272 9.76655 361.56 9.80369 361.866 9.84279C361.93 9.85061 362.045 9.85549 362.12 9.85158C362.42 9.8379 362.679 9.84865 362.899 9.88481C363.054 9.91022 363.21 9.92196 363.401 9.91707C364.064 9.8985 364.727 9.87895 365.391 9.86233C365.471 9.86038 365.564 9.86918 365.639 9.877C366.227 9.93662 366.233 9.93955 366.665 9.92391C367.052 9.91023 367.41 9.90436 367.715 9.95812C367.779 9.96984 367.877 9.98646 367.946 9.98549C368.419 9.97571 368.898 9.96496 369.365 9.94834C369.578 9.94053 369.728 9.94346 369.896 9.96594C370.109 9.99429 370.3 10.0285 370.651 10.0158C371.626 9.97963 371.632 9.98548 372.786 10.0529C372.866 10.0578 372.976 10.05 373.068 10.0461C373.264 10.0363 373.409 10.05 373.582 10.0725C373.968 10.1233 373.98 10.1204 374.349 10.1096C374.632 10.1008 374.926 10.0989 375.203 10.0842C375.629 10.0627 375.912 10.1008 376.229 10.137C376.483 10.1653 376.777 10.1419 377.048 10.1331C377.343 10.1233 377.608 10.1262 377.827 10.1634C377.977 10.1888 378.139 10.2025 378.329 10.1976C378.992 10.18 379.656 10.1604 380.319 10.1428C380.4 10.1409 380.498 10.1487 380.573 10.1556C381.231 10.2161 381.231 10.2191 381.882 10.1966C382.09 10.1898 382.263 10.1878 382.419 10.2083C382.569 10.2279 382.73 10.2464 382.886 10.265C383.169 10.2582 383.457 10.2562 383.734 10.2445C383.947 10.2357 384.097 10.2396 384.265 10.2601C384.484 10.2865 384.668 10.3325 385.015 10.31C385.193 10.2992 385.401 10.3022 385.58 10.2924C385.793 10.2797 385.938 10.2875 386.105 10.3129C386.312 10.3432 386.526 10.3745 386.86 10.3588C387.23 10.3413 387.622 10.3383 387.997 10.3246C388.204 10.3168 388.349 10.3246 388.516 10.3501C388.724 10.3823 388.96 10.4028 389.283 10.3901C389.941 10.3657 389.946 10.3706 390.587 10.4321C390.748 10.4478 390.921 10.4458 391.129 10.438C391.308 10.4312 391.492 10.4458 391.619 10.4742C391.74 10.5055 391.729 10.525 391.74 10.5416ZM340.339 1.72653C340.148 1.73142 339.958 1.73728 339.681 1.65225C339.664 1.63758 339.675 1.62 339.635 1.60729C339.543 1.5809 339.398 1.56233 339.225 1.5594C338.914 1.55549 338.539 1.58871 338.545 1.61413C338.55 1.63563 338.648 1.6542 338.839 1.67179C338.92 1.67863 338.983 1.69036 339.058 1.69818C339.277 1.72066 339.45 1.76465 339.768 1.74217C339.71 1.68157 339.739 1.71187 339.768 1.74217C339.739 1.77931 339.825 1.8057 340.033 1.81645C340.091 1.81938 340.177 1.81743 340.223 1.81156C340.402 1.79006 340.431 1.76074 340.298 1.68353C340.275 1.69623 340.293 1.71871 340.344 1.72457C340.396 1.73044 340.523 1.72555 340.587 1.71871C340.748 1.70014 340.829 1.67571 340.789 1.65518C340.766 1.64443 340.656 1.63075 340.587 1.63075C340.466 1.63075 340.356 1.65225 340.339 1.72653ZM386.981 13.0613C386.56 13.0799 386.076 13.0731 385.655 13.1112C385.58 13.118 385.505 13.1356 385.499 13.1493C385.493 13.1581 385.609 13.1708 385.678 13.1776C385.834 13.1933 386.007 13.1884 386.209 13.1835C386.514 13.1767 386.693 13.2216 386.93 13.2441C387.005 13.2509 387.103 13.2558 387.183 13.2539C387.651 13.2421 388.112 13.2295 388.579 13.2158C388.66 13.2128 388.747 13.206 388.816 13.1972C389.047 13.1688 389.024 13.1503 388.799 13.1288C388.551 13.1053 388.354 13.0662 388.101 13.0476C387.737 13.0213 387.368 13.0564 386.981 13.0613ZM354.223 13.7748C353.94 13.7827 353.663 13.7905 353.381 13.7983C353.289 13.8012 353.19 13.8022 353.104 13.8061C352.925 13.8129 352.793 13.8335 352.706 13.8657C352.839 13.8911 353 13.9058 353.179 13.9029C353.462 13.897 353.739 13.8843 354.021 13.8814C354.327 13.8775 354.506 13.9214 354.742 13.9439C354.817 13.9508 354.909 13.9517 354.996 13.9527C355.423 13.9566 355.682 13.9058 355.602 13.8345C355.544 13.7787 355.325 13.7455 355.06 13.7524C354.783 13.7592 354.5 13.767 354.223 13.7748ZM388.954 11.6167C389.024 11.6001 389.099 11.5884 389.133 11.5737C389.237 11.5239 389.197 11.4868 389.006 11.4477C388.775 11.3998 388.493 11.432 388.233 11.4369C388.17 11.4379 388.101 11.4584 388.066 11.4711C388.043 11.4799 388.043 11.4985 388.078 11.5034C388.36 11.5425 388.66 11.5786 388.954 11.6167ZM338.914 8.72954C338.637 8.73736 338.354 8.74322 338.078 8.75397C338.008 8.75691 337.945 8.77547 337.904 8.78818C337.829 8.81164 337.91 8.84389 338.147 8.84682C338.418 8.85073 338.7 8.83412 338.983 8.8263C339.341 8.81653 339.554 8.78036 339.421 8.74908C339.295 8.71878 339.122 8.71292 338.914 8.72954ZM35.2734 6.64086C35.458 6.63597 35.6484 6.63206 35.8329 6.62521C36.006 6.61837 36.1388 6.59687 36.2253 6.56462C36.0811 6.5392 35.9195 6.52552 35.7407 6.52845C35.458 6.53432 35.1812 6.54214 34.9043 6.55191C34.7313 6.55777 34.564 6.57928 34.5237 6.61251C34.4833 6.63792 34.8696 6.65258 35.2734 6.64086ZM314.52 6.49033C314.594 6.49913 314.669 6.51672 314.744 6.51672C314.929 6.51672 315.119 6.51086 315.293 6.50108C315.367 6.49717 315.425 6.47958 315.46 6.4659C315.483 6.4571 315.477 6.44147 315.443 6.43365C315.275 6.38673 314.606 6.40335 314.496 6.45711C314.485 6.46688 314.514 6.47958 314.52 6.49033ZM296.32 1.13814C296.338 1.15377 296.343 1.16941 296.367 1.18505C296.413 1.21437 296.539 1.23588 296.724 1.25054C296.868 1.2261 296.943 1.19874 296.938 1.16942C296.932 1.15378 296.914 1.13813 296.891 1.12249C296.845 1.09317 296.718 1.07168 296.534 1.05702C296.39 1.08047 296.32 1.10784 296.32 1.13814ZM402.285 13.9449C402.233 13.9576 402.181 13.9703 402.123 13.982C402.279 14.0104 402.423 14.0192 402.533 14.0035C402.602 13.9938 402.643 13.9791 402.695 13.9664C402.539 13.9381 402.4 13.9302 402.285 13.9449ZM398.697 14.0778C398.772 14.0866 398.841 14.0984 398.922 14.1042C399.055 14.114 399.176 14.0974 399.268 14.0622C399.193 14.0534 399.124 14.0417 399.043 14.0358C398.911 14.026 398.789 14.0426 398.697 14.0778ZM400.97 13.899C400.929 13.9224 401.01 13.942 401.224 13.9586C401.276 13.9459 401.345 13.9341 401.379 13.9205C401.437 13.898 401.339 13.8775 401.131 13.8618C401.074 13.8736 401.022 13.8863 400.97 13.899ZM388.793 12.8453C388.752 12.8688 388.833 12.8883 389.047 12.905C389.099 12.8922 389.168 12.8805 389.202 12.8668C389.26 12.8444 389.162 12.8238 388.954 12.8082C388.897 12.8199 388.845 12.8326 388.793 12.8453ZM372.203 5.92931C372.151 5.94202 372.099 5.95472 372.042 5.96645C372.197 5.9948 372.341 6.00359 372.451 5.98795C372.52 5.97818 372.561 5.96352 372.613 5.95081C372.457 5.92247 372.318 5.91465 372.203 5.92931ZM356.311 2.26018C356.45 2.26702 356.565 2.25334 356.663 2.21718C356.588 2.20838 356.519 2.19665 356.438 2.19079C356.305 2.18102 356.184 2.19764 356.092 2.23282C356.167 2.2426 356.242 2.25138 356.311 2.26018ZM347.872 2.0305C347.82 2.0432 347.768 2.05591 347.711 2.06764C347.866 2.09598 348.011 2.10477 348.12 2.08914C348.189 2.07936 348.23 2.0647 348.282 2.052C348.126 2.02365 347.988 2.01681 347.872 2.0305ZM290.644 1.13716C290.592 1.14986 290.54 1.16257 290.483 1.1743C290.639 1.20264 290.783 1.21144 290.892 1.1958C290.962 1.18603 291.002 1.17136 291.054 1.15866C290.898 1.13031 290.76 1.12347 290.644 1.13716ZM5.69329 9.08921C5.6183 9.08042 5.54338 9.07163 5.47416 9.06186C5.30688 9.08824 5.25498 9.11268 5.34728 9.13125C5.40496 9.14297 5.49142 9.14982 5.56641 9.15862C5.73946 9.13223 5.77982 9.10876 5.69329 9.08921Z" fill="#FFE492"/>
    <path d="M39.1504 5.63819C38.487 5.65676 37.8295 5.68021 37.1661 5.69194C36.8142 5.69781 36.6874 5.73984 36.5432 5.77893C36.4279 5.81021 36.2952 5.81998 36.0817 5.82585C34.282 5.87374 32.488 5.92456 30.694 5.97441C30.4691 5.9617 30.3595 5.94118 30.4114 5.91675C30.4402 5.90209 30.5095 5.88156 30.5787 5.87961C31.8074 5.84344 33.0302 5.8063 34.2646 5.77795C34.6165 5.77013 34.7146 5.72713 34.8934 5.69194C34.9511 5.68021 34.9973 5.66262 35.0723 5.65578C35.1473 5.64796 35.2569 5.64894 35.3549 5.64699C37.3392 5.59128 39.3236 5.53655 41.3079 5.48083C41.5329 5.49354 41.6425 5.51406 41.5905 5.5385C41.5617 5.55316 41.4925 5.57368 41.4232 5.57564C40.6618 5.59616 39.906 5.61669 39.1504 5.63819Z" fill="#FFE492"/>
    <path d="M402.746 10.843C402.446 10.8547 402.065 10.8713 401.754 10.8146C401.604 10.7872 401.442 10.7785 401.246 10.7843C400.963 10.7941 400.675 10.8019 400.386 10.8078C400.311 10.8088 400.213 10.798 400.138 10.7892C399.977 10.7716 399.838 10.7423 399.665 10.7345C399.492 10.7267 399.285 10.7482 399.106 10.7433C398.869 10.7364 398.771 10.71 398.835 10.6856C398.869 10.6719 398.939 10.6524 399.014 10.6494C400.081 10.6133 400.086 10.6133 400.386 10.6485C400.617 10.6758 400.831 10.7061 401.159 10.6895C401.436 10.6758 401.731 10.6729 402.013 10.6641C402.405 10.6524 402.405 10.6533 403.04 10.7149C403.201 10.7306 403.374 10.7296 403.582 10.7208C403.761 10.7139 403.934 10.7296 404.078 10.756C403.986 10.7892 403.853 10.8107 403.674 10.8166C403.386 10.8263 403.103 10.8332 402.746 10.843Z" fill="#FFE492"/>
    <path d="M391.52 10.5417C392.247 10.5212 392.98 10.5036 393.706 10.4801C394.006 10.4704 394.243 10.4811 394.451 10.5144C394.676 10.5505 394.929 10.5476 395.206 10.5407C395.379 10.5368 395.547 10.5525 395.662 10.5798C395.708 10.5906 395.697 10.6101 395.714 10.6258C395.079 10.6434 394.439 10.6619 393.799 10.6776C393.724 10.6795 393.632 10.6698 393.562 10.6619C393.407 10.6453 393.274 10.616 393.107 10.6101C392.749 10.5965 392.391 10.6228 392.028 10.6277C391.855 10.6297 391.688 10.615 391.572 10.5886C391.526 10.5759 391.538 10.5574 391.52 10.5417Z" fill="#FFE492"/>
    <path d="M128.891 2.13811C129.647 2.1166 130.403 2.09609 131.158 2.07458C131.383 2.08827 131.487 2.10781 131.441 2.13225C131.412 2.14691 131.343 2.16743 131.273 2.16939C129.762 2.21337 128.251 2.25539 126.745 2.29742C126.52 2.28374 126.417 2.26419 126.463 2.23976C126.492 2.2251 126.561 2.20457 126.63 2.20262C127.38 2.18014 128.136 2.15961 128.891 2.13811Z" fill="#FFE492"/>
    <path d="M12.1937 7.56935C11.8534 7.5713 11.4958 7.60746 11.1151 7.5801C11.0401 7.57521 10.9362 7.55957 10.942 7.55077C10.9535 7.53611 11.0228 7.51754 11.0978 7.51167C11.4266 7.48724 11.8361 7.48431 12.0034 7.41589C12.0842 7.3807 12.2342 7.36898 12.4361 7.36214C12.6495 7.35432 12.7994 7.35724 12.9667 7.37777C13.1859 7.40416 13.3705 7.45303 13.7166 7.42762C13.7339 7.44325 13.7742 7.46085 13.7569 7.47551C13.7396 7.49017 13.6647 7.50385 13.5955 7.51461C13.532 7.52438 13.4454 7.53317 13.3647 7.53611C12.984 7.54783 12.6032 7.55762 12.1937 7.56935Z" fill="#FFE492"/>
    <path d="M312.152 7.3729C312.434 7.36508 312.728 7.36117 313.005 7.34749C313.224 7.33673 313.363 7.34357 313.536 7.36703C313.83 7.40808 313.847 7.40418 314.568 7.41004C314.649 7.41102 314.747 7.42567 314.793 7.43838C314.822 7.44522 314.782 7.4638 314.747 7.47357C314.695 7.48628 314.62 7.50289 314.551 7.50289C314.095 7.50582 313.634 7.56349 313.19 7.49703C312.965 7.4638 312.717 7.44815 312.411 7.46281C312.226 7.47161 312.03 7.47552 311.84 7.47943C311.655 7.48334 311.465 7.47259 311.35 7.44327C311.182 7.40026 311.28 7.38365 311.58 7.38658C311.771 7.38854 311.961 7.37779 312.152 7.3729Z" fill="#FFE492"/>
    <path d="M416.68 14.1105C417.044 14.1007 417.407 14.089 417.776 14.0812C417.851 14.0792 417.943 14.09 418.013 14.0968C418.29 14.1261 418.249 14.176 418.261 14.2199C418.266 14.2659 417.626 14.303 417.355 14.2718C417.055 14.2366 416.784 14.1965 416.369 14.218C416.207 14.2258 416.017 14.2082 415.913 14.1799C415.757 14.1388 415.844 14.1222 416.138 14.1251C416.311 14.1271 416.496 14.1163 416.68 14.1105Z" fill="#FFE492"/>
    <path d="M233.541 0.8068C233.916 0.796049 234.291 0.779441 234.666 0.778464C234.885 0.777487 234.995 0.809734 234.943 0.833192C234.914 0.847853 234.845 0.868378 234.775 0.870333C234.025 0.893791 233.276 0.913342 232.526 0.934844C232.306 0.921161 232.197 0.900639 232.249 0.877182C232.278 0.862521 232.347 0.842972 232.416 0.84004C232.791 0.826357 233.166 0.817552 233.541 0.8068Z" fill="#FFE492"/>
    <path d="M409.396 10.9289C409.76 10.9191 410.129 10.9044 410.492 10.8995C410.683 10.8976 410.833 10.9201 410.856 10.9455C410.867 10.9572 410.775 10.9777 410.7 10.9826C410.181 11.0158 409.621 11.0198 409.079 11.0364C408.906 11.0413 408.721 11.0256 408.618 10.9983C408.462 10.9562 408.549 10.9406 408.843 10.9435C409.027 10.9445 409.212 10.9337 409.396 10.9289Z" fill="#FFE492"/>
    <path d="M321.742 7.5049C321.927 7.50001 322.117 7.4873 322.296 7.49121C322.486 7.4961 322.607 7.52445 322.665 7.55279C322.728 7.58504 322.723 7.61535 322.665 7.64271C322.573 7.68963 322.48 7.68768 322.267 7.6564C321.938 7.60753 321.915 7.61339 321.263 7.61535C321.188 7.61535 321.096 7.60068 321.038 7.58798C320.952 7.56843 320.998 7.53813 321.2 7.52054C321.35 7.50783 321.557 7.50979 321.742 7.5049Z" fill="#FFE492"/>
    <path d="M396.949 10.6081C397.22 10.6003 397.491 10.5876 397.762 10.5876C397.952 10.5866 398.102 10.6091 398.12 10.6335C398.125 10.6452 398.039 10.6648 397.97 10.6706C397.641 10.697 397.272 10.699 396.914 10.7078C396.747 10.7117 396.562 10.696 396.458 10.6687C396.303 10.6276 396.395 10.609 396.678 10.6149C396.764 10.6169 396.856 10.611 396.949 10.6081Z" fill="#FFE492"/>
    <path d="M353.367 9.40905C352.963 9.42078 352.582 9.40613 352.611 9.38071C352.652 9.34748 352.819 9.32597 352.992 9.3201C353.269 9.31033 353.546 9.30251 353.828 9.29665C354.007 9.29274 354.169 9.3074 354.313 9.33281C354.226 9.36409 354.094 9.38657 353.921 9.39341C353.742 9.40025 353.551 9.40416 353.367 9.40905Z" fill="#FFE492"/>
    <path d="M350.745 9.28386C351.016 9.27604 351.287 9.26334 351.558 9.26334C351.749 9.26236 351.899 9.28484 351.916 9.30927C351.922 9.321 351.835 9.34055 351.766 9.34641C351.437 9.3728 351.068 9.37476 350.711 9.38355C350.543 9.38746 350.359 9.37182 350.255 9.34446C350.099 9.30341 350.191 9.28484 350.474 9.29071C350.561 9.29266 350.653 9.28679 350.745 9.28386Z" fill="#FFE492"/>
    <path d="M319.13 7.49725C319.401 7.48943 319.672 7.47672 319.943 7.47574C320.134 7.47476 320.284 7.49725 320.301 7.52169C320.307 7.53341 320.22 7.55198 320.151 7.55883C319.822 7.58522 319.453 7.58717 319.095 7.59597C318.928 7.59988 318.744 7.58424 318.64 7.55687C318.484 7.51582 318.576 7.49724 318.859 7.50311C318.945 7.50506 319.038 7.49921 319.13 7.49725Z" fill="#FFE492"/>
    <path d="M316.861 7.43934C317.15 7.43152 317.242 7.42664 317.334 7.42664C317.507 7.42664 317.686 7.43837 317.79 7.46671C317.946 7.50776 317.854 7.5195 317.571 7.52145C317.207 7.52341 316.85 7.54393 316.486 7.54784C316.296 7.5498 316.146 7.52633 316.135 7.5019C316.129 7.49017 316.215 7.46964 316.285 7.46573C316.527 7.45107 316.792 7.44227 316.861 7.43934Z" fill="#FFE492"/>
    <path d="M348.582 1.68955C348.398 1.69444 348.202 1.70812 348.029 1.70324C347.798 1.69639 347.706 1.67001 347.763 1.64557C347.798 1.63189 347.861 1.61234 347.931 1.60941C348.3 1.59573 348.675 1.58692 349.044 1.57715C349.263 1.59181 349.361 1.61233 349.303 1.63677C349.269 1.65045 349.205 1.66902 349.136 1.67293C348.957 1.6827 348.767 1.68466 348.582 1.68955Z" fill="#FFE492"/>
    <path d="M124.686 2.25323C124.865 2.25225 125.026 2.26495 125.164 2.28939C125.078 2.32067 124.951 2.34119 124.778 2.34999C124.692 2.3539 124.593 2.35682 124.501 2.3578C124.322 2.35976 124.161 2.34607 124.022 2.32164C124.109 2.29036 124.241 2.26984 124.409 2.26104C124.495 2.25713 124.593 2.25616 124.686 2.25323Z" fill="#FFE492"/>
    <path d="M408.541 10.9248C408.536 10.8964 408.887 10.8642 409.205 10.8651C409.372 10.8661 409.545 10.8798 409.643 10.9062C409.793 10.9463 409.707 10.9619 409.424 10.959C409.251 10.957 409.066 10.9736 408.893 10.9707C408.697 10.9697 408.582 10.9482 408.541 10.9248Z" fill="#FFE492"/>
    <path d="M323.453 7.62312C323.447 7.61237 323.418 7.59966 323.436 7.58989C323.545 7.53613 324.209 7.51952 324.382 7.56643C324.41 7.57523 324.422 7.58989 324.399 7.59868C324.364 7.61237 324.301 7.62996 324.232 7.63387C324.053 7.64364 323.868 7.64853 323.684 7.64951C323.603 7.64951 323.528 7.63289 323.453 7.62312Z" fill="#FFE492"/>
    <path d="M15.2211 7.41317C14.5404 7.4337 14.5289 7.43174 14.65 7.38287C14.7596 7.33889 14.9615 7.3125 15.2557 7.3125C15.3423 7.3125 15.4345 7.31055 15.5095 7.31446C15.5903 7.31934 15.7057 7.32911 15.723 7.34084C15.7576 7.36332 15.6595 7.38775 15.4864 7.40437C15.4114 7.41219 15.3134 7.41024 15.2211 7.41317Z" fill="#FFE492"/>
    <path d="M133.074 2.11566C132.872 2.13228 132.699 2.12642 132.572 2.09514C132.445 2.06387 132.647 2.02672 132.999 2.01792C133.091 2.01597 133.189 2.00816 133.276 2.01207C133.362 2.015 133.449 2.02672 133.501 2.03845C133.593 2.05799 133.535 2.08439 133.351 2.10687C133.276 2.11567 133.166 2.11371 133.074 2.11566Z" fill="#FFE492"/>
    <path d="M407.337 10.8514C407.389 10.8386 407.441 10.8259 407.499 10.8142C407.712 10.8308 407.804 10.8504 407.747 10.8729C407.712 10.8865 407.643 10.8983 407.591 10.911C407.377 10.8944 407.291 10.8738 407.337 10.8514Z" fill="#FFE492"/>
    <path d="M24.3168 18.5394C24.3168 18.5276 24.3975 18.5091 24.461 18.5052C24.5821 18.4983 24.732 18.512 24.8359 18.5394C24.9801 18.5785 24.8936 18.599 24.6283 18.5882C24.4437 18.5804 24.3168 18.5609 24.3168 18.5394Z" fill="#FFE492"/>
    <path d="M326.212 6.71313C326.287 6.72192 326.362 6.73072 326.431 6.7405C326.333 6.77666 326.212 6.79229 326.085 6.78252C326.004 6.77665 325.935 6.76492 325.86 6.75613C325.958 6.71996 326.073 6.70629 326.212 6.71313Z" fill="#FFE492"/>
    <path d="M324.799 6.66923C324.914 6.65456 325.053 6.66239 325.214 6.69074C325.162 6.70344 325.116 6.7181 325.053 6.72788C324.943 6.74352 324.799 6.73569 324.643 6.70637C324.689 6.69464 324.741 6.68193 324.799 6.66923Z" fill="#FFE492"/>
    <path d="M322.565 6.71225C322.64 6.72105 322.715 6.72985 322.785 6.73962C322.687 6.77578 322.571 6.79142 322.439 6.78164C322.358 6.77578 322.289 6.76405 322.214 6.75525C322.312 6.71909 322.427 6.70443 322.565 6.71225Z" fill="#FFE492"/>
    <path d="M321.389 6.6603C321.476 6.67985 321.43 6.70331 321.262 6.7297C321.187 6.7209 321.101 6.71407 321.043 6.70234C320.951 6.68377 320.997 6.65932 321.17 6.63293C321.239 6.64271 321.314 6.65151 321.389 6.6603Z" fill="#FFE492"/>
    </svg>
    