<svg width="336" height="32" viewBox="0 0 336 32" fill="none" xmlns="http://www.w3.org/2000/svg">
    <path d="M313.769 16.8417C313.313 16.8669 312.852 16.8842 312.405 16.922C312.114 16.9456 311.99 16.8763 311.796 16.8401C311.731 16.8275 311.662 16.8023 311.602 16.8054C311.15 16.8306 310.699 16.859 310.247 16.8873C310.108 16.9488 310.021 17.0306 309.809 17.0606C309.601 17.0889 309.357 17.0889 309.126 17.1031C308.822 17.1204 308.518 17.1378 308.213 17.1535C308.061 17.1614 307.937 17.1913 307.886 17.248C307.877 17.2574 307.978 17.281 308.034 17.2952C308.218 17.3425 308.398 17.396 308.601 17.4322C308.794 17.4669 309.034 17.4102 309.242 17.4543C309.707 17.5535 309.712 17.5519 310.067 17.533C310.371 17.5157 310.676 17.4968 310.98 17.4842C311.04 17.4811 311.109 17.5047 311.173 17.5173C311.367 17.5519 311.492 17.6307 311.778 17.6008C311.994 17.5771 312.234 17.5724 312.46 17.5598C312.649 17.6055 312.824 17.6574 313.027 17.6937C313.216 17.7283 313.271 17.7551 313.17 17.8008C313.078 17.8433 312.949 17.8606 312.778 17.8638C312.626 17.8653 312.474 17.8795 312.322 17.8874C312.243 17.8921 312.169 17.8953 312.096 17.9C311.805 17.9173 311.805 17.9173 311.275 17.8165C311.067 17.7771 310.832 17.8323 310.634 17.7945C310.5 17.7693 310.385 17.7315 310.256 17.7047C310.201 17.6937 310.113 17.6921 310.044 17.6952C309.813 17.7063 309.583 17.7141 309.361 17.7346C309.205 17.7488 309.112 17.7929 309.131 17.837C309.136 17.8543 309.246 17.8795 309.311 17.8811C309.458 17.8842 309.615 17.8622 309.758 17.8732C309.896 17.8842 310.039 17.9157 310.141 17.9504C310.348 18.0228 310.583 17.9583 310.782 17.9771C310.989 17.9976 311.16 18.0606 311.358 18.0984C311.409 18.1079 311.505 18.0921 311.584 18.0874C311.81 18.0764 312.036 18.0669 312.262 18.0559C312.451 18.1016 312.654 18.1425 312.824 18.1945C313.133 18.289 313.465 18.3252 313.866 18.2795C314.092 18.2543 314.313 18.2638 314.493 18.3252C314.678 18.3882 314.89 18.3819 315.125 18.3693C315.342 18.3567 315.563 18.322 315.784 18.3661C316.264 18.4638 316.268 18.4685 316.836 18.4307C317.006 18.4197 317.135 18.4165 317.264 18.4528C317.384 18.4858 317.513 18.5142 317.638 18.5457C317.864 18.5346 318.094 18.5236 318.32 18.511C318.611 18.4937 318.772 18.5157 318.841 18.6039C318.883 18.6575 318.901 18.7063 319.003 18.7425C319.122 18.7866 319.252 18.785 319.427 18.7724C319.593 18.7614 319.713 18.7441 319.782 18.6874C319.809 18.6638 319.865 18.6417 319.916 18.6228C319.957 18.6087 320.022 18.5866 320.059 18.5898C320.128 18.5961 320.22 18.6134 320.243 18.6339C320.469 18.8244 320.469 18.826 320.699 18.8811C320.953 18.9425 321.216 18.9976 321.446 19.0669C321.654 19.1284 321.861 19.1016 322.087 19.1016C322.258 19.1016 322.368 19.1425 322.355 19.1835C322.345 19.2071 322.281 19.2417 322.226 19.2449C321.774 19.2764 321.317 19.3032 320.861 19.3252C320.805 19.3284 320.736 19.3 320.672 19.2858C320.543 19.2575 320.427 19.2134 320.289 19.204C320.151 19.1945 319.989 19.2181 319.837 19.226C319.685 19.2339 319.524 19.2544 319.385 19.2418C319.247 19.2292 319.136 19.1835 319.007 19.1536C318.947 19.1394 318.864 19.1189 318.814 19.1237C318.477 19.1614 318.228 19.1095 317.988 19.0402C317.938 19.026 317.85 19.0166 317.785 19.0197C317.251 19.0465 316.72 19.078 316.185 19.1079C315.969 19.1205 315.793 19.0654 315.747 18.9725C315.724 18.9205 315.678 18.8685 315.678 18.8165C315.678 18.722 315.425 18.6701 315.24 18.6811C314.936 18.6969 314.627 18.7094 314.327 18.7331C314.083 18.752 313.875 18.7331 313.709 18.6764C313.516 18.6118 313.294 18.6244 313.073 18.6417C312.907 18.6543 312.861 18.7063 312.87 18.837C312.879 18.9425 312.801 18.9756 312.501 18.9929C312.123 19.015 311.741 19.037 311.358 19.0543C311.298 19.0575 311.229 19.0307 311.169 19.0166C311.04 18.9882 310.924 18.9425 310.786 18.9331C310.648 18.9221 310.486 18.9457 310.334 18.9551C310.182 18.963 310.021 18.9851 309.882 18.974C309.744 18.963 309.629 18.9158 309.504 18.8858C309.444 18.8717 309.371 18.8512 309.311 18.8543C309.006 18.8669 308.702 18.8858 308.398 18.9032C308.057 18.9221 308.057 18.9221 307.572 18.8244C307.351 18.7803 307.13 18.815 306.913 18.8276C306.683 18.8402 306.466 18.8465 306.286 18.7835C306.166 18.7425 306.032 18.7173 305.89 18.7252C305.507 18.7441 305.129 18.7677 304.746 18.7866C304.681 18.7898 304.594 18.7819 304.543 18.7677C304.299 18.7016 304.059 18.6496 303.718 18.6827C303.423 18.711 303.105 18.7126 302.81 18.7394C302.648 18.7535 302.574 18.8039 302.607 18.8433C302.625 18.8638 302.722 18.8874 302.786 18.8874C302.934 18.889 303.095 18.8654 303.234 18.8748C303.52 18.8937 303.663 19.026 304.036 18.9898C304.257 18.9677 304.488 18.9599 304.718 18.9536C304.778 18.952 304.843 18.9819 304.907 18.9977C305.092 19.0402 305.253 19.0953 305.521 19.0669C305.742 19.0449 305.977 19.0386 306.203 19.026C306.563 19.0055 306.563 19.0071 307.028 19.1032C307.25 19.1488 307.471 19.1126 307.688 19.1016C307.849 19.0937 308.001 19.078 308.13 19.1C308.329 19.1331 308.472 19.2087 308.716 19.204C308.946 19.1992 309.172 19.1772 309.403 19.1693C309.546 19.1646 309.68 19.1898 309.795 19.2323C309.915 19.2748 310.044 19.2937 310.201 19.2843C310.426 19.2717 310.657 19.2559 310.888 19.2481C310.952 19.2465 311.026 19.2607 311.086 19.2733C311.215 19.3016 311.339 19.3347 311.464 19.3646C311.69 19.3551 311.92 19.352 312.142 19.3331C312.312 19.3189 312.432 19.3252 312.571 19.3567C312.746 19.3992 312.889 19.4748 313.175 19.4386C313.318 19.4213 313.484 19.426 313.626 19.4103C313.802 19.3898 313.922 19.3977 314.046 19.4449C314.281 19.5347 314.576 19.5362 314.881 19.5016C315.213 19.4638 315.462 19.5079 315.711 19.5772C315.973 19.6497 315.973 19.6481 316.176 19.8229C316.236 19.8733 316.407 19.8969 316.55 19.8875C316.789 19.8717 316.997 19.8796 317.172 19.9394C317.357 20.004 317.578 19.9961 317.804 19.9788C318.103 19.9552 318.403 19.9347 318.648 20.026C318.767 20.0701 318.897 20.0811 319.058 20.0701C319.514 20.0418 319.976 20.0245 320.423 19.9898C320.695 19.9678 320.852 20.0182 321.036 20.0607C321.285 20.119 321.557 20.1709 321.557 20.2953C321.557 20.3158 321.622 20.3394 321.677 20.3552C321.797 20.3883 321.926 20.4166 322.05 20.4481C322.235 20.4953 322.415 20.5347 322.668 20.5095C322.889 20.489 323.125 20.4827 323.351 20.4686C323.577 20.4544 323.784 20.4465 323.987 20.5064C324.222 20.5741 324.471 20.6387 324.738 20.6891C324.927 20.7253 325.177 20.6639 325.379 20.7127C325.504 20.7426 325.624 20.7772 325.757 20.8024C325.813 20.8135 325.9 20.8056 325.974 20.8024C326.126 20.7961 326.283 20.7914 326.431 20.7757C326.601 20.7584 326.73 20.7615 326.859 20.7977C326.979 20.8308 327.099 20.8765 327.238 20.8859C327.445 20.9001 327.676 20.8371 327.883 20.9095C327.989 20.9458 328.123 20.9804 328.261 20.9914C328.399 21.0025 328.561 20.9788 328.708 20.9804C328.773 20.9804 328.851 21.0056 328.888 21.0261C328.911 21.0371 328.879 21.067 328.847 21.0828C328.805 21.1017 328.745 21.1269 328.685 21.13C328.229 21.1584 327.772 21.182 327.316 21.2088C327.044 21.2245 327.044 21.2245 326.495 21.1253C326.366 21.1017 326.223 21.1064 326.062 21.1174C325.845 21.1316 325.624 21.1584 325.398 21.13C325.103 21.0229 324.738 21.0135 324.351 21.0544C324.19 21.0717 324.042 21.0717 323.922 21.0418C323.669 20.982 323.401 20.9269 323.175 20.856C323 20.8009 322.917 20.7961 322.843 20.8717C322.82 20.8954 322.797 20.9206 322.802 20.9426C322.83 21.0213 322.88 21.0985 322.908 21.1773C322.917 21.1993 322.88 21.2245 322.857 21.2481C322.784 21.3143 322.687 21.3095 322.525 21.2544C322.364 21.1993 322.17 21.1631 321.912 21.1883C321.691 21.2103 321.451 21.2072 321.23 21.2308C320.888 21.2655 320.649 21.2151 320.404 21.1473C320.354 21.1332 320.266 21.1253 320.201 21.1284C319.514 21.1647 318.832 21.2056 318.145 21.2418C317.998 21.2497 317.864 21.2261 317.748 21.1836C317.629 21.141 317.495 21.119 317.347 21.1269C316.739 21.1599 316.13 21.1899 315.521 21.2308C315.272 21.2481 315.074 21.2276 314.904 21.1725C314.775 21.1316 314.655 21.119 314.493 21.1237C314.318 21.1284 314.194 21.1442 314.106 21.1899C314.023 21.234 314.083 21.2607 314.267 21.2954C314.466 21.3332 314.65 21.382 314.839 21.4261C314.991 21.4198 315.143 21.4072 315.291 21.4088C315.355 21.4088 315.415 21.4371 315.48 21.4529C315.664 21.4985 315.835 21.5442 316.098 21.519C316.319 21.497 316.554 21.4922 316.78 21.4781C317.094 21.4607 317.094 21.4607 317.601 21.56C317.73 21.5852 317.868 21.5836 318.034 21.5694C318.177 21.5584 318.325 21.5804 318.426 21.6277C318.468 21.6466 318.454 21.6781 318.366 21.782C318.366 21.8592 318.463 21.8245 318.495 21.7741C318.546 21.7017 318.449 21.6781 318.265 21.7174C318.136 21.7458 318.071 21.7867 318.104 21.8198C318.122 21.8371 318.21 21.8592 318.366 21.782C318.772 21.6875 319.081 21.6765 319.376 21.6513C319.551 21.6371 319.662 21.6434 319.8 21.6844C319.966 21.7332 320.132 21.7852 320.404 21.76C320.699 21.7316 321.013 21.7285 321.313 21.7048C321.589 21.6828 321.732 21.7521 321.907 21.793C322.12 21.8419 322.355 21.7867 322.548 21.8151C322.751 21.8434 322.894 21.9127 323.129 21.9253C323.47 21.8828 323.687 21.9615 323.945 22.0135C324.148 22.0529 324.388 22.0182 324.605 22.0009C324.849 21.982 325.052 21.9993 325.223 22.056C325.416 22.1206 325.633 22.1064 325.854 22.0923C326.371 22.0608 326.389 22.056 326.689 22.1426C326.905 22.2056 327.113 22.1773 327.33 22.1694C327.519 22.2119 327.703 22.2576 327.901 22.2954C327.952 22.3048 328.049 22.2891 328.127 22.2844C328.353 22.2718 328.584 22.2592 328.81 22.2466C328.962 22.2387 329.123 22.2151 329.262 22.2245C329.4 22.2356 329.515 22.2812 329.64 22.3112C329.764 22.3411 329.893 22.371 330.013 22.4025C330.198 22.4497 330.373 22.4891 330.631 22.4655C330.852 22.445 331.083 22.4387 331.313 22.4245C331.604 22.4072 331.595 22.412 332.134 22.5064C332.425 22.5584 332.724 22.4954 333.019 22.4891C333.167 22.486 333.31 22.5033 333.411 22.549C333.453 22.5679 333.439 22.5994 333.453 22.6261C332.692 22.6687 331.927 22.7049 331.175 22.7568C330.885 22.7773 330.733 22.7206 330.576 22.6734C330.318 22.5978 329.976 22.708 329.732 22.6104C329.584 22.5521 329.372 22.519 329.119 22.5474C328.971 22.5631 328.814 22.5616 328.662 22.5757C328.275 22.6104 327.92 22.612 327.611 22.5033C327.505 22.4655 327.353 22.445 327.242 22.4088C327.113 22.3694 326.989 22.3474 326.836 22.3552C326.149 22.393 325.467 22.4308 324.785 22.4718C324.725 22.4749 324.665 22.4986 324.614 22.5159C324.485 22.56 324.526 22.5946 324.734 22.623C324.803 22.6324 324.858 22.6529 324.923 22.6686C325.047 22.6986 325.163 22.7458 325.301 22.7568C325.439 22.7679 325.601 22.7458 325.753 22.7379C325.905 22.7301 326.066 22.7064 326.205 22.7159C326.343 22.7269 326.458 22.7726 326.587 22.8009C326.647 22.8151 326.721 22.8387 326.781 22.8372C327.085 22.8277 327.385 22.8104 327.689 22.7962C327.878 22.8387 328.04 22.9002 328.266 22.9143C328.409 22.9238 328.561 22.9064 328.708 22.9096C328.773 22.9112 328.856 22.9348 328.888 22.9553C328.907 22.9679 328.847 22.9994 328.801 23.0151C328.625 23.075 328.386 23.0639 328.169 23.0828C327.934 23.1033 327.722 23.097 327.542 23.0356C327.422 22.9946 327.288 22.9726 327.141 22.9805C326.758 23.001 326.38 23.0246 325.997 23.0419C325.933 23.045 325.854 23.0309 325.794 23.0198C325.31 22.9238 325.31 22.9206 324.969 22.9411C324.466 22.971 324.466 22.971 324.13 22.8875C324.065 22.8718 323.996 22.8419 323.941 22.8435C323.406 22.8687 322.876 22.8939 322.345 22.9301C322.17 22.9411 322.05 22.9411 321.921 22.9002C321.811 22.8655 321.681 22.8261 321.543 22.8167C321.4 22.8072 321.243 22.8309 321.091 22.8387C320.939 22.8466 320.778 22.8671 320.644 22.8545C320.506 22.8419 320.386 22.7978 320.266 22.7663C320.141 22.7332 320.008 22.7348 319.837 22.7474C319.312 22.7836 319.307 22.7789 318.786 22.6813C318.726 22.6702 318.648 22.6576 318.583 22.6608C318.2 22.6797 317.822 22.7033 317.44 22.7222C317.292 22.7301 317.149 22.7096 317.048 22.6639C317.006 22.645 317.02 22.6135 316.992 22.5521C316.96 22.5379 316.997 22.5631 317.006 22.5868C317.075 22.5836 317.158 22.5868 317.209 22.5742C317.338 22.5442 317.403 22.5049 317.37 22.4718C317.352 22.4545 317.264 22.4324 317.209 22.4324C317.108 22.4324 317.02 22.4671 316.992 22.5521C316.702 22.6041 316.393 22.6151 316.093 22.6403C315.918 22.6561 315.807 22.6482 315.669 22.6072C315.503 22.5568 315.332 22.508 315.06 22.5332C314.765 22.5616 314.452 22.5663 314.147 22.5883C313.797 22.6135 313.645 22.4718 313.35 22.4749C313.045 22.4781 312.741 22.5049 312.437 22.5238C312.169 22.5395 312.169 22.5395 311.616 22.4371C311.413 22.3993 311.174 22.4545 310.975 22.4151C310.842 22.3899 310.726 22.3521 310.597 22.3253C310.542 22.3143 310.454 22.3143 310.385 22.3174C310.002 22.3363 309.615 22.349 309.246 22.3836C308.827 22.4245 308.508 22.3805 308.209 22.2875C307.831 22.3049 307.448 22.3143 307.075 22.3442C306.802 22.3663 306.646 22.3143 306.461 22.2718C306.397 22.2576 306.341 22.234 306.272 22.2277C306.203 22.2214 306.12 22.234 306.046 22.2387C305.742 22.256 305.428 22.2639 305.133 22.2923C304.769 22.3285 304.631 22.1993 304.349 22.1836C304.16 22.2608 304.059 22.3663 303.686 22.3741C303.381 22.3804 303.077 22.4056 302.773 22.423C302.62 22.4308 302.468 22.4403 302.316 22.4482C302.072 22.4623 301.957 22.5238 302.007 22.6183C302.035 22.6702 302.058 22.7222 302.081 22.7742C302.127 22.8671 302.012 22.9458 301.818 22.9569C301.283 22.9868 300.753 23.0183 300.218 23.045C300.075 23.0529 299.937 23.0261 299.822 22.9836C299.702 22.9411 299.568 22.9222 299.421 22.9301C298.886 22.96 298.355 22.9915 297.821 23.0183C297.761 23.0214 297.682 23.0057 297.622 22.9931C297.493 22.9647 297.369 22.9317 297.244 22.9017C296.94 22.9159 296.64 22.9253 296.341 22.9442C295.856 22.9726 295.856 22.9742 295.501 22.8875C295.437 22.8718 295.372 22.8419 295.312 22.8435C295.082 22.8498 294.856 22.8655 294.625 22.8797C293.948 22.9206 293.948 22.9206 293.749 22.8734C293.569 22.8293 293.408 22.7757 293.136 22.8009C292.841 22.8293 292.527 22.8387 292.223 22.8545C291.997 22.8655 291.771 22.8781 291.545 22.8813C291.485 22.8828 291.421 22.8529 291.356 22.8372C291.172 22.7883 290.992 22.749 290.738 22.7757C290.591 22.7915 290.434 22.7946 290.282 22.8025C289.885 22.8246 289.885 22.8246 289.235 22.7301C289.171 22.7206 289.092 22.7096 289.028 22.7143C288.493 22.7427 287.963 22.7742 287.428 22.8009C287.363 22.8041 287.285 22.7946 287.22 22.7868C286.492 22.6954 286.492 22.6954 285.717 22.7395C285.422 22.7553 285.413 22.7616 285.104 22.6781C284.966 22.6419 284.85 22.6245 284.689 22.6356C284.08 22.6734 283.467 22.6986 282.863 22.7427C282.591 22.7616 282.434 22.7143 282.25 22.6718C282.185 22.6576 282.116 22.6261 282.061 22.6277C281.452 22.6576 280.844 22.6939 280.235 22.7238C280.18 22.7269 280.111 22.6954 280.046 22.6813C279.921 22.6529 279.802 22.6104 279.663 22.6009C279.52 22.5915 279.364 22.6151 279.207 22.623C278.824 22.6435 278.824 22.6419 278.381 22.549C278.321 22.5364 278.243 22.519 278.183 22.5222C277.575 22.5537 276.961 22.5805 276.357 22.6261C276.012 22.6513 275.776 22.6057 275.532 22.5395C275.481 22.5253 275.394 22.519 275.329 22.5222C274.642 22.5584 273.96 22.5994 273.273 22.6356C273.13 22.6434 272.991 22.6167 272.876 22.5757C272.692 22.5112 272.475 22.519 272.245 22.5332C271.714 22.5663 271.71 22.5647 271.396 22.4891C271.332 22.4734 271.276 22.4529 271.207 22.445C271.143 22.4371 271.06 22.4419 270.99 22.445C270.686 22.4608 270.382 22.4781 270.077 22.4954C269.773 22.5127 269.464 22.5222 269.164 22.549C268.796 22.582 268.62 22.4797 268.362 22.4324C267.984 22.4529 267.597 22.4655 267.223 22.4986C266.937 22.5238 266.804 22.4545 266.615 22.4182C266.55 22.4056 266.481 22.3789 266.421 22.382C265.734 22.4167 265.047 22.4545 264.365 22.497C264.199 22.5064 264.088 22.4938 263.95 22.456C263.641 22.371 263.627 22.3742 263.111 22.4057C262.885 22.4198 262.668 22.4324 262.474 22.3679C262.304 22.3096 262.096 22.2954 261.852 22.3143C261.552 22.3379 261.243 22.3505 260.939 22.3663C260.635 22.3836 260.33 22.4072 260.026 22.4151C259.782 22.423 259.634 22.349 259.44 22.3112C259.38 22.3001 259.297 22.2986 259.228 22.3017C258.924 22.3159 258.61 22.3269 258.315 22.3537C257.956 22.3867 257.757 22.3001 257.504 22.2497C257.448 22.2387 257.356 22.245 257.287 22.2497C256.752 22.2781 256.222 22.3096 255.687 22.3395C255.498 22.297 255.304 22.256 255.115 22.2135C254.811 22.2293 254.507 22.2466 254.202 22.2623C253.972 22.2749 253.737 22.2797 253.52 22.3033C253.239 22.3348 253.1 22.2608 252.911 22.2245C252.847 22.2119 252.778 22.1852 252.718 22.1883C252.335 22.2056 251.952 22.2245 251.574 22.2513C251.215 22.2781 251.072 22.1363 250.777 22.1379C250.472 22.1395 250.159 22.16 249.864 22.1883C249.522 22.2214 249.283 22.171 249.038 22.1033C248.988 22.0891 248.9 22.0812 248.835 22.0844C248.453 22.1033 248.075 22.1269 247.692 22.1458C247.627 22.1489 247.549 22.1411 247.485 22.1316C246.756 22.0387 246.756 22.0371 246.438 22.056C246.212 22.0686 245.981 22.0844 245.751 22.0923C245.686 22.0954 245.608 22.0812 245.548 22.0686C245.068 21.9726 245.068 21.971 244.723 21.9899C244.418 22.0072 244.114 22.0245 243.81 22.0418C243.621 21.9993 243.427 21.9584 243.238 21.9159C242.86 21.9363 242.473 21.9521 242.099 21.9804C241.924 21.993 241.809 21.9883 241.675 21.9489C241.509 21.9017 241.343 21.8466 241.066 21.8733C240.771 21.9017 240.458 21.9048 240.158 21.9285C239.798 21.9568 239.651 21.8135 239.36 21.8151C239.056 21.8167 238.742 21.8371 238.447 21.8655C238.106 21.8985 237.866 21.8482 237.622 21.7804C237.571 21.7663 237.484 21.7584 237.419 21.7615C236.58 21.8072 235.745 21.8529 234.906 21.9017C234.39 21.9316 234.39 21.9332 233.408 21.8466C233.339 21.8403 233.265 21.834 233.196 21.8371C232.891 21.8513 232.578 21.8623 232.283 21.8891C231.923 21.9222 231.725 21.8371 231.471 21.7851C231.416 21.7741 231.328 21.7804 231.254 21.7836C231.024 21.7946 230.798 21.8088 230.567 21.8214C230.263 21.8387 229.959 21.856 229.654 21.8733C229.465 21.8324 229.272 21.7899 229.083 21.7489C228.705 21.7694 228.317 21.7804 227.944 21.8135C227.658 21.8387 227.524 21.7726 227.335 21.7348C227.271 21.7222 227.202 21.6954 227.142 21.697C226.455 21.7316 225.768 21.7678 225.085 21.8119C224.804 21.8308 224.675 21.7599 224.486 21.7237C224.421 21.7127 224.348 21.6922 224.288 21.6954C223.831 21.7174 223.375 21.7442 222.918 21.771C222.66 21.7867 222.66 21.7867 222.097 21.6891C222.033 21.6781 221.959 21.667 221.895 21.6702C220.447 21.7489 219.004 21.8324 217.556 21.9111C217.408 21.919 217.275 21.8954 217.159 21.8529C217.039 21.8104 216.906 21.7883 216.758 21.7962C216.149 21.8293 215.536 21.8592 214.932 21.9001C214.683 21.9175 214.485 21.897 214.314 21.8418C214.185 21.8009 214.065 21.7852 213.904 21.7946C213.6 21.8135 213.295 21.8292 212.991 21.8466C212.687 21.8639 212.382 21.8812 212.078 21.8986C211.774 21.9159 211.465 21.9253 211.165 21.9521C210.796 21.9852 210.617 21.8875 210.363 21.8387C209.906 21.8623 209.45 21.8859 208.998 21.9111C208.389 21.9442 207.781 21.9804 207.172 22.0119C207.117 22.0151 207.048 21.9867 206.983 21.9726C206.794 21.9332 206.656 21.8781 206.375 21.8954C205.01 21.9789 203.636 22.0497 202.266 22.1316C201.98 22.149 201.856 22.0812 201.662 22.045C201.598 22.034 201.524 22.0119 201.464 22.0151C200.703 22.0545 199.943 22.0985 199.182 22.1411C198.873 22.1584 198.873 22.1584 198.356 22.0607C198.296 22.0497 198.218 22.0355 198.153 22.0387C197.162 22.0922 196.175 22.1489 195.184 22.2041C195.037 22.2119 194.903 22.1899 194.783 22.1474C194.668 22.1049 194.529 22.0812 194.386 22.0891C193.474 22.1395 192.556 22.1883 191.648 22.2434C191.403 22.2592 191.2 22.245 191.025 22.1883C190.901 22.1474 190.776 22.13 190.619 22.1395C189.25 22.2167 187.881 22.2907 186.511 22.3726C186.248 22.3883 186.064 22.3584 185.898 22.3064C185.764 22.2655 185.649 22.2576 185.483 22.2639C185.308 22.2718 185.202 22.2891 185.105 22.3363C184.98 22.3978 184.902 22.4749 184.607 22.4797C184.303 22.4844 183.994 22.5033 183.694 22.5301C183.408 22.5568 183.274 22.486 183.095 22.4434C182.961 22.4135 182.836 22.4088 182.666 22.423C182.509 22.4356 182.412 22.4623 182.32 22.5127C182.117 22.6198 182.099 22.6198 181.85 22.5521C181.716 22.5159 181.596 22.4875 181.449 22.4938C180.84 22.5253 180.231 22.56 179.623 22.5962C179.272 22.6167 179.268 22.6198 179.005 22.5411C178.876 22.5017 178.751 22.4828 178.599 22.4923C176.925 22.5867 175.252 22.6781 173.578 22.7773C173.32 22.7931 173.145 22.76 172.96 22.7127C172.9 22.697 172.84 22.6749 172.771 22.6686C172.702 22.6623 172.624 22.6686 172.55 22.6718C171.333 22.7395 170.111 22.8041 168.898 22.8797C168.621 22.897 168.474 22.8466 168.285 22.8057C168.22 22.7915 168.165 22.7694 168.096 22.7631C168.027 22.7584 167.944 22.7694 167.87 22.7742C166.652 22.8419 165.431 22.9065 164.218 22.9821C163.928 22.9994 163.803 22.9332 163.614 22.8986C163.549 22.886 163.48 22.8623 163.42 22.8655C163.038 22.8828 162.66 22.9064 162.277 22.9269C161.364 22.9789 160.451 23.0277 159.538 23.0813C159.188 23.1017 159.035 22.9616 158.74 22.9679C158.358 22.9757 157.98 23.0072 157.597 23.0293C157.293 23.0466 156.988 23.0624 156.684 23.0813C156.384 23.0986 156.384 23.0986 155.637 23.0072C155.573 22.9994 155.494 22.9883 155.43 22.9915C154.365 23.0498 153.295 23.108 152.235 23.171C151.99 23.1852 151.787 23.1773 151.612 23.1191C151.488 23.0781 151.359 23.0576 151.206 23.0671C149.606 23.1569 148.011 23.2466 146.411 23.3348C146.351 23.338 146.273 23.3222 146.213 23.3096C146.084 23.2813 145.959 23.2482 145.835 23.2183C145.742 23.2545 145.623 23.2876 145.563 23.3285C145.48 23.3836 145.369 23.3994 145.194 23.4088C145.019 23.4183 144.908 23.4151 144.77 23.3742C144.604 23.3238 144.433 23.2844 144.161 23.3002C142.487 23.3994 140.814 23.4892 139.14 23.5868C138.863 23.6025 138.734 23.5332 138.541 23.497C138.476 23.486 138.402 23.4687 138.342 23.4718C137.655 23.5081 136.973 23.5474 136.286 23.5852C134.382 23.6923 132.477 23.7947 130.578 23.9081C130.232 23.9285 129.997 23.8892 129.752 23.8214C129.702 23.8073 129.614 23.7994 129.549 23.8026C126.884 23.9506 124.219 24.1002 121.559 24.2498C121.416 24.2577 121.278 24.2325 121.162 24.1915C121.042 24.149 120.909 24.1285 120.761 24.1364C119.544 24.2041 118.327 24.2719 117.11 24.3412C116.805 24.3585 116.801 24.36 116.487 24.2844C116.422 24.2687 116.353 24.2388 116.303 24.2419C116.197 24.2498 116.095 24.2892 116.021 24.3427C115.948 24.3994 115.832 24.4152 115.662 24.4262C115.486 24.4372 115.371 24.4325 115.238 24.3947C115.067 24.3475 114.91 24.3018 114.633 24.3175C111.134 24.5191 107.634 24.7128 104.135 24.9128C103.853 24.9286 103.724 24.8624 103.531 24.8262C103.466 24.8152 103.402 24.7994 103.332 24.7963C103.259 24.7931 103.18 24.8026 103.106 24.8073C97.3983 25.127 91.6902 25.4483 85.982 25.768C85.6408 25.7869 85.6454 25.7869 85.2719 25.9318C85.2258 25.9491 85.1658 25.9727 85.1012 25.9758C83.3538 26.0766 81.6017 26.1743 79.8496 26.2719C79.0888 26.3144 78.3281 26.3585 77.5673 26.3995C77.2952 26.4137 77.2952 26.4137 76.6451 26.5838C76.5898 26.5979 76.5252 26.6168 76.4606 26.62C73.4175 26.7916 70.3743 26.9633 67.3266 27.1318C67.0868 27.1444 66.8932 27.1727 66.7825 27.2483C66.7042 27.3019 66.6027 27.3334 66.4506 27.3428C64.3204 27.4625 62.1903 27.5838 60.0555 27.7003C59.8019 27.7145 59.6496 27.7586 59.5252 27.8247C59.4837 27.8468 59.4467 27.872 59.3868 27.8877C59.3315 27.9019 59.2485 27.9066 59.1793 27.9114C57.3535 28.0137 55.5276 28.1192 53.6971 28.2169C53.4251 28.2311 53.3144 28.2893 53.1807 28.3507C53.1346 28.3712 53.1023 28.3996 53.0423 28.4137C52.9824 28.4263 52.8948 28.4263 52.821 28.4295C51.2995 28.5145 49.7779 28.6011 48.2564 28.6862C47.9613 28.6783 47.8967 28.7697 47.7538 28.8248C47.703 28.8437 47.6662 28.8689 47.6063 28.8815C47.5417 28.8941 47.4586 28.8925 47.3803 28.8956C46.163 28.9634 44.9458 29.0358 43.7239 29.0988C43.4427 29.113 43.3873 29.1933 43.2352 29.2484C43.1844 29.2657 43.1338 29.2925 43.0738 29.2972C42.3131 29.3429 41.5523 29.3854 40.7915 29.4264C40.5379 29.4405 40.5379 29.439 40.0907 29.5949C40.04 29.6122 39.9799 29.6311 39.9154 29.6358C38.7765 29.702 37.6331 29.765 36.4896 29.8295C36.3421 29.8374 36.2406 29.8752 36.1669 29.9288C36.0931 29.9823 35.9871 30.0169 35.8395 30.0248C34.9266 30.0768 34.0136 30.1303 33.1006 30.1776C32.847 30.1902 32.6811 30.2296 32.5704 30.3004C32.4874 30.354 32.386 30.3807 32.2246 30.3902C31.3117 30.4406 30.3988 30.4957 29.4812 30.5398C29.2138 30.5524 29.0754 30.6059 28.9647 30.6721C28.8771 30.7256 28.7757 30.7445 28.6051 30.754C26.9314 30.8453 25.2531 30.9367 23.584 31.0374C23.3027 31.0548 23.1598 30.9996 22.9753 30.9603C22.7125 30.9052 22.4682 30.8453 22.4682 30.7225C22.4682 30.7036 22.3898 30.6815 22.3345 30.6658C21.9241 30.5477 21.9241 30.5477 21.8595 30.4217C21.8227 30.3445 21.7812 30.2658 21.7489 30.187C21.6889 30.0579 21.5413 30.0248 21.1172 30.0484C20.965 30.0563 20.8128 30.0673 20.6607 30.0736C20.4348 30.0847 20.2642 30.0327 20.2227 29.9382C20.1996 29.8862 20.172 29.8343 20.149 29.7823C20.3795 29.7697 20.3748 29.7681 20.7806 29.5776C20.9512 29.4972 20.9512 29.4972 20.6239 29.4169C20.4994 29.387 20.3795 29.3539 20.2458 29.3256C20.1858 29.313 20.1075 29.3051 20.0429 29.3083C19.6602 29.3271 19.2821 29.3492 18.9041 29.3713C18.2954 29.4059 18.2954 29.4059 17.6775 29.2453C17.6268 29.2327 17.5484 29.209 17.5576 29.1964C17.6083 29.1382 17.7328 29.113 17.8896 29.1067C18.1201 29.0972 18.3461 29.0815 18.572 29.0689C18.7241 29.061 18.8763 29.0516 19.0284 29.0437C19.1714 28.9838 19.319 28.9256 19.4527 28.8641C19.6648 28.7697 19.6647 28.7665 19.3743 28.7004C19.1898 28.6563 18.9916 28.6169 18.8025 28.5759C18.5766 28.5885 18.3461 28.6027 18.1201 28.6137C17.8343 28.6279 17.719 28.598 17.6452 28.4956C17.5807 28.4059 17.659 28.3287 17.8804 28.3098C18.1063 28.2909 18.3185 28.2783 18.4337 28.198C18.5444 28.1208 18.738 28.0909 18.9778 28.0846C19.1299 28.0799 19.2821 28.0688 19.4343 28.0594C19.6325 28.0468 19.7386 27.9665 19.6971 27.8767C19.674 27.8184 19.6279 27.7696 19.4481 27.757C18.6504 27.7019 18.6412 27.7035 18.2446 27.5964C18.2077 27.5869 18.1801 27.5586 18.194 27.5444C18.217 27.5208 18.2678 27.4861 18.3231 27.4814C18.8533 27.4468 19.3836 27.4153 19.9138 27.3917C20.089 27.3838 20.2181 27.3727 20.2781 27.3145C20.3611 27.2342 20.3242 27.1601 20.1628 27.105C20.1121 27.0877 20.029 27.0657 19.9737 27.0672C19.3651 27.0956 18.7611 27.1318 18.1524 27.1601C18.0971 27.1633 17.9957 27.1365 17.9727 27.1161C17.9266 27.0783 17.9957 27.0279 18.1571 27.0105C18.3692 26.9869 18.5859 26.9853 18.7288 26.9066C18.9271 26.7948 19.1714 26.6924 19.3927 26.5853C19.4296 26.5664 19.4896 26.5302 19.4758 26.527C19.3605 26.4924 19.2268 26.4656 19.1069 26.4326C18.904 26.3774 18.904 26.3003 18.9501 26.2263C18.987 26.1664 19.1253 26.1428 19.2959 26.1428C19.3697 26.1428 19.4619 26.1428 19.5218 26.1286C19.6786 26.094 19.7293 26.0499 19.6509 26.0168C19.6048 25.9979 19.5219 25.9711 19.4666 25.9743C18.4799 26.0263 17.4885 26.0766 16.5064 26.1412C16.2159 26.1601 16.0822 26.1003 15.907 26.0577C15.7733 26.0247 15.6488 26.0121 15.4828 26.0357C15.326 26.0577 15.1739 26.0452 15.0771 25.9932C14.9987 25.9507 15.137 25.9144 15.5105 25.8735C15.5796 25.8656 15.658 25.8609 15.7087 25.8451C16.2435 25.6751 16.2435 25.6735 16.6124 25.6514C16.972 25.631 16.9721 25.6294 17.1612 25.538C17.2488 25.4955 17.3455 25.453 17.4285 25.4089C17.4608 25.3916 17.5162 25.3601 17.4977 25.3506C17.3963 25.3018 17.2579 25.2908 17.0965 25.3018C16.7369 25.3286 16.3128 25.3065 16.1237 25.4562C16.05 25.5128 15.9347 25.5286 15.7687 25.538C14.0996 25.6294 12.4304 25.727 10.7567 25.8152C10.4847 25.8294 10.3602 25.8877 10.2542 25.9522C10.162 26.0058 10.0605 26.0215 9.8853 26.031C9.71009 26.0404 9.5717 26.0452 9.47026 25.9932C9.41032 25.9617 9.46106 25.9176 9.59938 25.8735C9.79764 25.8105 9.76074 25.7318 9.69619 25.6577C9.65008 25.6089 9.50715 25.5743 9.35499 25.5774C9.12907 25.5837 8.91242 25.601 8.72337 25.538C8.61271 25.5018 8.47436 25.4766 8.34987 25.4451C8.11011 25.3805 7.87034 25.3144 7.53375 25.3569C7.30321 25.3412 7.14183 25.2845 6.9574 25.2404C6.64848 25.168 6.62081 25.1569 6.84213 25.0798C7.09111 24.9931 6.89742 24.8797 7.03575 24.7947C7.18329 24.7034 7.38624 24.6231 7.56606 24.538C7.61217 24.516 7.65368 24.4955 7.69979 24.4734C7.59374 24.4419 7.49693 24.4026 7.37244 24.3805C7.21106 24.3522 7.12806 24.3175 7.13728 24.2199C7.10501 24.2057 7.11875 24.2419 7.15563 24.2514C7.19713 24.2608 7.29864 24.253 7.34936 24.2419C7.47847 24.212 7.54295 24.1726 7.51067 24.1396C7.49223 24.1222 7.40469 24.1002 7.34936 24.1002C7.24793 24.1002 7.16033 24.1348 7.13267 24.2199C6.61626 24.2845 6.08132 24.316 5.54647 24.3412C5.49114 24.3443 5.42202 24.3128 5.35747 24.2971C5.14537 24.2435 5.14534 24.2451 4.52288 24.2293C4.45833 24.2278 4.37077 24.2057 4.3385 24.1837C4.20478 24.0876 4.20943 23.9821 4.14488 23.8797C4.26476 23.8136 4.38455 23.749 4.50904 23.6844C4.75802 23.5537 5.08085 23.4388 5.2745 23.2955C5.23301 23.2183 5.17767 23.1411 5.38054 23.0781C5.95689 22.9994 5.95232 22.9994 6.10909 22.9238C6.55633 22.7096 6.99894 22.4938 7.46463 22.2828C7.58913 22.2277 7.58914 22.1978 7.36782 22.1742C7.29866 22.1679 7.22479 22.1663 7.15102 22.1694C6.92048 22.1804 6.68994 22.2088 6.46401 22.2025C6.23808 22.1978 6.07209 22.1285 5.88766 22.086C5.69862 22.0419 5.50959 21.9962 5.32054 21.9505C5.10384 21.9552 4.88717 21.9993 4.67046 21.9285C4.50447 21.8733 4.297 21.834 4.10796 21.7883C4.25089 21.6686 4.51836 21.5773 4.72584 21.4718C4.91489 21.3757 4.91939 21.3773 5.42658 21.3032C5.66634 21.2686 5.74934 21.0906 5.54647 21.0387C5.3021 20.9757 5.04394 20.9174 4.79496 20.8576C4.57825 20.8623 4.35698 20.9048 4.14949 20.8339C3.98812 20.7804 3.80365 20.7442 3.53622 20.7646C3.08436 20.7993 2.6233 20.8166 2.16683 20.845C2.01006 20.8544 1.83941 20.8481 1.77025 20.7946C1.72414 20.7568 1.85786 20.7048 2.01002 20.6938C2.24056 20.678 2.44802 20.6591 2.56329 20.5804C2.67395 20.5017 2.87681 20.478 3.11657 20.467C3.18112 20.4638 3.25494 20.4449 3.28722 20.426C3.45321 20.3347 3.63765 20.256 3.99269 20.2591C4.14023 20.2276 4.21857 20.1882 4.17246 20.1504C4.14479 20.13 4.04802 20.1032 3.99269 20.1064C3.60999 20.1221 3.22731 20.1379 2.85383 20.1662C2.67862 20.1788 2.54484 20.1819 2.43418 20.1347C2.35579 20.1032 2.39729 20.0607 2.54483 20.015C2.67393 19.9756 2.71086 19.93 2.70164 19.8764C2.67859 19.752 2.54023 19.7158 2.0976 19.7237C1.77945 19.73 1.70106 19.7095 1.6319 19.6024C1.61346 19.5772 1.56743 19.5426 1.59971 19.5252C1.79797 19.4181 1.92708 19.2859 2.30056 19.2355C2.4481 19.2166 2.60481 19.2166 2.69702 19.1756C2.78924 19.1347 2.87228 19.0874 2.9691 19.048C3.08898 19.0008 3.1719 18.9567 3.11657 18.9268C3.02435 18.8732 2.87685 18.8685 2.70625 18.8874C2.55871 18.9032 2.40195 18.9047 2.24979 18.9142C1.97775 18.9315 1.75648 18.8906 1.72421 18.8213C1.6366 18.6386 1.54436 18.4575 1.46598 18.2748C1.45675 18.2528 1.47975 18.2244 1.51663 18.2055C1.64573 18.1394 1.78411 18.0764 1.91783 18.0118C2.07459 17.9378 2.32362 17.952 2.53571 17.9378C2.83542 17.9173 2.83531 17.9189 3.23645 17.7677C3.39322 17.7078 3.66527 17.7315 3.82665 17.6779C3.87737 17.6606 3.95575 17.6322 3.94192 17.6165C3.92348 17.596 3.83131 17.5803 3.76215 17.5708C3.6976 17.5614 3.61923 17.5567 3.55007 17.5614C2.7109 17.6071 1.87637 17.6559 1.0372 17.7C0.894269 17.7078 0.737497 17.6732 0.686778 17.6244C0.636059 17.5787 0.649847 17.5236 0.640625 17.4716C0.774338 17.407 0.926436 17.3472 1.04171 17.2779C1.12931 17.2244 1.23077 17.2007 1.40598 17.1976C1.63652 17.1929 1.86247 17.174 2.12067 17.1598C2.6002 16.9299 3.07047 16.6889 3.58688 16.459C3.79436 16.3661 3.74373 16.2716 3.78522 16.1723C3.82672 16.081 4.13563 16.0952 4.34311 16.0684C4.5091 16.0464 4.56436 15.996 4.49981 15.9613C4.46292 15.9408 4.37997 15.9172 4.31542 15.9172C4.16326 15.9172 4.01111 15.9314 3.85896 15.9393C3.7068 15.9471 3.5316 15.9424 3.40711 15.9692C3.28723 15.9944 3.2088 16.0479 3.13041 16.0936C3.04281 16.144 2.92762 16.1613 2.75241 16.1645C2.52648 16.1676 2.30056 16.1818 2.07463 16.1928C1.82565 16.1314 1.56739 16.0716 1.32763 16.007C1.28152 15.9944 1.27225 15.9582 1.27686 15.9346C1.28608 15.8731 1.21694 15.8353 1.06478 15.8054C0.93568 15.7802 0.829623 15.744 0.709742 15.7125C0.801958 15.67 0.903432 15.629 0.977205 15.5834C1.13858 15.4873 1.34148 15.418 1.6919 15.4212C1.83023 15.3597 1.94085 15.2841 2.12067 15.2416C2.29127 15.2007 2.58177 15.2416 2.71087 15.1487C2.77542 15.103 2.8723 15.0511 2.99679 15.0322C3.19506 15.0022 3.45326 15.018 3.56853 14.9298C3.63769 14.8794 3.73909 14.8337 3.8728 14.8211C4.02496 14.807 4.18168 14.8038 4.29234 14.7739C4.35228 14.7581 4.41684 14.7329 4.41684 14.7109C4.41684 14.6967 4.3247 14.6747 4.26015 14.6652C4.20021 14.6542 4.12174 14.6463 4.05257 14.6495C3.82203 14.6589 3.59611 14.6762 3.36557 14.6857C3.30102 14.6888 3.22727 14.6778 3.1581 14.6684C2.95523 14.6432 2.96903 14.6117 3.13041 14.555C3.29179 14.4999 3.40712 14.429 3.54084 14.3644C3.68838 14.3534 3.87279 14.3581 3.97423 14.3282C4.14482 14.2794 4.26467 14.2085 4.403 14.1471C4.55515 14.1376 4.71191 14.1345 4.85485 14.1172C4.91479 14.1109 4.94248 14.0762 4.99319 14.0557C5.08541 14.0164 5.16386 13.9597 5.28835 13.9408C5.49122 13.9124 5.7402 13.9235 5.86008 13.8368C5.92925 13.7864 6.03525 13.7329 6.16436 13.7298C6.524 13.7235 6.67616 13.6368 6.86059 13.5549C6.99892 13.4935 7.29402 13.525 7.44617 13.4636C7.54761 13.4242 7.62143 13.3754 7.72287 13.3376C7.76436 13.3219 7.85194 13.314 7.9211 13.3093C8.29918 13.2856 8.68187 13.2683 9.05995 13.2431C9.11989 13.2384 9.17527 13.2148 9.22138 13.1959C9.3182 13.1549 9.37808 13.0982 9.49796 13.0715C9.61784 13.0447 9.78841 13.0447 9.93596 13.0368C10.4109 13.0132 10.4478 13.0195 10.6645 12.8856C10.8397 12.777 11.2686 12.8541 11.4115 12.7344C11.4945 12.6651 11.6466 12.6085 11.9186 12.6006C12.3013 12.5896 12.6794 12.5596 13.0621 12.5392C13.4033 12.5203 13.3987 12.5203 13.7676 12.3738C13.9336 12.3076 14.178 12.3171 14.3947 12.3045C14.6252 12.2919 14.8373 12.273 14.948 12.1943C15.0586 12.1171 15.2615 12.0919 15.4966 12.0809C15.7133 12.0698 15.9577 12.0777 16.1283 12.0147C16.5433 11.8635 16.5387 11.862 16.8292 11.8462C17.2857 11.821 17.7421 11.7958 18.1986 11.769C18.5029 11.7517 18.821 11.7486 19.1069 11.7139C19.3144 11.6887 19.4066 11.6005 19.5403 11.5391C19.9184 11.5155 20.2964 11.4919 20.6745 11.4698C21.2048 11.4383 21.7396 11.41 22.2745 11.3801C22.505 11.3202 22.5374 11.1879 22.9247 11.1816C23.1552 11.1785 23.3811 11.158 23.6117 11.1454C23.9944 11.1234 24.3724 11.095 24.7551 11.084C25.0456 11.0761 25.0963 10.9911 25.2484 10.9375C25.2991 10.9186 25.3453 10.8919 25.4052 10.8871C26.0046 10.843 26.6224 10.8336 27.208 10.769C27.2679 10.7627 27.3233 10.7296 27.3371 10.706C27.3463 10.6934 27.268 10.6698 27.2172 10.6588C27.1573 10.6462 27.0789 10.6336 27.0144 10.6367C25.1101 10.7423 23.2059 10.8493 21.3017 10.9549C21.0342 10.9706 21.0342 10.969 20.3841 11.1423C20.3288 11.1564 20.2642 11.1722 20.195 11.1769C19.8907 11.1958 19.5818 11.2068 19.2821 11.2305C19.0377 11.2494 18.8349 11.2304 18.6597 11.1737C18.5352 11.1328 18.406 11.1202 18.2492 11.1234C18.074 11.1281 17.9588 11.1454 17.8574 11.1879C17.7237 11.2462 17.6545 11.3218 17.3732 11.3375C16.0776 11.4053 14.7819 11.4809 13.4909 11.5533C13.311 11.5312 13.2235 11.4982 13.2696 11.4588C13.2972 11.4352 13.3526 11.4037 13.4079 11.4005C13.9381 11.3675 14.473 11.3391 15.0032 11.3076C15.077 11.3029 15.1784 11.306 15.2199 11.2903C15.4228 11.2194 15.4966 11.1045 15.8793 11.0966C16.1007 11.0919 16.3266 11.0682 16.5387 11.0462C16.5986 11.0399 16.6539 11.0068 16.6678 10.9832C16.6724 10.9706 16.5986 10.947 16.5433 10.9359C16.3404 10.8903 16.1053 10.9454 15.9024 10.9139C15.8333 10.9029 15.7364 10.8871 15.7225 10.8682C15.7133 10.8509 15.7917 10.8226 15.847 10.8052C15.8978 10.7895 15.9669 10.7753 16.036 10.7706C16.6447 10.7344 17.2534 10.6966 17.862 10.6682C18.111 10.6572 18.2862 10.6178 18.3968 10.5454C18.4798 10.4918 18.5813 10.4635 18.738 10.4556C19.8031 10.3974 20.8682 10.3328 21.9379 10.2792C22.2053 10.2666 22.3437 10.2147 22.4544 10.147C22.542 10.0934 22.6434 10.0745 22.814 10.0651C24.3402 9.98317 25.8571 9.89183 27.3833 9.81309C27.6645 9.79891 27.7476 9.73119 27.8905 9.67292C27.9412 9.65245 27.9734 9.62725 28.038 9.61465C28.1025 9.60205 28.1855 9.60361 28.2639 9.60047C29.4811 9.53275 30.6985 9.46032 31.9203 9.39732C32.2062 9.38315 32.2615 9.30439 32.409 9.24928C32.4597 9.23195 32.5059 9.20361 32.5658 9.19889C33.4787 9.14534 34.3917 9.09495 35.3046 9.04298C35.9132 9.00833 36.5218 8.97368 37.1305 8.94061C37.4302 8.92486 37.4302 8.92328 37.8359 8.77366C37.882 8.75634 37.9466 8.73586 38.0066 8.73114C39.7587 8.63035 41.5061 8.5343 43.2582 8.43509C43.4058 8.42721 43.5118 8.39097 43.5856 8.33743C43.6594 8.28388 43.7655 8.24766 43.9084 8.23979C45.2778 8.16104 46.6472 8.08388 48.0212 8.00986C48.2702 7.99726 48.4454 7.95946 48.556 7.88859C48.639 7.83505 48.7405 7.80671 48.8972 7.79884C50.2666 7.72324 51.6361 7.64291 53.0101 7.57047C53.273 7.5563 53.402 7.50276 53.5311 7.43976C53.5772 7.41772 53.6141 7.38149 53.6695 7.37834C54.3519 7.33425 55.0296 7.28857 55.7166 7.25865C56.0025 7.24605 56.0994 7.1799 56.2146 7.11691C56.3068 7.06651 56.4129 7.0492 56.5881 7.0429C56.9708 7.02872 57.3489 7.00196 57.7224 6.97519C57.7777 6.97046 57.8469 6.93581 57.8515 6.91377C57.8607 6.87282 57.7546 6.84447 57.5794 6.83029C55.7535 6.93266 53.9231 7.03502 52.0972 7.13738C51.7975 7.15471 51.7975 7.15472 51.3917 7.30433C51.3456 7.32165 51.281 7.34213 51.2165 7.34685C49.4644 7.44607 47.7169 7.54371 45.9648 7.64293C45.8173 7.6508 45.7113 7.68702 45.6375 7.74057C45.5637 7.79411 45.4576 7.83033 45.3146 7.83821C43.6409 7.9327 41.9672 8.02877 40.2889 8.11854C40.0399 8.13114 39.8647 8.16734 39.7541 8.23979C39.6711 8.29333 39.5697 8.32169 39.4129 8.32956C37.8129 8.41775 36.2175 8.51066 34.613 8.5957C34.4516 8.60358 34.3318 8.55791 34.341 8.51539C34.3456 8.49334 34.4147 8.45713 34.47 8.45398C35.3046 8.40201 36.1346 8.34846 36.9738 8.30909C37.255 8.29649 37.3379 8.22719 37.4809 8.16892C37.527 8.14845 37.5639 8.12168 37.6238 8.11065C37.6884 8.09806 37.7714 8.09964 37.8498 8.09649C39.8278 7.98467 41.8059 7.87129 43.7885 7.76577C44.0744 7.75002 44.1297 7.67284 44.2772 7.61772C44.3279 7.59882 44.3741 7.57049 44.434 7.56734C45.0426 7.52954 45.6512 7.49646 46.2599 7.46339C47.325 7.40355 48.39 7.3437 49.4597 7.28385C49.7687 7.26653 49.7687 7.26652 50.1652 7.11849C50.2113 7.10116 50.2759 7.07913 50.3359 7.07598C53.1531 6.91692 55.9703 6.75786 58.7875 6.60037C58.935 6.5925 59.0411 6.55628 59.1148 6.50273C59.1886 6.45076 59.2946 6.41296 59.4376 6.40351C63.2461 6.18933 67.05 5.97514 70.8585 5.76411C71.1075 5.74994 71.2827 5.71686 71.3933 5.64284C71.4717 5.5893 71.5778 5.56096 71.7345 5.55151C75.9212 5.31686 80.1078 5.0822 84.299 4.84598C87.1162 4.68849 89.9334 4.52785 92.7506 4.37352C93.0088 4.35934 93.1471 4.31051 93.2762 4.24595C93.3177 4.2239 93.3592 4.18767 93.4145 4.18452C94.0186 4.14515 94.6225 4.10894 95.2266 4.07271C95.4156 4.11524 95.6046 4.15619 95.7937 4.19871C95.9366 4.13887 96.075 4.07744 96.2179 4.0176C97.1309 3.97193 98.03 3.90106 98.9521 3.87901C99.0121 3.87744 99.0766 3.90736 99.1411 3.92311C99.5699 4.02233 99.8143 4.01445 100.086 3.88216C100.183 3.83492 100.266 3.7924 100.414 3.78452C100.87 3.75617 101.331 3.73728 101.783 3.7042C102.028 3.68688 102.23 3.70262 102.406 3.75932C102.53 3.80027 102.659 3.8176 102.811 3.80815C103.651 3.7609 104.485 3.71523 105.324 3.66483C105.384 3.66168 105.439 3.6349 105.486 3.616C105.582 3.57506 105.665 3.53097 105.758 3.48845C105.882 3.51522 106.021 3.5357 106.122 3.57034C106.251 3.61129 106.371 3.61128 106.546 3.60026C109.894 3.4097 113.246 3.22387 116.593 3.03174C116.879 3.01599 117.003 3.08214 117.197 3.11678C117.262 3.12938 117.326 3.14512 117.395 3.14827C117.469 3.15142 117.547 3.14198 117.621 3.13726C120.134 2.99552 122.647 2.85535 125.16 2.71361C125.492 2.69471 125.492 2.69471 125.985 2.79235C126.045 2.80495 126.124 2.81913 126.188 2.8144C127.332 2.75298 128.475 2.68685 129.614 2.62385C129.761 2.61598 129.886 2.64117 130.02 2.67739C130.283 2.74826 130.301 2.74827 130.495 2.64433C130.587 2.59551 130.684 2.56557 130.836 2.5514C131.002 2.53565 131.136 2.54039 131.265 2.56874C131.449 2.60811 131.583 2.67424 131.864 2.65692C133.081 2.5829 134.303 2.52149 135.516 2.44589C135.792 2.42857 135.94 2.48211 136.124 2.52148C136.189 2.53566 136.249 2.55771 136.318 2.56243C136.387 2.56715 136.47 2.55612 136.544 2.5514C138.066 2.46635 139.592 2.3829 141.109 2.29156C141.395 2.27424 141.519 2.34194 141.713 2.37659C141.777 2.38919 141.851 2.41125 141.911 2.4081C142.824 2.35928 143.742 2.30729 144.654 2.25532C144.982 2.23642 144.982 2.238 145.48 2.33406C145.54 2.34666 145.618 2.35926 145.683 2.35611C146.748 2.29784 147.817 2.238 148.883 2.17815C149.21 2.15926 149.21 2.15926 150.155 2.24115C150.224 2.24745 150.298 2.25691 150.367 2.25376C151.584 2.18605 152.806 2.11989 154.023 2.04745C154.268 2.03327 154.471 2.04587 154.646 2.10256C154.77 2.14351 154.9 2.16084 155.052 2.15139C156.421 2.07423 157.795 2.00021 159.16 1.91832C159.423 1.90257 159.593 1.9372 159.778 1.98287C159.838 1.99862 159.898 2.02068 159.967 2.02697C160.036 2.03327 160.114 2.02697 160.188 2.02225C161.558 1.94508 162.932 1.87264 164.296 1.78917C164.573 1.77185 164.721 1.82539 164.905 1.86476C164.97 1.87893 165.039 1.90728 165.094 1.90571C165.629 1.87893 166.164 1.85532 166.694 1.81595C166.98 1.7939 167.104 1.86633 167.298 1.90098C167.363 1.912 167.436 1.93564 167.496 1.93249C168.64 1.87107 169.783 1.8065 170.922 1.74036C171.084 1.73091 171.203 1.74507 171.332 1.78602C171.503 1.84114 171.701 1.86319 171.95 1.84586C172.481 1.80964 173.015 1.78445 173.55 1.75453C173.864 1.7372 173.864 1.73721 174.823 1.8191C174.892 1.8254 174.966 1.83484 175.035 1.83169C175.948 1.7813 176.865 1.73248 177.774 1.67736C178.018 1.66161 178.221 1.67578 178.396 1.73248C178.521 1.77342 178.645 1.79076 178.802 1.78131C179.641 1.73406 180.476 1.68681 181.315 1.63957C181.619 1.62224 181.924 1.59231 182.228 1.59231C182.449 1.59389 182.611 1.66948 182.809 1.70727C182.864 1.7183 182.956 1.70571 183.03 1.70256C184.095 1.64272 185.165 1.58759 186.225 1.51987C186.502 1.50255 186.65 1.55609 186.834 1.59546C186.899 1.60964 186.968 1.63799 187.023 1.63641C187.406 1.61909 187.784 1.59546 188.167 1.57499C188.623 1.54979 189.084 1.53089 189.536 1.49625C189.905 1.4679 190.043 1.60491 190.338 1.60963C190.564 1.61436 190.795 1.58759 191.021 1.57499C191.477 1.54979 191.933 1.52145 192.39 1.4994C192.551 1.49153 192.676 1.46632 192.727 1.40962C192.736 1.3986 192.657 1.37499 192.607 1.36081C191.994 1.20018 191.993 1.20017 191.376 1.23482C190.993 1.25686 190.615 1.27892 190.232 1.29781C190.168 1.30096 190.094 1.28837 190.029 1.27892C189.845 1.25214 189.863 1.22065 190.02 1.16395C190.177 1.10726 190.297 1.03797 190.43 0.973403C190.619 1.01435 190.804 1.05528 190.993 1.09623C191.145 1.08835 191.297 1.07892 191.449 1.07104C192.21 1.0301 192.971 0.987573 193.732 0.949776C193.787 0.946627 193.856 0.978128 193.921 0.993877C194.105 1.03955 194.271 1.07891 194.539 1.06159C195.221 1.01591 195.908 0.982842 196.59 0.943471C196.89 0.926147 196.89 0.926149 197.416 1.02379C197.476 1.03481 197.554 1.04741 197.619 1.04426C198.306 1.00804 198.988 0.968675 199.675 0.930879C199.823 0.923004 199.966 0.943477 200.072 0.989148C200.113 1.00805 200.104 1.03954 200.279 1.29781C200.823 1.50727 201.197 1.48523 201.575 1.46633C201.736 1.45846 201.879 1.45058 201.985 1.41908C202.04 1.40176 202.11 1.37656 202.11 1.35608C202.11 1.34033 202.008 1.31513 201.944 1.31198C201.487 1.28049 201.054 1.34664 200.606 1.36081C200.399 1.36711 200.219 1.31199 200.182 1.22222C200.173 1.19703 200.159 1.17026 200.145 1.14506C200.132 1.11986 200.122 1.09309 200.109 1.06789C199.929 1.06002 199.823 1.08836 199.744 1.1419C199.68 1.186 199.587 1.2364 199.463 1.26002C199.338 1.28522 199.168 1.2805 199.016 1.28837C198.868 1.29625 198.707 1.31672 198.568 1.3057C198.43 1.2931 198.319 1.24742 198.19 1.21907C198.13 1.2049 198.057 1.18443 197.997 1.18758C197.467 1.21435 196.941 1.24112 196.415 1.27576C196.139 1.29466 196 1.22853 195.825 1.18758C195.687 1.15608 195.548 1.16395 195.525 1.23639C195.465 1.40963 195.678 1.48207 196.148 1.44899C196.535 1.42065 196.886 1.41594 197.19 1.52303C197.231 1.5372 197.328 1.5435 197.388 1.54035C197.766 1.52145 198.14 1.49782 198.518 1.47893C198.587 1.47578 198.661 1.48207 198.725 1.48837C199.666 1.57341 199.666 1.57499 199.984 1.55609C200.136 1.54664 200.284 1.53877 200.27 1.29939C200.56 1.04269 201.021 1.02537 201.469 0.987571C201.759 0.963949 201.884 1.03325 202.073 1.06947C202.137 1.08207 202.206 1.10726 202.266 1.10411C203.258 1.05214 204.244 0.997011 205.231 0.938742C205.397 0.929292 205.517 0.938743 205.646 0.979689C205.812 1.03166 205.996 1.06474 206.259 1.04584C206.785 1.00804 207.32 0.984426 207.855 0.952929C208.127 0.937181 208.127 0.937164 208.675 1.03481C208.735 1.04583 208.814 1.05843 208.878 1.05528C209.413 1.02851 209.943 0.995445 210.474 0.967097C210.621 0.959223 210.755 0.981269 210.87 1.02379C210.985 1.06631 211.124 1.08836 211.267 1.08048C211.802 1.05214 212.332 1.02065 212.862 0.992301C212.927 0.989151 213.005 1.00017 213.065 1.0112C213.627 1.10884 213.627 1.10882 213.886 1.09307C214.264 1.06945 214.651 1.05844 215.024 1.02694C215.389 0.995446 215.578 1.08678 215.827 1.13718C216.509 1.10095 217.196 1.07104 217.874 1.02694C218.151 1.00804 218.298 1.06001 218.483 1.10096C218.547 1.11513 218.612 1.14506 218.672 1.14348C218.902 1.13718 219.128 1.11986 219.354 1.10726C219.58 1.09466 219.81 1.08207 220.036 1.06947C220.295 1.11514 220.465 1.22223 220.834 1.18601C221.055 1.16396 221.291 1.15923 221.516 1.14663C221.742 1.13403 221.973 1.12144 222.199 1.10884C222.351 1.10096 222.508 1.09623 222.655 1.08206C222.927 1.05844 223.061 1.13561 223.255 1.17026C223.319 1.18128 223.393 1.20017 223.453 1.19702C223.909 1.17497 224.371 1.15608 224.818 1.11985C225.164 1.09151 225.399 1.13876 225.643 1.2049C225.694 1.21908 225.781 1.22695 225.846 1.2238C226.381 1.19703 226.911 1.16395 227.441 1.1356C227.584 1.12772 227.723 1.15292 227.838 1.19387C227.958 1.23639 228.091 1.25688 228.239 1.249C228.769 1.22066 229.304 1.18915 229.834 1.1608C229.899 1.15765 229.977 1.17025 230.037 1.18285C230.554 1.28049 230.554 1.28207 230.858 1.26317C230.932 1.25845 231.01 1.25529 231.084 1.25056C231.462 1.22851 231.854 1.22065 232.223 1.18285C232.647 1.14033 232.956 1.19388 233.256 1.28365C233.634 1.26475 234.021 1.25372 234.39 1.22222C234.666 1.1986 234.814 1.25844 234.998 1.29781C235.063 1.31199 235.132 1.34034 235.187 1.33719C235.722 1.31041 236.257 1.2868 236.783 1.24743C237.069 1.22538 237.193 1.29623 237.387 1.33246C237.451 1.34506 237.52 1.36711 237.58 1.36396C237.885 1.35137 238.189 1.33246 238.493 1.31514C238.849 1.29466 238.848 1.29624 239.319 1.3923C239.54 1.43797 239.761 1.40175 239.978 1.39073C240.209 1.37813 240.425 1.36868 240.61 1.43325C240.725 1.4742 240.863 1.49939 241.006 1.49309C241.311 1.47892 241.62 1.46475 241.919 1.44113C242.159 1.42223 242.366 1.43483 242.542 1.49309C242.666 1.53404 242.795 1.55453 242.947 1.54508C243.63 1.50728 244.317 1.46789 244.999 1.43167C245.059 1.42852 245.142 1.4427 245.197 1.45688C245.327 1.48522 245.451 1.51671 245.576 1.54821C245.875 1.53404 246.184 1.52775 246.479 1.50571C246.793 1.48366 247.079 1.47578 247.323 1.5624C247.374 1.5813 247.448 1.60806 247.507 1.60648C247.738 1.60018 247.964 1.58444 248.19 1.57184C248.416 1.55924 248.646 1.54664 248.872 1.53404C249.135 1.57341 249.301 1.6868 249.67 1.65058C249.891 1.62853 250.127 1.62381 250.352 1.61121C250.578 1.59861 250.809 1.58444 251.035 1.57341C251.109 1.57026 251.192 1.56239 251.256 1.56869C251.325 1.57498 251.385 1.59704 251.445 1.61279C251.63 1.65846 251.8 1.70413 252.063 1.67736C252.284 1.65531 252.519 1.65059 252.745 1.63641C253.054 1.61909 253.054 1.61909 253.566 1.71831C253.774 1.75925 254.009 1.70571 254.207 1.74036C254.341 1.76398 254.456 1.80334 254.585 1.83012C254.64 1.84114 254.728 1.84586 254.793 1.84271C255.097 1.82854 255.406 1.81437 255.706 1.79075C255.95 1.77185 256.153 1.79074 256.323 1.84744C256.448 1.88838 256.572 1.90572 256.729 1.89627C257.49 1.85217 258.251 1.81436 259.007 1.76554C259.265 1.74822 259.473 1.775 259.615 1.83169C259.86 1.92933 260.206 1.81437 260.459 1.89312C260.616 1.94194 260.773 1.99863 261.059 1.97501C261.584 1.93406 262.119 1.912 262.649 1.88366C262.838 1.92618 263.027 1.96871 263.221 2.01123C263.525 1.99391 263.83 1.97657 264.134 1.96082C264.36 1.94822 264.591 1.93405 264.816 1.92303C264.89 1.91988 264.969 1.91358 265.038 1.92145C265.107 1.92933 265.162 1.9498 265.227 1.96555C265.545 2.04272 265.545 2.0443 266.071 2.01281C266.297 1.99863 266.513 1.98918 266.702 2.05218C266.878 2.11045 267.085 2.12146 267.325 2.10414C267.777 2.07264 268.233 2.04902 268.694 2.02697C268.837 2.0191 268.971 2.04587 269.091 2.08682C269.271 2.15139 269.492 2.14509 269.718 2.12777C270.018 2.10572 270.313 2.08368 270.566 2.17187C270.617 2.19077 270.695 2.21752 270.751 2.21595C271.129 2.20335 271.511 2.19391 271.88 2.16399C272.249 2.13406 272.429 2.2317 272.683 2.27895C273.061 2.25847 273.443 2.238 273.821 2.21753C273.895 2.2128 273.983 2.19864 274.047 2.20651C274.319 2.23958 274.476 2.35769 274.85 2.32147C275.066 2.301 275.301 2.29471 275.527 2.28998C275.587 2.28841 275.666 2.31517 275.707 2.33564C275.73 2.34666 275.707 2.37658 275.68 2.39233C275.597 2.43643 275.495 2.47739 275.421 2.52306C275.412 2.52936 275.5 2.55769 275.55 2.57029C275.675 2.59864 275.818 2.59393 275.984 2.58133C276.127 2.5703 276.274 2.59235 276.376 2.6396C276.417 2.6585 276.403 2.68999 276.316 2.79393C276.316 2.8711 276.413 2.83644 276.445 2.78605C276.496 2.7136 276.399 2.68998 276.214 2.72936C276.085 2.7577 276.021 2.79865 276.053 2.83173C276.071 2.84905 276.159 2.8711 276.316 2.79393C276.722 2.69944 277.026 2.68212 277.33 2.6648C277.409 2.66008 277.501 2.64432 277.556 2.65377C277.754 2.69156 277.939 2.73724 278.133 2.77976C278.354 2.77031 278.561 2.74668 278.778 2.8081C279.082 2.89472 279.096 2.88684 279.391 2.86952C279.543 2.86007 279.696 2.85221 279.848 2.84434C280 2.83646 280.12 2.86008 280.253 2.8963C280.525 2.97032 280.549 2.97031 280.728 2.86952C280.834 2.8081 280.908 2.78763 281.042 2.81598C281.484 2.91205 281.489 2.91834 281.867 2.88999C282.181 2.86637 282.476 2.86007 282.706 2.94984C282.863 3.01283 282.914 2.99866 283.038 2.93252C283.37 2.75771 283.522 2.76085 284.145 2.88684C284.435 2.94669 284.735 2.88212 285.03 2.87425C285.279 2.86795 285.454 2.90574 285.473 3.00496C285.487 3.06638 285.528 3.11048 285.694 3.13095C285.759 3.13883 285.837 3.14985 285.902 3.1467C286.284 3.1278 286.662 3.10575 287.045 3.0837C287.239 3.07267 287.345 2.99867 287.308 2.90103C287.266 2.79709 287.34 2.75928 287.617 2.72936C287.783 2.71203 287.917 2.7152 288.05 2.74354C288.198 2.77504 288.156 2.80339 288.027 2.86008C287.718 2.99867 287.755 3.0837 288.152 3.17976C288.29 3.21283 288.401 3.24277 288.433 3.29159C288.451 3.31679 288.433 3.34986 288.475 3.36876C288.7 3.47427 289.014 3.542 289.364 3.59239C289.701 3.54987 289.932 3.62073 290.19 3.67742C290.393 3.72152 290.632 3.68373 290.849 3.66798C291.093 3.65066 291.296 3.66325 291.472 3.72152C291.596 3.76247 291.725 3.78136 291.877 3.77349C292.182 3.75616 292.49 3.74515 292.79 3.71995C293.048 3.6979 293.242 3.7294 293.403 3.78295C293.606 3.85066 293.832 3.80499 294.044 3.81444C294.33 3.82546 294.473 3.96562 294.847 3.92782C295.068 3.90577 295.299 3.8979 295.529 3.8916C295.589 3.89003 295.663 3.9168 295.713 3.9357C295.958 4.02232 296.244 4.01759 296.557 3.9924C296.774 3.97507 296.986 3.95933 297.198 4.01917C297.549 4.11997 297.936 4.20816 298.305 4.30108C298.355 4.37352 298.319 4.45855 298.581 4.50107C298.72 4.52312 298.849 4.5562 298.955 4.59243C299.084 4.63495 299.204 4.64597 299.37 4.63495C299.669 4.6129 299.983 4.60816 300.278 4.57981C300.55 4.55462 300.721 4.6066 300.887 4.65542C301.02 4.6948 301.145 4.71368 301.306 4.68534C301.472 4.65856 301.592 4.67588 301.726 4.7184C301.915 4.77667 301.929 4.77038 302.556 4.78771C302.62 4.78928 302.699 4.81289 302.736 4.83336C302.754 4.84439 302.713 4.8759 302.68 4.89165C302.639 4.91055 302.574 4.93259 302.514 4.93731C301.832 4.97826 301.145 5.01448 300.463 5.05543C300.393 5.06015 300.32 5.07119 300.269 5.08693C300.214 5.10426 300.144 5.12786 300.144 5.14991C300.144 5.16566 300.237 5.18457 300.301 5.19559C300.504 5.23181 300.744 5.17669 300.942 5.21764C301.076 5.24441 301.186 5.2822 301.32 5.3074C301.375 5.31842 301.463 5.31685 301.532 5.3137C301.763 5.30268 301.989 5.28693 302.219 5.27749C302.284 5.27591 302.358 5.29167 302.418 5.30427C302.86 5.39876 302.86 5.39875 303.243 5.37828C303.395 5.3704 303.556 5.34678 303.699 5.35623C303.838 5.36568 303.958 5.4082 304.082 5.43497C304.34 5.49167 304.585 5.54678 304.603 5.66962C304.612 5.71687 304.764 5.75781 304.917 5.76096C305.064 5.76411 305.221 5.7468 305.373 5.73735C305.733 5.71845 305.733 5.71845 306.198 5.81452C306.328 5.84129 306.466 5.84443 306.632 5.82869C306.696 5.82239 306.775 5.82869 306.844 5.83657C307.07 5.86019 307.07 5.89011 306.922 5.9468C306.715 6.03027 306.733 6.03815 307.314 6.10902C307.535 6.13579 307.706 6.18619 307.891 6.23028C308.19 6.30115 308.186 6.30114 307.987 6.39405C307.941 6.41453 307.9 6.43658 307.854 6.45863C307.72 6.52005 307.614 6.58619 307.337 6.59249C307.033 6.59879 306.729 6.624 306.424 6.64132C306.129 6.65864 306.051 6.69642 306.079 6.80351C306.111 6.93265 306.171 6.94683 306.701 6.94526C306.853 6.94526 306.987 6.95785 307.102 7.00037C307.047 7.05077 306.945 7.09014 306.798 7.09959C306.42 7.12321 306.037 7.14369 305.659 7.16416C305.355 7.18149 305.05 7.1988 304.746 7.21613C304.557 7.22715 304.437 7.30905 304.488 7.40039C304.515 7.45236 304.538 7.50433 304.562 7.5563C304.612 7.66024 304.709 7.68702 305.018 7.6823C305.096 7.68072 305.17 7.66811 305.244 7.67126C305.544 7.68229 305.687 7.813 306.046 7.78622C306.346 7.76418 306.66 7.75946 306.955 7.73111C307.227 7.70591 307.379 7.76262 307.568 7.80514C307.632 7.81932 307.702 7.84922 307.757 7.84765C308.14 7.83032 308.522 7.81301 308.896 7.78309C309.071 7.77049 309.177 7.77994 309.315 7.81773C309.647 7.90908 309.657 7.90435 310.15 7.876C310.51 7.85395 310.514 7.8571 310.975 7.95317C311.104 7.97994 311.243 7.97994 311.409 7.96734C311.625 7.95159 311.851 7.92639 312.077 7.95002C312.146 7.95632 312.234 7.97522 312.257 7.99569C312.271 8.00987 312.206 8.04451 312.151 8.05554C311.745 8.13743 311.27 8.12326 310.828 8.15633C310.689 8.16578 310.551 8.13586 310.436 8.09333C310.316 8.05081 310.187 8.0335 310.03 8.04137C309.726 8.05869 309.417 8.06971 309.117 8.09491C308.859 8.11696 308.679 8.08073 308.499 8.03191C308.439 8.01616 308.37 7.98624 308.31 7.98781C307.628 8.01931 306.941 8.05081 306.263 8.09491C305.991 8.11381 305.834 8.06342 305.65 8.0209C305.585 8.00672 305.521 7.9768 305.461 7.97837C305.23 7.98467 305.004 8.00199 304.774 8.01459C303.935 8.06184 303.1 8.10908 302.261 8.15318C302.205 8.15633 302.136 8.12325 302.072 8.10908C301.947 8.08073 301.818 8.05396 301.689 8.02718C301.458 8.03978 301.233 8.05553 301.002 8.06498C300.836 8.07128 300.689 8.09333 300.665 8.15318C300.652 8.19255 300.804 8.22877 300.965 8.22562C301.122 8.22247 301.279 8.20357 301.408 8.22404C302.049 8.32483 302.049 8.32641 302.45 8.30594C302.8 8.28704 302.763 8.27128 303.072 8.3579C303.206 8.3957 303.326 8.41775 303.478 8.40831C303.856 8.38626 304.239 8.36421 304.622 8.34531C304.681 8.34216 304.76 8.35791 304.82 8.37051C305.272 8.465 305.272 8.46815 305.645 8.44452C306.134 8.41618 306.152 8.4083 306.48 8.50437C306.706 8.57051 306.913 8.52484 307.13 8.52169C307.379 8.58311 307.651 8.63824 307.877 8.70753C308.144 8.78943 308.425 8.77524 308.73 8.75161C308.956 8.73429 309.177 8.72799 309.361 8.79256C309.537 8.85241 309.749 8.85872 309.988 8.84297C310.205 8.82879 310.427 8.79886 310.653 8.83351C310.712 8.84296 310.805 8.86659 310.8 8.88076C310.795 8.90281 310.735 8.93431 310.675 8.94376C310.251 9.00833 309.786 9.00675 309.338 9.03667C309.278 9.0414 309.2 9.02407 309.14 9.01147C309.011 8.98312 308.887 8.95006 308.762 8.92014C308.536 8.92958 308.306 8.93273 308.084 8.95162C307.914 8.9658 307.784 8.96424 307.66 8.92644C307.545 8.89179 307.42 8.84926 307.282 8.83824C307.144 8.82722 306.982 8.85084 306.83 8.86029C306.678 8.86974 306.503 8.865 306.383 8.8902C306.263 8.9154 306.189 8.97053 306.111 9.01462C306.023 9.06344 305.903 9.0792 305.728 9.08393C305.567 9.08865 305.438 9.08235 305.318 9.03825C305.267 9.01935 305.198 9.00517 305.129 8.99257C305.064 8.98155 304.99 8.96422 304.93 8.96737C304.243 9.00359 303.561 9.04298 302.874 9.08077C302.533 9.09967 302.537 9.09966 301.827 9.00674C301.763 8.99887 301.684 8.98785 301.62 8.991C301.237 9.00989 300.859 9.03195 300.476 9.05399C300.089 9.07604 300.094 9.07289 299.434 8.97367C299.315 8.95478 299.139 8.97998 298.996 8.97683C298.697 8.96895 298.549 8.83667 298.199 8.86187C297.899 8.88391 297.585 8.88863 297.286 8.91698C297.014 8.94218 296.857 8.88707 296.673 8.84454C296.608 8.83037 296.539 8.79887 296.483 8.80202C295.796 8.83667 295.114 8.87604 294.201 8.88076C293.975 8.88076 294.077 8.91384 294.224 8.92486C294.436 8.94219 294.505 8.90912 294.39 8.84612C294.307 8.80202 294.187 8.77996 294.09 8.79099C294.04 8.79729 293.975 8.82722 294.201 8.88076C294.441 8.94061 294.427 8.97367 294.469 8.99257C294.57 9.03824 294.713 9.05714 294.861 9.05084C295.091 9.03982 295.317 9.02407 295.548 9.01462C295.612 9.01147 295.69 9.0225 295.75 9.0351C296.258 9.13274 296.262 9.13904 296.802 9.10125C296.972 9.09022 297.097 9.09022 297.23 9.12014C297.415 9.16109 297.549 9.23038 297.83 9.20833C298.203 9.1784 298.586 9.1611 298.969 9.14377C299.029 9.14062 299.093 9.16897 299.162 9.18157C299.351 9.21936 299.49 9.29023 299.771 9.26031C299.988 9.23669 300.223 9.23037 300.453 9.22565C300.513 9.22407 300.605 9.24928 300.633 9.26975C300.688 9.30597 300.619 9.3485 300.463 9.37842C300.398 9.39102 300.31 9.38787 300.237 9.39259C299.932 9.40992 299.628 9.42881 299.324 9.44298C299.162 9.45085 299.01 9.47449 298.992 9.53276C298.978 9.57213 299.144 9.60677 299.301 9.60362C299.531 9.59889 299.762 9.5863 299.983 9.56582C300.375 9.53118 300.716 9.54062 301.034 9.63984C301.26 9.70913 301.246 9.68395 301.486 9.88868C301.546 9.94065 301.726 9.94537 301.883 9.94222C302.261 9.93434 302.436 9.95797 302.404 10.0068C302.362 10.0666 302.229 10.0855 302.058 10.0934C301.754 10.106 301.449 10.1265 301.145 10.1438C301.071 10.1485 300.988 10.158 300.919 10.1548C300.85 10.1517 300.785 10.1328 300.725 10.1186C300.596 10.0887 300.486 10.043 300.347 10.032C300.209 10.021 300.048 10.0446 299.895 10.054C299.743 10.0619 299.582 10.0855 299.444 10.0745C299.305 10.0635 299.19 10.0162 299.066 9.98789C299.006 9.97372 298.932 9.95166 298.872 9.95323C298.568 9.96583 298.263 9.98631 297.959 10.0021C297.585 10.0225 297.585 10.0225 297.134 9.9249C297.005 9.89655 296.871 9.89813 296.7 9.91073C296.331 9.93592 296.327 9.93119 295.654 9.83985C295.589 9.8304 295.511 9.81938 295.446 9.8241C294.759 9.86032 294.077 9.89969 293.394 9.93749C292.809 9.97056 292.809 9.97057 292.486 10.1281C292.246 10.2446 292.242 10.2446 292.477 10.2981C292.666 10.3422 292.836 10.4068 293.044 10.4304C293.237 10.4525 293.477 10.3816 293.689 10.454C293.795 10.4903 293.934 10.5296 294.067 10.5359C294.279 10.5438 294.505 10.4981 294.708 10.5674C294.81 10.6021 294.962 10.6383 295.091 10.6399C295.317 10.643 295.548 10.6178 295.773 10.6068C295.843 10.6037 295.921 10.6037 295.986 10.6115C296.055 10.621 296.115 10.6399 296.175 10.6556C296.359 10.7092 296.557 10.7344 296.797 10.7076C297.189 10.6635 297.539 10.6855 297.844 10.7863C297.885 10.8005 297.987 10.8021 298.051 10.7958C298.217 10.78 298.36 10.7785 298.485 10.8084C298.535 10.821 298.609 10.843 298.6 10.8572C298.586 10.8808 298.531 10.9123 298.471 10.9202C298.037 10.9737 297.572 10.9801 297.124 11.0084C297.064 11.0115 296.991 10.9911 296.931 10.9769C296.802 10.9485 296.691 10.9013 296.553 10.8903C296.414 10.8793 296.253 10.8997 296.101 10.9076C295.949 10.9155 295.787 10.9391 295.649 10.9297C295.511 10.9186 295.382 10.8793 295.271 10.8446C295.142 10.8052 295.017 10.8005 294.847 10.8163C294.625 10.8367 294.395 10.8399 294.169 10.8509C294.044 10.821 293.92 10.7879 293.791 10.7596C293.731 10.7454 293.657 10.7281 293.593 10.7296C293.288 10.7422 292.984 10.7611 292.68 10.7785C292.375 10.7958 292.375 10.7958 291.859 10.6982C291.799 10.6871 291.72 10.6745 291.656 10.6777C291.273 10.6966 290.895 10.7202 290.512 10.7391C290.365 10.747 290.231 10.7249 290.111 10.6824C289.996 10.6399 289.858 10.6162 289.715 10.6241C289.106 10.6572 288.498 10.6887 287.889 10.7281C287.645 10.7438 287.437 10.7296 287.271 10.673C287.077 10.6084 286.861 10.6241 286.635 10.6367C286.123 10.6682 286.118 10.6666 285.791 10.5863C285.726 10.5706 285.662 10.5407 285.602 10.5422C285.072 10.5659 284.537 10.5879 284.011 10.6257C283.735 10.6462 283.587 10.5911 283.403 10.5501C283.338 10.5359 283.269 10.506 283.214 10.5092C282.831 10.5265 282.448 10.5422 282.075 10.5737C281.701 10.6052 281.558 10.4588 281.277 10.4604C280.894 10.4619 280.516 10.4981 280.138 10.5202C279.834 10.5375 279.53 10.5548 279.225 10.5722C278.921 10.5895 278.617 10.6037 278.312 10.6241C278.151 10.6351 278.031 10.621 277.897 10.5816C277.727 10.5296 277.524 10.4887 277.339 10.4415C277.058 10.3737 277.058 10.3737 276.717 10.3926C276.643 10.3973 276.565 10.4005 276.491 10.4052C275.933 10.4399 275.933 10.4367 275.223 10.3375C275.191 10.3328 275.108 10.3501 275.076 10.3627C274.979 10.4037 274.891 10.4477 274.804 10.4903C274.679 10.4651 274.527 10.4509 274.444 10.4147C274.209 10.3123 273.84 10.4525 273.6 10.3517C273.512 10.3139 273.36 10.2808 273.222 10.2714C273.079 10.2619 272.918 10.284 272.77 10.2934C272.387 10.317 272.387 10.3155 272.06 10.4556C271.894 10.5249 271.654 10.5123 271.438 10.5281C271.212 10.5454 270.995 10.5548 270.806 10.4903C270.635 10.432 270.428 10.4178 270.184 10.4367C269.884 10.4603 269.575 10.4745 269.271 10.4887C269.206 10.4918 269.128 10.484 269.063 10.4745C268.358 10.3816 268.358 10.38 268.016 10.4005C267.864 10.41 267.707 10.4131 267.56 10.4273C267.311 10.4525 267.122 10.4194 266.942 10.369C266.882 10.3532 266.813 10.3233 266.753 10.3249C266.449 10.3328 266.149 10.347 265.849 10.3611C265.619 10.3722 265.388 10.3785 265.167 10.4005C264.798 10.4367 264.618 10.3343 264.365 10.2871C263.987 10.3076 263.604 10.3218 263.226 10.3501C263.051 10.3627 262.935 10.358 262.802 10.3202C262.631 10.2729 262.474 10.2194 262.198 10.243C261.829 10.2745 261.441 10.2855 261.063 10.3044C260.81 10.2556 260.625 10.1564 260.261 10.1926C260.04 10.2147 259.805 10.2194 259.579 10.232C259.274 10.2493 258.97 10.2651 258.666 10.284C258.338 10.3029 258.343 10.2981 257.84 10.2052C257.55 10.1501 257.25 10.2115 256.955 10.221C256.724 10.2288 256.609 10.3013 256.665 10.3942C256.72 10.4871 256.595 10.5596 256.383 10.5722C255.853 10.6021 255.318 10.6336 254.788 10.6603C254.723 10.6635 254.645 10.6525 254.585 10.6414C254.018 10.5422 254.018 10.5438 253.764 10.558C253.386 10.5816 252.999 10.5942 252.626 10.6241C252.367 10.6446 252.178 10.6115 252.012 10.558C251.883 10.517 251.763 10.5076 251.597 10.517C249.771 10.6226 247.946 10.7202 246.124 10.8289C245.852 10.8446 245.696 10.7989 245.511 10.7564C245.447 10.7423 245.387 10.7123 245.322 10.7123C245.17 10.7123 245.018 10.7265 244.866 10.736C244.183 10.7737 243.501 10.8194 242.814 10.8478C242.523 10.8604 242.445 10.9328 242.32 10.9927C242.224 11.0383 242.113 11.0572 241.942 11.0635C241.776 11.0698 241.656 11.0619 241.527 11.021C241.361 10.9674 241.172 10.9344 240.914 10.9564C240.614 10.9816 240.31 10.9927 240.001 11.01C239.844 11.0178 239.724 11.0462 239.674 11.1029C239.665 11.1123 239.761 11.136 239.817 11.1501C240.001 11.1974 240.176 11.2525 240.384 11.2856C240.596 11.3186 240.826 11.2808 241.048 11.2714C241.126 11.2682 241.2 11.2588 241.274 11.2604C241.343 11.2619 241.426 11.2698 241.477 11.284C241.716 11.3549 241.97 11.4037 242.302 11.3612C242.588 11.3816 242.735 11.5124 243.1 11.4777C243.321 11.4572 243.552 11.4478 243.782 11.4399C243.842 11.4383 243.906 11.4667 243.971 11.4809C244.155 11.5202 244.303 11.5832 244.58 11.5564C244.875 11.5281 245.188 11.5234 245.488 11.5013C245.654 11.4887 245.774 11.4998 245.903 11.5407C246.069 11.5927 246.258 11.632 246.516 11.6068C246.738 11.5848 246.973 11.5801 247.199 11.5659C247.494 11.5486 247.494 11.5501 248.019 11.6478C248.079 11.6588 248.158 11.6714 248.222 11.6683C248.605 11.6494 248.983 11.6257 249.366 11.6068C249.513 11.599 249.656 11.6194 249.758 11.6651C249.799 11.684 249.785 11.7155 249.799 11.7423C249.038 11.7848 248.278 11.821 247.521 11.873C247.235 11.8935 247.106 11.8289 246.917 11.7927C246.853 11.7801 246.784 11.7533 246.724 11.7565C246.189 11.7832 245.659 11.8116 245.128 11.8462C244.962 11.8572 244.838 11.8509 244.713 11.8053C244.395 11.684 244.008 11.7501 243.648 11.7675C243.372 11.7801 243.284 11.8289 243.316 11.9328C243.358 12.0557 243.524 12.0935 243.948 12.0714C244.1 12.0636 244.252 12.0525 244.404 12.0462C244.552 12.0399 244.686 12.0604 244.806 12.1029C244.921 12.1454 245.059 12.1675 245.202 12.1612C245.506 12.147 245.815 12.1328 246.11 12.1092C246.355 12.0903 246.558 12.1061 246.728 12.1643C246.917 12.2289 247.139 12.2147 247.36 12.2006C247.876 12.1691 247.881 12.1706 248.204 12.2494C248.268 12.2651 248.333 12.2951 248.393 12.2935C248.923 12.2699 249.458 12.2494 249.979 12.2116C250.251 12.1927 250.408 12.2431 250.588 12.284C250.652 12.2982 250.717 12.3297 250.777 12.3266C251.159 12.3092 251.542 12.2919 251.915 12.262C252.091 12.2478 252.197 12.2572 252.34 12.295C252.681 12.388 252.69 12.3848 253.174 12.3549C253.322 12.3454 253.483 12.3281 253.621 12.3407C253.76 12.3533 253.87 12.399 254 12.4273C254.059 12.4399 254.133 12.4573 254.198 12.4541C254.502 12.4415 254.806 12.4226 255.111 12.4053C255.397 12.388 255.397 12.3896 255.931 12.4872C256.148 12.5281 256.374 12.4935 256.591 12.4809C256.826 12.4667 257.038 12.4667 257.218 12.5281C257.398 12.5896 257.614 12.5864 257.845 12.5738C258.062 12.5612 258.283 12.5266 258.504 12.5691C259.012 12.6667 259.012 12.6683 259.325 12.6494C259.782 12.6226 260.233 12.5974 260.694 12.5738C260.754 12.5706 260.833 12.5896 260.893 12.6022C261.022 12.6305 261.132 12.6777 261.271 12.6888C261.409 12.7014 261.57 12.6825 261.718 12.673C262.193 12.6431 262.225 12.6321 262.543 12.736C262.811 12.8211 263.143 12.6982 263.392 12.7959C263.535 12.851 263.728 12.8951 263.996 12.8683C264.217 12.8462 264.448 12.8399 264.678 12.8273C265.042 12.8069 265.042 12.8085 265.503 12.903C265.563 12.9156 265.642 12.9313 265.702 12.9281C266.006 12.9155 266.315 12.9045 266.61 12.8762C266.956 12.8431 267.177 12.903 267.435 12.9612C267.638 13.0069 267.878 12.9691 268.095 12.9533C268.33 12.9376 268.542 12.9423 268.717 13.0037C268.902 13.0667 269.118 13.0589 269.349 13.0463C269.566 13.0352 269.787 12.999 270.008 13.0431C270.483 13.1407 270.483 13.1407 270.829 13.1218C271.133 13.1045 271.438 13.0856 271.742 13.073C271.802 13.0699 271.876 13.0904 271.936 13.1045C272.065 13.1329 272.175 13.1801 272.314 13.1912C272.452 13.2022 272.613 13.1817 272.765 13.1738C272.918 13.166 273.079 13.1423 273.217 13.1518C273.356 13.1612 273.485 13.2006 273.595 13.2353C273.725 13.2762 273.844 13.2809 274.02 13.2652C274.241 13.2447 274.471 13.24 274.697 13.2289C274.822 13.2589 274.951 13.2888 275.071 13.3219C275.195 13.3565 275.329 13.3534 275.5 13.3423C276.067 13.3045 276.071 13.3093 276.546 13.4069C276.763 13.451 276.989 13.4148 277.206 13.4038C277.436 13.3912 277.653 13.3849 277.833 13.4479C278.008 13.5077 278.225 13.5156 278.455 13.4967C278.603 13.4841 278.76 13.4762 278.912 13.4715C278.981 13.4699 279.064 13.4762 279.115 13.4888C279.359 13.5549 279.599 13.6148 279.935 13.5723C280.23 13.5849 280.378 13.714 280.733 13.6888C281.033 13.6668 281.346 13.662 281.641 13.6337C281.913 13.6085 282.107 13.6526 282.245 13.7077C282.494 13.8054 282.845 13.6731 283.094 13.7691C283.237 13.8243 283.421 13.8683 283.698 13.8447C284.002 13.8195 284.099 13.8526 284.186 13.9518C284.237 14.0085 284.228 14.0542 284.136 14.0983C284.044 14.1439 283.942 14.1361 283.795 14.0841C283.624 14.0258 283.421 14.0148 283.177 14.0274C282.937 14.04 282.789 13.9581 282.591 13.9266C282.393 13.8935 282.158 13.9487 281.95 13.9061C281.462 13.8069 281.462 13.8069 281.13 13.8258C280.904 13.8384 280.668 13.8447 280.447 13.8668C280.184 13.8935 280.014 13.8447 279.834 13.8006C279.769 13.7849 279.705 13.7549 279.649 13.7565C279.119 13.7801 278.584 13.8022 278.059 13.8416C277.782 13.862 277.635 13.8053 277.45 13.766C277.386 13.7518 277.316 13.7235 277.261 13.7266C276.805 13.7487 276.353 13.777 275.896 13.8038C275.809 13.8463 275.712 13.8872 275.629 13.9329C275.541 13.9801 275.421 14.0006 275.246 13.9991C274.956 13.9991 274.67 14.0652 274.379 13.9817C274.08 13.8967 274.057 13.9014 273.766 13.9219C273.397 13.9487 273.005 13.9424 272.659 14.0038C272.599 14.0148 272.535 14.0447 272.535 14.0668C272.53 14.0809 272.627 14.1014 272.687 14.114C272.89 14.1518 273.125 14.0967 273.328 14.1361C273.462 14.1613 273.572 14.1991 273.706 14.2258C273.761 14.2368 273.844 14.2353 273.918 14.2337C273.997 14.2321 274.07 14.2211 274.144 14.2227C274.213 14.2243 274.287 14.2337 274.342 14.2479C274.596 14.3077 274.863 14.3628 275.089 14.4337C275.311 14.503 275.518 14.4558 275.739 14.4526C276.625 14.5629 276.625 14.5644 277.22 14.5298C277.367 14.5219 277.519 14.5125 277.671 14.514C277.736 14.514 277.796 14.5424 277.86 14.5581C278.045 14.6054 278.22 14.6479 278.478 14.6227C278.7 14.6006 278.935 14.5959 279.161 14.5817C279.465 14.5644 279.465 14.5644 279.981 14.6636C280.111 14.6888 280.249 14.6857 280.415 14.6731C280.558 14.6621 280.705 14.6857 280.807 14.7314C280.848 14.7503 280.834 14.7818 280.848 14.8085C280.392 14.8337 279.931 14.8511 279.488 14.8889C279.202 14.9125 279.073 14.8448 278.884 14.8085C278.819 14.7959 278.75 14.7692 278.69 14.7723C278.239 14.7959 277.787 14.8227 277.335 14.8542C277.28 14.8573 277.21 14.8936 277.206 14.9156C277.197 14.9566 277.312 14.9959 277.478 14.9944C277.699 14.9928 277.916 14.966 278.114 15.0306C278.28 15.0873 278.487 15.1125 278.732 15.0873C278.879 15.0731 279.036 15.0731 279.184 15.0605C279.576 15.0227 279.931 15.0306 280.226 15.1377C280.452 15.166 280.673 15.1393 280.89 15.1251C281.051 15.1141 281.208 15.103 281.323 15.1329C281.568 15.1959 281.807 15.2589 282.144 15.2164C282.508 15.2605 282.785 15.3534 283.089 15.429C283.232 15.4652 283.343 15.4857 283.509 15.4621C283.578 15.4527 283.661 15.4526 283.735 15.4479C283.887 15.44 284.048 15.4164 284.186 15.4259C284.325 15.4369 284.44 15.4826 284.565 15.5109C284.625 15.5251 284.694 15.5487 284.754 15.5471C284.984 15.5393 285.21 15.5235 285.436 15.5109C285.662 15.4999 285.888 15.4889 286.114 15.4778C286.303 15.5188 286.496 15.5597 286.685 15.6007C286.99 15.5834 287.294 15.566 287.594 15.5503C287.93 15.5314 287.93 15.533 288.415 15.6306C288.631 15.6747 288.862 15.6463 289.069 15.6259C289.415 15.5928 289.646 15.6527 289.89 15.7157C289.941 15.7283 290.033 15.7361 290.093 15.7298C290.333 15.7078 290.54 15.7251 290.715 15.7834C290.84 15.8243 290.964 15.8432 291.116 15.8353C291.647 15.8054 292.177 15.7739 292.707 15.7471C292.772 15.744 292.845 15.7582 292.905 15.7708C293.376 15.8668 293.38 15.8716 293.726 15.8464C294.035 15.8243 294.321 15.8149 294.565 15.9015C294.616 15.9204 294.694 15.9472 294.75 15.9456C295.128 15.9298 295.511 15.9125 295.884 15.8857C296.055 15.8731 296.175 15.8779 296.308 15.9141C296.479 15.9598 296.631 16.0149 296.912 15.9944C297.692 15.9361 297.696 15.9456 298.618 16.0542C298.683 16.0621 298.77 16.0495 298.844 16.0432C299.001 16.0275 299.116 16.0495 299.255 16.0857C299.563 16.1676 299.573 16.1629 299.868 16.1456C300.094 16.1314 300.329 16.1283 300.55 16.1046C300.891 16.07 301.117 16.1314 301.371 16.1897C301.574 16.2354 301.809 16.1976 302.026 16.1834C302.261 16.1676 302.473 16.1723 302.648 16.2322C302.768 16.2731 302.897 16.2952 303.049 16.2873C303.579 16.259 304.11 16.2275 304.64 16.1991C304.705 16.196 304.783 16.2086 304.843 16.2196C305.368 16.3172 305.368 16.322 305.89 16.2858C306.056 16.2747 306.194 16.2716 306.318 16.3046C306.438 16.3361 306.567 16.3661 306.692 16.396C306.918 16.385 307.148 16.3818 307.37 16.3629C307.54 16.3487 307.66 16.3551 307.794 16.3881C307.969 16.4306 308.117 16.5046 308.393 16.4684C308.536 16.4511 308.702 16.4558 308.845 16.4401C309.016 16.4196 309.131 16.4322 309.265 16.4732C309.431 16.522 309.601 16.5724 309.869 16.5472C310.164 16.5188 310.477 16.5141 310.777 16.492C310.943 16.4795 311.058 16.4921 311.192 16.533C311.358 16.585 311.547 16.618 311.805 16.5976C312.331 16.5582 312.335 16.5661 312.847 16.6653C312.976 16.6905 313.115 16.6873 313.281 16.6747C313.424 16.6637 313.571 16.6873 313.672 16.733C313.769 16.7834 313.76 16.8149 313.769 16.8417ZM272.683 2.63802C272.53 2.64589 272.378 2.65534 272.157 2.51833C272.143 2.49471 272.152 2.46637 272.12 2.44589C272.046 2.40337 271.931 2.37345 271.793 2.36873C271.544 2.36243 271.244 2.41596 271.249 2.45691C271.253 2.49155 271.332 2.52147 271.484 2.54982C271.548 2.56084 271.599 2.57974 271.659 2.59234C271.834 2.62857 271.972 2.69945 272.226 2.66322C272.18 2.56558 272.203 2.6144 272.226 2.66322C272.203 2.72307 272.272 2.76559 272.438 2.78291C272.484 2.78764 272.553 2.78448 272.59 2.77503C272.733 2.74039 272.756 2.69315 272.65 2.56874C272.632 2.58921 272.646 2.62542 272.687 2.63487C272.729 2.64432 272.83 2.63645 272.881 2.62543C273.01 2.59551 273.074 2.55613 273.042 2.52306C273.024 2.50574 272.936 2.48369 272.881 2.48369C272.784 2.48369 272.696 2.51833 272.683 2.63802ZM309.965 20.9017C309.629 20.9316 309.242 20.9206 308.905 20.982C308.845 20.993 308.785 21.0213 308.78 21.0434C308.776 21.0576 308.868 21.078 308.923 21.0891C309.048 21.1143 309.186 21.1064 309.348 21.0985C309.592 21.0875 309.735 21.1599 309.924 21.1962C309.984 21.2072 310.062 21.215 310.127 21.2119C310.5 21.193 310.869 21.1725 311.243 21.1505C311.307 21.1458 311.376 21.1347 311.432 21.1206C311.616 21.0749 311.598 21.045 311.418 21.0103C311.22 20.9725 311.063 20.9095 310.86 20.8796C310.569 20.8371 310.274 20.8938 309.965 20.9017ZM283.781 22.0513C283.555 22.0639 283.333 22.0765 283.107 22.0891C283.034 22.0938 282.955 22.0954 282.886 22.1017C282.743 22.1127 282.637 22.1458 282.568 22.1978C282.674 22.2387 282.803 22.2623 282.946 22.2576C283.172 22.2482 283.393 22.2277 283.619 22.223C283.864 22.2167 284.007 22.2875 284.196 22.3238C284.256 22.3348 284.329 22.3363 284.399 22.3379C284.74 22.3442 284.947 22.2623 284.883 22.1474C284.837 22.0576 284.661 22.0041 284.449 22.0151C284.228 22.0261 284.002 22.0387 283.781 22.0513ZM311.542 18.574C311.598 18.5472 311.658 18.5283 311.685 18.5047C311.768 18.4244 311.736 18.3646 311.584 18.3016C311.399 18.2244 311.173 18.2764 310.966 18.2842C310.915 18.2858 310.86 18.3189 310.832 18.3394C310.814 18.3535 310.814 18.3835 310.842 18.3913C311.067 18.4543 311.307 18.5126 311.542 18.574ZM271.544 13.9219C271.322 13.9345 271.096 13.9439 270.875 13.9613C270.82 13.966 270.769 13.9959 270.737 14.0164C270.677 14.0542 270.741 14.1061 270.93 14.1109C271.147 14.1172 271.373 14.0904 271.599 14.0778C271.885 14.062 272.055 14.0038 271.949 13.9534C271.848 13.9046 271.71 13.8951 271.544 13.9219ZM28.8356 10.5564C28.9832 10.5485 29.1353 10.5422 29.2829 10.5312C29.4212 10.5202 29.5273 10.4855 29.5965 10.4336C29.4812 10.3926 29.3521 10.3706 29.2091 10.3753C28.9832 10.3848 28.7619 10.3973 28.5406 10.4131C28.4023 10.4225 28.2686 10.4572 28.2363 10.5107C28.204 10.5517 28.5129 10.5753 28.8356 10.5564ZM252.045 10.3139C252.105 10.3281 252.164 10.3564 252.224 10.3564C252.372 10.3564 252.524 10.347 252.662 10.3312C252.722 10.3249 252.768 10.2966 252.796 10.2745C252.815 10.2603 252.81 10.2351 252.782 10.2225C252.649 10.147 252.114 10.1737 252.026 10.2603C252.017 10.2761 252.04 10.2966 252.045 10.3139ZM237.497 1.68995C237.511 1.71515 237.516 1.74034 237.534 1.76554C237.571 1.81279 237.673 1.84744 237.82 1.87106C237.935 1.83169 237.995 1.7876 237.991 1.74036C237.986 1.71516 237.972 1.68995 237.954 1.66475C237.917 1.6175 237.816 1.58287 237.668 1.55925C237.553 1.59704 237.497 1.64113 237.497 1.68995ZM322.198 22.3253C322.156 22.3458 322.115 22.3663 322.069 22.3852C322.193 22.4308 322.309 22.445 322.396 22.4198C322.452 22.4041 322.484 22.3804 322.525 22.36C322.401 22.3143 322.29 22.3017 322.198 22.3253ZM319.33 22.5395C319.39 22.5537 319.445 22.5726 319.51 22.582C319.616 22.5978 319.713 22.571 319.786 22.5143C319.726 22.5001 319.671 22.4812 319.607 22.4718C319.501 22.456 319.404 22.4828 319.33 22.5395ZM321.147 22.2513C321.114 22.2891 321.179 22.3206 321.35 22.3474C321.391 22.3269 321.446 22.308 321.474 22.286C321.52 22.2497 321.442 22.2167 321.276 22.1915C321.23 22.2104 321.188 22.2308 321.147 22.2513ZM311.413 20.5536C311.381 20.5914 311.445 20.6229 311.616 20.6497C311.658 20.6292 311.713 20.6103 311.741 20.5883C311.787 20.552 311.708 20.519 311.542 20.4938C311.496 20.5127 311.455 20.5331 311.413 20.5536ZM298.153 9.40991C298.111 9.43039 298.07 9.45086 298.023 9.46976C298.148 9.51543 298.263 9.5296 298.351 9.5044C298.406 9.48865 298.438 9.46503 298.48 9.44456C298.355 9.39888 298.245 9.38629 298.153 9.40991ZM285.45 3.49789C285.56 3.50891 285.653 3.48687 285.731 3.4286C285.671 3.41443 285.616 3.39553 285.551 3.38608C285.445 3.37033 285.348 3.39711 285.275 3.45381C285.335 3.46955 285.394 3.48371 285.45 3.49789ZM278.704 3.1278C278.663 3.14827 278.621 3.16875 278.575 3.18764C278.7 3.23332 278.815 3.24748 278.902 3.22229C278.958 3.20654 278.99 3.18291 279.032 3.16244C278.907 3.11677 278.796 3.10575 278.704 3.1278ZM232.961 1.68838C232.919 1.70885 232.878 1.72932 232.831 1.74822C232.956 1.79389 233.071 1.80806 233.159 1.78286C233.214 1.76712 233.246 1.74349 233.288 1.72302C233.163 1.67735 233.053 1.66633 232.961 1.68838ZM5.19143 14.5014C5.13149 14.4873 5.0716 14.4731 5.01627 14.4573C4.88256 14.4999 4.84107 14.5392 4.91485 14.5692C4.96095 14.5881 5.03006 14.5991 5.09 14.6133C5.22833 14.5707 5.26059 14.5329 5.19143 14.5014Z" fill="#FFE492"/>
    <path d="M31.933 8.94029C31.4027 8.97021 30.8771 9.00799 30.3469 9.02689C30.0656 9.03634 29.9643 9.10406 29.849 9.16706C29.7568 9.21745 29.6507 9.2332 29.4801 9.24265C28.0415 9.31982 26.6075 9.40171 25.1736 9.48203C24.9938 9.46156 24.9062 9.42849 24.9477 9.38912C24.9707 9.3655 25.0261 9.33242 25.0814 9.32927C26.0635 9.271 27.0409 9.21115 28.0276 9.16548C28.3089 9.15288 28.3873 9.08359 28.5303 9.02689C28.5764 9.00799 28.6133 8.97965 28.6732 8.96862C28.7332 8.95602 28.8208 8.95761 28.8992 8.95446C30.4853 8.86469 32.0714 8.7765 33.6575 8.68674C33.8373 8.70721 33.925 8.74028 33.8835 8.77965C33.8604 8.80327 33.8051 8.83634 33.7497 8.83949C33.1411 8.87257 32.537 8.90564 31.933 8.94029Z" fill="#FFE492"/>
    <path d="M322.258 17.3269C322.018 17.3458 321.714 17.3726 321.465 17.2813C321.345 17.2372 321.216 17.223 321.059 17.2325C320.833 17.2482 320.603 17.2608 320.372 17.2703C320.312 17.2718 320.234 17.2545 320.174 17.2403C320.045 17.212 319.934 17.1647 319.796 17.1521C319.658 17.1395 319.492 17.1742 319.349 17.1663C319.16 17.1553 319.081 17.1128 319.132 17.0734C319.16 17.0513 319.215 17.0198 319.275 17.0151C320.128 16.9569 320.133 16.9569 320.372 17.0135C320.557 17.0576 320.727 17.1065 320.99 17.0797C321.212 17.0576 321.447 17.0529 321.673 17.0387C321.986 17.0198 321.986 17.0214 322.493 17.1206C322.622 17.1458 322.761 17.1443 322.927 17.1301C323.07 17.1191 323.208 17.1443 323.323 17.1868C323.25 17.2403 323.143 17.275 323 17.2844C322.77 17.3002 322.544 17.3112 322.258 17.3269Z" fill="#FFE492"/>
    <path d="M313.77 16.8415C314.351 16.8084 314.936 16.7801 315.517 16.7423C315.757 16.7265 315.946 16.7438 316.112 16.7974C316.292 16.8557 316.495 16.8509 316.716 16.8399C316.854 16.8336 316.988 16.8588 317.08 16.9029C317.117 16.9202 317.108 16.9517 317.122 16.9769C316.615 17.0053 316.103 17.0352 315.591 17.0604C315.531 17.0635 315.457 17.0478 315.402 17.0352C315.278 17.0084 315.171 16.9612 315.038 16.9517C314.752 16.9297 314.466 16.9722 314.176 16.9801C314.037 16.9832 313.904 16.9596 313.811 16.9171C313.774 16.8966 313.784 16.8667 313.77 16.8415Z" fill="#FFE492"/>
    <path d="M103.817 3.30099C104.421 3.26634 105.025 3.23329 105.629 3.19864C105.809 3.22069 105.892 3.25218 105.855 3.29155C105.832 3.31517 105.776 3.34825 105.721 3.3514C104.513 3.42226 103.305 3.48997 102.102 3.55769C101.922 3.53564 101.839 3.50415 101.876 3.46478C101.899 3.44116 101.954 3.40809 102.01 3.40494C102.609 3.36871 103.213 3.33564 103.817 3.30099Z" fill="#FFE492"/>
    <path d="M10.7439 12.0527C10.4718 12.0558 10.186 12.1141 9.88169 12.07C9.82175 12.0621 9.73874 12.0369 9.74335 12.0228C9.75257 11.9991 9.80791 11.9692 9.86785 11.9598C10.1307 11.9204 10.4581 11.9157 10.5918 11.8054C10.6563 11.7487 10.7762 11.7298 10.9376 11.7188C11.1082 11.7062 11.228 11.7109 11.3617 11.744C11.537 11.7865 11.6845 11.8653 11.9612 11.8243C11.975 11.8495 12.0072 11.8779 11.9934 11.9015C11.9795 11.9251 11.9197 11.9472 11.8644 11.9645C11.8136 11.9802 11.7444 11.9944 11.6799 11.9991C11.3755 12.018 11.0712 12.0338 10.7439 12.0527Z" fill="#FFE492"/>
    <path d="M250.541 11.7363C250.767 11.7237 251.003 11.7174 251.224 11.6953C251.399 11.678 251.51 11.689 251.648 11.7268C251.883 11.793 251.897 11.7867 252.473 11.7961C252.538 11.7977 252.616 11.8213 252.653 11.8418C252.676 11.8528 252.644 11.8827 252.616 11.8985C252.575 11.919 252.515 11.9457 252.46 11.9457C252.095 11.9505 251.726 12.0434 251.371 11.9363C251.192 11.8827 250.993 11.8575 250.749 11.8812C250.601 11.8953 250.445 11.9016 250.292 11.9079C250.145 11.9142 249.993 11.8969 249.901 11.8497C249.767 11.7804 249.845 11.7536 250.085 11.7583C250.237 11.7615 250.389 11.7442 250.541 11.7363Z" fill="#FFE492"/>
    <path d="M334.108 22.5913C334.398 22.5756 334.689 22.5567 334.984 22.5441C335.044 22.541 335.118 22.5583 335.173 22.5693C335.394 22.6166 335.362 22.6969 335.371 22.7677C335.376 22.8417 334.864 22.9016 334.647 22.8512C334.407 22.7945 334.191 22.7299 333.859 22.7646C333.73 22.7772 333.578 22.7488 333.495 22.7032C333.37 22.637 333.439 22.6102 333.674 22.615C333.813 22.6181 333.96 22.6008 334.108 22.5913Z" fill="#FFE492"/>
    <path d="M187.724 1.15623C188.024 1.1389 188.323 1.11214 188.623 1.11057C188.798 1.10899 188.886 1.16096 188.844 1.19875C188.821 1.22237 188.766 1.25545 188.711 1.2586C188.111 1.29639 187.512 1.3279 186.912 1.36254C186.737 1.3405 186.65 1.30743 186.691 1.26963C186.714 1.24601 186.769 1.21451 186.825 1.20979C187.125 1.18774 187.424 1.17355 187.724 1.15623Z" fill="#FFE492"/>
    <path d="M328.358 17.4652C328.648 17.4495 328.943 17.4259 329.234 17.418C329.386 17.4148 329.506 17.451 329.524 17.492C329.533 17.5109 329.46 17.544 329.4 17.5518C328.985 17.6054 328.537 17.6117 328.104 17.6385C327.966 17.6463 327.818 17.6211 327.735 17.577C327.611 17.5093 327.68 17.4841 327.915 17.4889C328.062 17.4904 328.21 17.4731 328.358 17.4652Z" fill="#FFE492"/>
    <path d="M258.158 11.9487C258.306 11.9408 258.458 11.9203 258.601 11.9266C258.753 11.9345 258.85 11.9801 258.896 12.0258C258.946 12.0778 258.942 12.1266 258.896 12.1707C258.822 12.2463 258.748 12.2432 258.578 12.1928C258.315 12.114 258.296 12.1235 257.775 12.1266C257.715 12.1266 257.642 12.103 257.595 12.0825C257.526 12.051 257.563 12.0022 257.725 11.9739C257.844 11.9534 258.01 11.9565 258.158 11.9487Z" fill="#FFE492"/>
    <path d="M317.555 16.9487C317.772 16.9361 317.988 16.9157 318.205 16.9157C318.357 16.9141 318.477 16.9503 318.491 16.9897C318.495 17.0086 318.426 17.0401 318.371 17.0495C318.108 17.092 317.813 17.0952 317.527 17.1094C317.393 17.1157 317.246 17.0905 317.163 17.0464C317.038 16.9802 317.112 16.9503 317.338 16.9597C317.407 16.9629 317.481 16.9535 317.555 16.9487Z" fill="#FFE492"/>
    <path d="M283.449 15.0166C283.126 15.0355 282.822 15.0119 282.845 14.9709C282.877 14.9174 283.011 14.8827 283.149 14.8732C283.371 14.8575 283.592 14.8449 283.818 14.8355C283.961 14.8292 284.09 14.8528 284.205 14.8937C284.136 14.9441 284.03 14.9803 283.892 14.9914C283.749 15.0024 283.597 15.0087 283.449 15.0166Z" fill="#FFE492"/>
    <path d="M281.331 14.8148C281.548 14.8022 281.764 14.7818 281.981 14.7818C282.133 14.7802 282.253 14.8164 282.267 14.8558C282.272 14.8747 282.202 14.9062 282.147 14.9156C281.884 14.9581 281.589 14.9613 281.303 14.9755C281.17 14.9818 281.022 14.9566 280.939 14.9125C280.815 14.8463 280.888 14.8164 281.114 14.8259C281.183 14.829 281.257 14.8195 281.331 14.8148Z" fill="#FFE492"/>
    <path d="M255.545 11.936C255.762 11.9234 255.978 11.903 256.195 11.9014C256.347 11.8998 256.467 11.936 256.481 11.9754C256.485 11.9943 256.416 12.0242 256.361 12.0353C256.098 12.0778 255.803 12.0809 255.517 12.0951C255.383 12.1014 255.236 12.0762 255.153 12.0321C255.028 11.966 255.102 11.936 255.328 11.9455C255.397 11.9486 255.471 11.9392 255.545 11.936Z" fill="#FFE492"/>
    <path d="M254.33 11.8431C254.561 11.8305 254.635 11.8226 254.709 11.8226C254.847 11.8226 254.99 11.8415 255.073 11.8872C255.197 11.9533 255.124 11.9722 254.898 11.9754C254.607 11.9785 254.321 12.0116 254.031 12.0179C253.879 12.0211 253.759 11.9832 253.749 11.9439C253.745 11.925 253.814 11.8919 253.869 11.8856C254.063 11.862 254.275 11.8478 254.33 11.8431Z" fill="#FFE492"/>
    <path d="M279.455 2.57821C279.307 2.58608 279.15 2.60813 279.012 2.60026C278.828 2.58923 278.754 2.54672 278.8 2.50735C278.828 2.4853 278.878 2.4538 278.934 2.44908C279.229 2.42703 279.528 2.41284 279.824 2.39709C279.999 2.42072 280.077 2.45379 280.031 2.49316C280.003 2.51521 279.953 2.54513 279.897 2.55143C279.754 2.56718 279.602 2.57033 279.455 2.57821Z" fill="#FFE492"/>
    <path d="M100.51 3.48693C100.653 3.48536 100.782 3.50583 100.893 3.5452C100.824 3.5956 100.722 3.62867 100.584 3.64284C100.515 3.64914 100.436 3.65386 100.363 3.65543C100.22 3.65858 100.091 3.63654 99.98 3.59716C100.049 3.54677 100.155 3.5137 100.289 3.49952C100.358 3.49322 100.437 3.49166 100.51 3.48693Z" fill="#FFE492"/>
    <path d="M326.782 17.459C326.777 17.4133 327.058 17.3614 327.312 17.3629C327.446 17.3645 327.584 17.3866 327.662 17.4291C327.782 17.4937 327.713 17.5189 327.487 17.5141C327.349 17.511 327.201 17.5378 327.063 17.533C326.906 17.5315 326.814 17.4968 326.782 17.459Z" fill="#FFE492"/>
    <path d="M259.494 12.1393C259.489 12.122 259.466 12.1015 259.48 12.0858C259.568 11.9991 260.098 11.9724 260.236 12.048C260.259 12.0621 260.269 12.0858 260.25 12.0999C260.223 12.122 260.172 12.1503 260.117 12.1566C259.974 12.1724 259.826 12.1802 259.679 12.1818C259.614 12.1818 259.554 12.155 259.494 12.1393Z" fill="#FFE492"/>
    <path d="M12.3839 11.8005C11.8398 11.8336 11.8306 11.8304 11.9274 11.7517C12.015 11.6808 12.1764 11.6383 12.4116 11.6383C12.4807 11.6383 12.5545 11.6351 12.6144 11.6414C12.679 11.6493 12.7712 11.665 12.7851 11.6839C12.8127 11.7201 12.7343 11.7595 12.5959 11.7863C12.536 11.7989 12.4576 11.7958 12.3839 11.8005Z" fill="#FFE492"/>
    <path d="M107.322 3.26498C107.161 3.29175 107.022 3.28231 106.921 3.23191C106.819 3.18152 106.981 3.12167 107.262 3.10749C107.336 3.10434 107.414 3.09175 107.483 3.09805C107.553 3.10278 107.622 3.12166 107.663 3.14056C107.737 3.17206 107.691 3.21459 107.543 3.25081C107.483 3.26498 107.396 3.26183 107.322 3.26498Z" fill="#FFE492"/>
    <path d="M325.821 17.3407C325.863 17.3202 325.904 17.2998 325.951 17.2809C326.121 17.3076 326.195 17.3391 326.149 17.3753C326.121 17.3974 326.066 17.4163 326.024 17.4368C325.854 17.41 325.785 17.3769 325.821 17.3407Z" fill="#FFE492"/>
    <path d="M19.6868 29.7289C19.6868 29.71 19.7513 29.6801 19.802 29.6738C19.8989 29.6627 20.0187 29.6848 20.1017 29.7289C20.217 29.7919 20.1479 29.825 19.9358 29.8076C19.7882 29.795 19.6868 29.7635 19.6868 29.7289Z" fill="#FFE492"/>
    <path d="M261.373 10.6729C261.433 10.6871 261.493 10.7012 261.549 10.717C261.47 10.7752 261.373 10.8004 261.272 10.7847C261.207 10.7752 261.152 10.7563 261.092 10.7422C261.17 10.6839 261.263 10.6619 261.373 10.6729Z" fill="#FFE492"/>
    <path d="M259.777 10.6019C259.869 10.5782 259.98 10.5909 260.109 10.6365C260.067 10.657 260.03 10.6806 259.98 10.6964C259.892 10.7216 259.777 10.709 259.652 10.6617C259.689 10.6428 259.731 10.6223 259.777 10.6019Z" fill="#FFE492"/>
    <path d="M258.553 10.6713C258.613 10.6854 258.673 10.6996 258.728 10.7154C258.65 10.7736 258.558 10.7988 258.452 10.7831C258.387 10.7736 258.332 10.7547 258.272 10.7405C258.35 10.6823 258.443 10.6587 258.553 10.6713Z" fill="#FFE492"/>
    <path d="M257.657 10.5878C257.726 10.6193 257.689 10.6571 257.555 10.6996C257.495 10.6854 257.426 10.6744 257.38 10.6555C257.306 10.6256 257.343 10.5862 257.481 10.5437C257.537 10.5594 257.597 10.5736 257.657 10.5878Z" fill="#FFE492"/>
    </svg>
    