<svg width="335" height="26" viewBox="0 0 335 26" fill="none" xmlns="http://www.w3.org/2000/svg">
<path d="M313.096 13.5011C312.64 13.5225 312.18 13.5372 311.734 13.5692C311.444 13.5893 311.32 13.5305 311.126 13.4998C311.062 13.4891 310.993 13.4677 310.933 13.4704C310.482 13.4917 310.031 13.5158 309.58 13.5398C309.442 13.592 309.354 13.6614 309.143 13.6868C308.936 13.7109 308.692 13.7109 308.462 13.7229C308.158 13.7376 307.854 13.7523 307.55 13.7657C307.399 13.7723 307.274 13.7977 307.224 13.8458C307.214 13.8539 307.316 13.8739 307.371 13.8859C307.555 13.926 307.734 13.9714 307.937 14.0022C308.13 14.0316 308.37 13.9835 308.577 14.0209C309.041 14.1051 309.046 14.1037 309.4 14.0877C309.704 14.073 310.008 14.057 310.312 14.0463C310.371 14.0436 310.44 14.0636 310.505 14.0743C310.698 14.1037 310.822 14.1705 311.108 14.1451C311.324 14.1251 311.563 14.1211 311.789 14.1104C311.978 14.1492 312.152 14.1932 312.355 14.224C312.544 14.2534 312.599 14.2761 312.498 14.3148C312.406 14.3509 312.277 14.3656 312.106 14.3683C311.955 14.3696 311.803 14.3816 311.651 14.3883C311.573 14.3923 311.499 14.395 311.425 14.399C311.135 14.4137 311.135 14.4137 310.606 14.3282C310.399 14.2948 310.164 14.3416 309.966 14.3095C309.833 14.2881 309.718 14.2561 309.589 14.2333C309.534 14.224 309.446 14.2226 309.377 14.2253C309.147 14.2347 308.917 14.2413 308.696 14.2587C308.54 14.2707 308.448 14.3082 308.466 14.3456C308.471 14.3603 308.581 14.3817 308.646 14.383C308.793 14.3857 308.949 14.367 309.092 14.3763C309.23 14.3857 309.373 14.4124 309.474 14.4418C309.681 14.5032 309.916 14.4485 310.114 14.4645C310.321 14.4819 310.491 14.5353 310.689 14.5674C310.74 14.5754 310.836 14.562 310.914 14.558C311.14 14.5487 311.366 14.5407 311.591 14.5313C311.78 14.5701 311.982 14.6048 312.152 14.6489C312.461 14.7291 312.792 14.7598 313.193 14.721C313.418 14.6997 313.639 14.7077 313.818 14.7598C314.002 14.8132 314.214 14.8079 314.449 14.7972C314.665 14.7865 314.886 14.7571 315.107 14.7945C315.586 14.8774 315.59 14.8814 316.156 14.8493C316.327 14.84 316.455 14.8373 316.584 14.868C316.704 14.8961 316.833 14.9201 316.957 14.9469C317.183 14.9375 317.413 14.9282 317.638 14.9175C317.928 14.9028 318.089 14.9215 318.158 14.9963C318.2 15.0417 318.218 15.0832 318.319 15.1139C318.439 15.1513 318.568 15.15 318.743 15.1393C318.908 15.1299 319.028 15.1152 319.097 15.0671C319.125 15.0471 319.18 15.0284 319.23 15.0123C319.272 15.0003 319.336 14.9816 319.373 14.9843C319.442 14.9896 319.534 15.0043 319.557 15.0217C319.783 15.1834 319.783 15.1847 320.013 15.2315C320.266 15.2836 320.528 15.3304 320.758 15.3891C320.965 15.4413 321.173 15.4186 321.398 15.4186C321.568 15.4186 321.679 15.4533 321.665 15.488C321.656 15.5081 321.591 15.5375 321.536 15.5401C321.085 15.5669 320.63 15.5896 320.174 15.6083C320.119 15.611 320.05 15.5869 319.985 15.5749C319.856 15.5508 319.741 15.5134 319.603 15.5054C319.465 15.4974 319.304 15.5174 319.152 15.5241C319 15.5308 318.839 15.5482 318.701 15.5375C318.563 15.5268 318.453 15.488 318.324 15.4626C318.264 15.4506 318.181 15.4333 318.131 15.4373C317.795 15.4693 317.546 15.4252 317.307 15.3664C317.256 15.3544 317.169 15.3464 317.104 15.3491C316.571 15.3718 316.041 15.3985 315.507 15.4239C315.291 15.4346 315.116 15.3878 315.07 15.309C315.047 15.2649 315.001 15.2208 315.001 15.1767C315.001 15.0965 314.748 15.0524 314.564 15.0618C314.26 15.0751 313.952 15.0858 313.653 15.1059C313.409 15.1219 313.202 15.1059 313.036 15.0578C312.843 15.003 312.622 15.0137 312.401 15.0284C312.235 15.0391 312.189 15.0832 312.198 15.1941C312.208 15.2836 312.129 15.3116 311.83 15.3263C311.453 15.3451 311.071 15.3638 310.689 15.3785C310.629 15.3811 310.56 15.3584 310.5 15.3464C310.371 15.3223 310.256 15.2836 310.118 15.2756C309.98 15.2662 309.819 15.2863 309.667 15.2943C309.515 15.301 309.354 15.3197 309.216 15.3103C309.078 15.301 308.963 15.2609 308.839 15.2355C308.779 15.2235 308.705 15.2061 308.646 15.2088C308.342 15.2194 308.038 15.2355 307.734 15.2502C307.394 15.2662 307.394 15.2662 306.911 15.1834C306.69 15.146 306.469 15.1754 306.253 15.1861C306.022 15.1967 305.806 15.2021 305.627 15.1486C305.507 15.1139 305.374 15.0925 305.231 15.0992C304.849 15.1152 304.472 15.1353 304.09 15.1513C304.025 15.154 303.938 15.1473 303.887 15.1353C303.643 15.0792 303.404 15.0351 303.063 15.0631C302.769 15.0872 302.451 15.0885 302.157 15.1112C301.996 15.1232 301.922 15.166 301.954 15.1994C301.973 15.2168 302.069 15.2368 302.134 15.2368C302.281 15.2382 302.442 15.2181 302.58 15.2261C302.865 15.2422 303.008 15.3544 303.381 15.3237C303.602 15.305 303.832 15.2983 304.062 15.2929C304.122 15.2916 304.186 15.317 304.251 15.3304C304.435 15.3664 304.596 15.4132 304.863 15.3891C305.084 15.3704 305.318 15.3651 305.544 15.3544C305.903 15.337 305.903 15.3384 306.368 15.4199C306.589 15.4586 306.809 15.4279 307.026 15.4186C307.187 15.4119 307.339 15.3985 307.467 15.4172C307.665 15.4453 307.808 15.5094 308.052 15.5054C308.282 15.5014 308.508 15.4827 308.738 15.476C308.88 15.472 309.014 15.4934 309.129 15.5295C309.249 15.5655 309.377 15.5816 309.534 15.5735C309.759 15.5629 309.989 15.5495 310.22 15.5428C310.284 15.5415 310.358 15.5535 310.418 15.5642C310.546 15.5882 310.671 15.6163 310.795 15.6417C311.02 15.6337 311.25 15.631 311.471 15.615C311.642 15.6029 311.761 15.6083 311.899 15.635C312.074 15.6711 312.217 15.7352 312.502 15.7045C312.645 15.6898 312.811 15.6938 312.953 15.6804C313.128 15.6631 313.248 15.6698 313.372 15.7098C313.607 15.786 313.901 15.7873 314.205 15.7579C314.536 15.7259 314.785 15.7633 315.033 15.8221C315.296 15.8836 315.296 15.8822 315.498 16.0305C315.558 16.0733 315.728 16.0933 315.871 16.0853C316.11 16.072 316.317 16.0786 316.492 16.1294C316.676 16.1842 316.897 16.1775 317.123 16.1628C317.422 16.1428 317.721 16.1254 317.965 16.2029C318.085 16.2403 318.213 16.2497 318.375 16.2403C318.83 16.2163 319.29 16.2016 319.737 16.1722C320.008 16.1535 320.165 16.1962 320.349 16.2323C320.597 16.2817 320.869 16.3258 320.869 16.4314C320.869 16.4488 320.933 16.4688 320.988 16.4822C321.108 16.5102 321.237 16.5343 321.361 16.561C321.545 16.6011 321.725 16.6345 321.978 16.6131C322.199 16.5957 322.434 16.5904 322.659 16.5784C322.885 16.5663 323.092 16.5597 323.294 16.6104C323.529 16.6679 323.777 16.7227 324.044 16.7654C324.233 16.7962 324.482 16.7441 324.684 16.7855C324.808 16.8109 324.928 16.8403 325.061 16.8616C325.117 16.871 325.204 16.8643 325.278 16.8616C325.43 16.8563 325.586 16.8523 325.733 16.8389C325.904 16.8242 326.032 16.8269 326.161 16.8577C326.281 16.8857 326.401 16.9245 326.539 16.9325C326.746 16.9445 326.976 16.8911 327.183 16.9525C327.289 16.9832 327.422 17.0126 327.56 17.022C327.698 17.0314 327.859 17.0113 328.007 17.0126C328.071 17.0126 328.149 17.034 328.186 17.0514C328.209 17.0607 328.177 17.0861 328.145 17.0995C328.103 17.1155 328.044 17.1369 327.984 17.1396C327.528 17.1636 327.072 17.1837 326.617 17.2064C326.345 17.2198 326.345 17.2198 325.798 17.1356C325.669 17.1155 325.526 17.1195 325.365 17.1289C325.149 17.1409 324.928 17.1636 324.702 17.1396C324.408 17.0487 324.044 17.0407 323.658 17.0754C323.497 17.0901 323.349 17.0901 323.23 17.0648C322.977 17.014 322.71 16.9672 322.484 16.9071C322.309 16.8603 322.226 16.8563 322.153 16.9204C322.13 16.9405 322.107 16.9619 322.111 16.9806C322.139 17.0474 322.19 17.1129 322.217 17.1797C322.226 17.1984 322.19 17.2198 322.167 17.2398C322.093 17.2959 321.996 17.2919 321.835 17.2451C321.674 17.1984 321.481 17.1676 321.223 17.189C321.002 17.2077 320.763 17.2051 320.542 17.2251C320.202 17.2545 319.962 17.2117 319.718 17.1543C319.668 17.1423 319.58 17.1356 319.516 17.1383C318.83 17.169 318.149 17.2037 317.463 17.2345C317.316 17.2411 317.183 17.2211 317.068 17.185C316.948 17.1489 316.814 17.1302 316.667 17.1369C316.06 17.165 315.452 17.1904 314.845 17.2251C314.596 17.2398 314.398 17.2224 314.228 17.1757C314.099 17.1409 313.979 17.1302 313.818 17.1342C313.644 17.1382 313.519 17.1516 313.432 17.1904C313.349 17.2278 313.409 17.2505 313.593 17.2799C313.791 17.3119 313.975 17.3534 314.164 17.3908C314.315 17.3855 314.467 17.3747 314.615 17.3761C314.679 17.3761 314.739 17.4001 314.803 17.4135C314.987 17.4523 315.158 17.491 315.42 17.4696C315.641 17.4509 315.876 17.4469 316.101 17.4349C316.414 17.4202 316.414 17.4202 316.92 17.5044C317.049 17.5257 317.187 17.5244 317.353 17.5124C317.495 17.503 317.643 17.5217 317.744 17.5618C317.785 17.5779 317.772 17.6046 317.684 17.6928C317.684 17.7583 317.781 17.7289 317.813 17.6861C317.864 17.6246 317.767 17.6046 317.583 17.638C317.454 17.662 317.39 17.6968 317.422 17.7248C317.44 17.7395 317.528 17.7583 317.684 17.6928C318.089 17.6126 318.398 17.6032 318.692 17.5819C318.867 17.5698 318.977 17.5752 319.115 17.6099C319.281 17.6513 319.447 17.6954 319.718 17.6741C320.013 17.65 320.326 17.6473 320.625 17.6273C320.901 17.6086 321.044 17.6674 321.219 17.7021C321.43 17.7435 321.665 17.6968 321.858 17.7208C322.061 17.7449 322.203 17.8037 322.438 17.8144C322.779 17.7783 322.995 17.8451 323.253 17.8892C323.455 17.9226 323.694 17.8932 323.911 17.8785C324.155 17.8625 324.357 17.8772 324.527 17.9253C324.721 17.9801 324.937 17.968 325.158 17.956C325.673 17.9293 325.692 17.9253 325.991 17.9988C326.207 18.0522 326.414 18.0282 326.631 18.0215C326.819 18.0576 327.003 18.0963 327.201 18.1284C327.252 18.1364 327.349 18.123 327.427 18.119C327.652 18.1083 327.882 18.0976 328.108 18.087C328.26 18.0803 328.421 18.0602 328.559 18.0682C328.697 18.0776 328.812 18.1164 328.936 18.1417C329.061 18.1671 329.189 18.1925 329.309 18.2192C329.493 18.2593 329.668 18.2927 329.926 18.2727C330.147 18.2553 330.377 18.25 330.607 18.2379C330.897 18.2232 330.888 18.2273 331.426 18.3074C331.716 18.3515 332.015 18.2981 332.31 18.2927C332.457 18.2901 332.6 18.3048 332.701 18.3435C332.742 18.3595 332.728 18.3863 332.742 18.409C331.983 18.4451 331.219 18.4758 330.469 18.5199C330.179 18.5373 330.027 18.4891 329.871 18.4491C329.613 18.3849 329.272 18.4785 329.028 18.3956C328.881 18.3462 328.669 18.3181 328.416 18.3422C328.269 18.3555 328.113 18.3542 327.961 18.3662C327.574 18.3956 327.22 18.397 326.911 18.3048C326.806 18.2727 326.654 18.2553 326.543 18.2246C326.414 18.1912 326.29 18.1725 326.138 18.1791C325.453 18.2112 324.771 18.2433 324.09 18.278C324.03 18.2807 323.971 18.3007 323.92 18.3154C323.791 18.3529 323.833 18.3823 324.04 18.4063C324.109 18.4143 324.164 18.4317 324.228 18.445C324.353 18.4704 324.468 18.5105 324.606 18.5199C324.744 18.5292 324.905 18.5105 325.057 18.5039C325.209 18.4972 325.37 18.4771 325.508 18.4851C325.646 18.4945 325.761 18.5333 325.89 18.5573C325.95 18.5693 326.023 18.5894 326.083 18.588C326.387 18.58 326.686 18.5653 326.99 18.5533C327.178 18.5894 327.339 18.6415 327.565 18.6535C327.708 18.6615 327.859 18.6468 328.007 18.6495C328.071 18.6508 328.154 18.6709 328.186 18.6882C328.205 18.6989 328.145 18.7257 328.099 18.739C327.924 18.7898 327.685 18.7804 327.468 18.7965C327.234 18.8138 327.022 18.8085 326.842 18.7564C326.723 18.7217 326.589 18.7029 326.442 18.7096C326.06 18.727 325.683 18.747 325.301 18.7617C325.236 18.7644 325.158 18.7524 325.098 18.743C324.615 18.6615 324.615 18.6589 324.274 18.6762C323.773 18.7016 323.773 18.7016 323.437 18.6308C323.372 18.6174 323.303 18.592 323.248 18.5934C322.714 18.6148 322.185 18.6361 321.656 18.6669C321.481 18.6762 321.361 18.6762 321.232 18.6415C321.122 18.6121 320.993 18.5787 320.855 18.5707C320.712 18.5626 320.556 18.5827 320.404 18.5894C320.252 18.5961 320.091 18.6134 319.958 18.6027C319.82 18.592 319.7 18.5546 319.58 18.5279C319.456 18.4998 319.323 18.5012 319.152 18.5119C318.628 18.5426 318.623 18.5386 318.103 18.4557C318.043 18.4464 317.965 18.4357 317.901 18.4384C317.519 18.4544 317.141 18.4745 316.759 18.4905C316.612 18.4972 316.469 18.4798 316.368 18.4411C316.327 18.425 316.34 18.3983 316.313 18.3462C316.281 18.3341 316.317 18.3555 316.327 18.3756C316.396 18.3729 316.478 18.3756 316.529 18.3649C316.658 18.3395 316.722 18.3061 316.69 18.278C316.672 18.2633 316.584 18.2446 316.529 18.2446C316.428 18.2446 316.34 18.274 316.313 18.3462C316.023 18.3903 315.714 18.3996 315.415 18.421C315.24 18.4344 315.13 18.4277 314.992 18.393C314.826 18.3502 314.656 18.3088 314.384 18.3301C314.09 18.3542 313.777 18.3582 313.473 18.3769C313.123 18.3983 312.972 18.278 312.677 18.2807C312.373 18.2834 312.07 18.3061 311.766 18.3221C311.499 18.3355 311.499 18.3355 310.947 18.2486C310.744 18.2166 310.505 18.2633 310.307 18.2299C310.174 18.2085 310.059 18.1765 309.93 18.1538C309.874 18.1444 309.787 18.1444 309.718 18.1471C309.336 18.1631 308.949 18.1738 308.581 18.2032C308.162 18.2379 307.845 18.2005 307.546 18.1217C307.168 18.1364 306.786 18.1444 306.414 18.1698C306.142 18.1885 305.986 18.1444 305.802 18.1083C305.737 18.0963 305.682 18.0763 305.613 18.0709C305.544 18.0656 305.461 18.0763 305.387 18.0803C305.084 18.095 304.771 18.1017 304.476 18.1257C304.113 18.1564 303.975 18.0469 303.694 18.0335C303.505 18.099 303.404 18.1885 303.031 18.1952C302.727 18.2005 302.424 18.2219 302.12 18.2366C301.968 18.2433 301.816 18.2513 301.664 18.258C301.42 18.27 301.305 18.3221 301.356 18.4023C301.384 18.4464 301.407 18.4905 301.43 18.5346C301.476 18.6134 301.361 18.6802 301.167 18.6896C300.633 18.715 300.104 18.7417 299.57 18.7644C299.428 18.7711 299.29 18.7484 299.174 18.7123C299.055 18.6762 298.921 18.6602 298.774 18.6669C298.24 18.6923 297.711 18.719 297.177 18.7417C297.117 18.7444 297.039 18.731 296.979 18.7203C296.851 18.6963 296.726 18.6682 296.602 18.6428C296.298 18.6548 295.999 18.6628 295.7 18.6789C295.217 18.7029 295.217 18.7043 294.862 18.6308C294.798 18.6174 294.734 18.592 294.674 18.5934C294.444 18.5987 294.218 18.6121 293.988 18.6241C293.312 18.6589 293.311 18.6588 293.114 18.6188C292.934 18.5813 292.773 18.5359 292.501 18.5573C292.207 18.5814 291.894 18.5894 291.59 18.6027C291.365 18.6121 291.139 18.6228 290.914 18.6255C290.854 18.6268 290.79 18.6014 290.725 18.588C290.541 18.5466 290.361 18.5132 290.108 18.5359C289.961 18.5493 289.805 18.552 289.653 18.5586C289.257 18.5773 289.257 18.5773 288.608 18.4972C288.544 18.4891 288.465 18.4798 288.401 18.4838C287.867 18.5079 287.338 18.5346 286.804 18.5573C286.74 18.56 286.661 18.5519 286.597 18.5453C285.87 18.4678 285.87 18.4678 285.097 18.5052C284.802 18.5185 284.793 18.5239 284.485 18.4531C284.347 18.4223 284.232 18.4076 284.07 18.417C283.463 18.4491 282.851 18.4704 282.248 18.5079C281.977 18.5239 281.82 18.4838 281.636 18.4477C281.572 18.4357 281.503 18.409 281.447 18.4103C280.84 18.4357 280.232 18.4664 279.625 18.4918C279.57 18.4945 279.501 18.4678 279.436 18.4557C279.312 18.4317 279.192 18.3956 279.054 18.3876C278.911 18.3796 278.755 18.3996 278.599 18.4063C278.217 18.4237 278.217 18.4223 277.775 18.3435C277.715 18.3328 277.637 18.3181 277.577 18.3208C276.969 18.3475 276.357 18.3702 275.754 18.409C275.409 18.4304 275.175 18.3916 274.931 18.3355C274.88 18.3235 274.793 18.3181 274.728 18.3208C274.042 18.3515 273.361 18.3863 272.676 18.417C272.533 18.4237 272.395 18.401 272.28 18.3662C272.096 18.3114 271.88 18.3181 271.649 18.3301C271.12 18.3582 271.116 18.3569 270.803 18.2927C270.738 18.2794 270.683 18.262 270.614 18.2553C270.549 18.2486 270.467 18.2526 270.398 18.2553C270.094 18.2687 269.79 18.2834 269.486 18.2981C269.183 18.3128 268.874 18.3208 268.575 18.3435C268.207 18.3716 268.032 18.2847 267.774 18.2446C267.397 18.262 267.01 18.2727 266.638 18.3007C266.352 18.3221 266.219 18.2633 266.03 18.2326C265.966 18.2219 265.897 18.1992 265.837 18.2019C265.151 18.2313 264.465 18.2633 263.784 18.2994C263.619 18.3074 263.508 18.2967 263.37 18.2647C263.062 18.1925 263.048 18.1952 262.533 18.2219C262.307 18.2339 262.091 18.2446 261.897 18.1898C261.727 18.1404 261.52 18.1284 261.276 18.1444C260.977 18.1644 260.669 18.1751 260.365 18.1885C260.061 18.2032 259.758 18.2232 259.454 18.2299C259.21 18.2366 259.063 18.1738 258.869 18.1417C258.81 18.1324 258.727 18.131 258.658 18.1337C258.354 18.1457 258.041 18.1551 257.746 18.1778C257.388 18.2059 257.19 18.1324 256.937 18.0896C256.881 18.0803 256.789 18.0856 256.72 18.0896C256.186 18.1137 255.657 18.1404 255.123 18.1658C254.935 18.1297 254.741 18.095 254.553 18.0589C254.249 18.0723 253.945 18.087 253.641 18.1003C253.411 18.111 253.177 18.115 252.96 18.1351C252.68 18.1618 252.541 18.099 252.353 18.0682C252.288 18.0576 252.219 18.0348 252.159 18.0375C251.777 18.0522 251.396 18.0683 251.018 18.091C250.659 18.1137 250.517 17.9934 250.222 17.9947C249.918 17.9961 249.605 18.0135 249.311 18.0375C248.97 18.0656 248.731 18.0228 248.487 17.9654C248.436 17.9533 248.349 17.9466 248.285 17.9493C247.903 17.9654 247.525 17.9854 247.143 18.0014C247.079 18.0041 247.001 17.9974 246.936 17.9894C246.209 17.9106 246.209 17.9092 245.891 17.9253C245.666 17.936 245.436 17.9493 245.206 17.956C245.141 17.9587 245.063 17.9467 245.003 17.936C244.525 17.8545 244.525 17.8531 244.179 17.8692C243.876 17.8839 243.572 17.8985 243.268 17.9132C243.079 17.8772 242.886 17.8424 242.698 17.8064C242.32 17.8237 241.934 17.8371 241.561 17.8611C241.386 17.8718 241.271 17.8678 241.137 17.8344C240.972 17.7943 240.806 17.7476 240.53 17.7703C240.235 17.7943 239.923 17.797 239.623 17.817C239.264 17.8411 239.117 17.7195 238.827 17.7208C238.523 17.7222 238.211 17.7395 237.916 17.7636C237.575 17.7916 237.336 17.7489 237.092 17.6914C237.042 17.6794 236.954 17.6727 236.89 17.6754C236.052 17.7142 235.219 17.7529 234.382 17.7943C233.866 17.8197 233.866 17.821 232.886 17.7476C232.817 17.7422 232.743 17.7369 232.674 17.7395C232.37 17.7516 232.057 17.7609 231.763 17.7836C231.404 17.8117 231.206 17.7395 230.953 17.6954C230.898 17.6861 230.81 17.6914 230.737 17.6941C230.507 17.7035 230.281 17.7155 230.051 17.7262C229.747 17.7409 229.444 17.7556 229.14 17.7703C228.951 17.7355 228.758 17.6994 228.569 17.6647C228.192 17.6821 227.805 17.6914 227.432 17.7195C227.147 17.7409 227.014 17.6848 226.825 17.6527C226.76 17.642 226.691 17.6193 226.632 17.6206C225.946 17.65 225.26 17.6807 224.579 17.7182C224.298 17.7342 224.17 17.6741 223.981 17.6433C223.916 17.634 223.843 17.6166 223.783 17.6193C223.327 17.638 222.872 17.6607 222.416 17.6834C222.158 17.6968 222.158 17.6968 221.597 17.6139C221.533 17.6046 221.459 17.5952 221.395 17.5979C219.949 17.6647 218.509 17.7355 217.064 17.8023C216.917 17.809 216.783 17.789 216.668 17.7529C216.548 17.7168 216.415 17.6981 216.268 17.7048C215.66 17.7329 215.048 17.7583 214.445 17.793C214.197 17.8077 213.999 17.7903 213.829 17.7435C213.7 17.7088 213.58 17.6954 213.419 17.7035C213.115 17.7195 212.812 17.7329 212.508 17.7476C212.204 17.7623 211.9 17.777 211.597 17.7917C211.293 17.8064 210.985 17.8144 210.685 17.8371C210.317 17.8651 210.138 17.7823 209.885 17.7409C209.429 17.7609 208.973 17.781 208.522 17.8023C207.915 17.8304 207.307 17.8611 206.7 17.8879C206.645 17.8905 206.576 17.8665 206.511 17.8545C206.323 17.8211 206.184 17.7743 205.904 17.789C204.542 17.8598 203.17 17.9199 201.803 17.9894C201.518 18.0041 201.394 17.9466 201.2 17.9159C201.136 17.9066 201.062 17.8879 201.003 17.8905C200.243 17.9239 199.484 17.9613 198.725 17.9974C198.416 18.0121 198.416 18.0121 197.901 17.9293C197.841 17.9199 197.763 17.9079 197.698 17.9106C196.709 17.956 195.724 18.0041 194.734 18.0509C194.587 18.0576 194.454 18.0389 194.334 18.0028C194.219 17.9667 194.081 17.9467 193.938 17.9533C193.027 17.9961 192.111 18.0375 191.205 18.0843C190.961 18.0976 190.758 18.0856 190.583 18.0375C190.459 18.0028 190.335 17.9881 190.178 17.9961C188.812 18.0616 187.445 18.1244 186.078 18.1939C185.816 18.2072 185.632 18.1818 185.466 18.1377C185.332 18.103 185.217 18.0963 185.052 18.1017C184.877 18.1083 184.771 18.123 184.674 18.1631C184.55 18.2152 184.472 18.2807 184.177 18.2847C183.874 18.2887 183.565 18.3048 183.266 18.3275C182.981 18.3502 182.847 18.2901 182.668 18.254C182.534 18.2286 182.41 18.2246 182.24 18.2366C182.083 18.2473 181.987 18.27 181.895 18.3128C181.692 18.4036 181.674 18.4036 181.425 18.3462C181.292 18.3154 181.172 18.2914 181.025 18.2967C180.417 18.3235 179.81 18.3529 179.202 18.3836C178.853 18.401 178.848 18.4036 178.586 18.3368C178.457 18.3034 178.333 18.2874 178.181 18.2954C176.51 18.3756 174.84 18.4531 173.169 18.5373C172.911 18.5506 172.736 18.5226 172.552 18.4825C172.493 18.4691 172.433 18.4504 172.364 18.445C172.295 18.4397 172.216 18.4451 172.143 18.4477C170.928 18.5052 169.708 18.56 168.498 18.6241C168.222 18.6388 168.075 18.5961 167.886 18.5613C167.821 18.5493 167.766 18.5306 167.697 18.5252C167.628 18.5212 167.545 18.5306 167.472 18.5346C166.257 18.592 165.037 18.6468 163.827 18.711C163.537 18.7257 163.413 18.6695 163.224 18.6401C163.159 18.6295 163.09 18.6094 163.031 18.6121C162.649 18.6268 162.271 18.6468 161.889 18.6642C160.978 18.7083 160.067 18.7497 159.156 18.7952C158.806 18.8125 158.654 18.6936 158.359 18.6989C157.977 18.7056 157.6 18.7323 157.218 18.751C156.914 18.7657 156.611 18.7791 156.307 18.7952C156.008 18.8098 156.008 18.8098 155.262 18.7323C155.198 18.7257 155.12 18.7163 155.055 18.719C153.992 18.7684 152.924 18.8179 151.866 18.8713C151.622 18.8833 151.42 18.8767 151.245 18.8272C151.12 18.7925 150.992 18.7751 150.84 18.7831C149.243 18.8593 147.65 18.9354 146.053 19.0103C145.994 19.013 145.915 18.9996 145.856 18.9889C145.727 18.9648 145.602 18.9368 145.478 18.9114C145.386 18.9421 145.267 18.9702 145.207 19.0049C145.124 19.0517 145.013 19.0651 144.839 19.0731C144.664 19.0811 144.553 19.0784 144.415 19.0437C144.249 19.0009 144.079 18.9675 143.808 18.9809C142.137 19.0651 140.466 19.1412 138.796 19.2241C138.52 19.2374 138.391 19.1786 138.198 19.1479C138.133 19.1385 138.06 19.1239 138 19.1265C137.314 19.1573 136.633 19.1907 135.947 19.2227C134.047 19.3136 132.146 19.4005 130.25 19.4967C129.905 19.514 129.67 19.4806 129.426 19.4232C129.375 19.4111 129.288 19.4045 129.224 19.4071C126.564 19.5327 123.904 19.6597 121.248 19.7866C121.106 19.7933 120.967 19.7719 120.852 19.7372C120.733 19.7011 120.599 19.6837 120.452 19.6904C119.237 19.7479 118.022 19.8053 116.807 19.8641C116.503 19.8788 116.499 19.8801 116.186 19.816C116.121 19.8026 116.052 19.7773 116.002 19.7799C115.896 19.7866 115.795 19.82 115.721 19.8654C115.647 19.9135 115.532 19.9269 115.362 19.9363C115.187 19.9456 115.072 19.9416 114.939 19.9095C114.768 19.8695 114.612 19.8307 114.336 19.8441C110.843 20.0151 107.35 20.1794 103.857 20.3491C103.576 20.3625 103.447 20.3064 103.254 20.2757C103.189 20.2663 103.125 20.2529 103.056 20.2503C102.982 20.2476 102.904 20.2556 102.831 20.2596C97.1332 20.5309 91.4358 20.8035 85.7384 21.0747C85.3979 21.0907 85.4024 21.0907 85.0297 21.2137C84.9836 21.2284 84.9238 21.2484 84.8593 21.2511C83.1151 21.3366 81.3664 21.4194 79.6176 21.5023C78.8582 21.5384 78.0989 21.5758 77.3396 21.6105C77.0681 21.6226 77.0681 21.6226 76.4192 21.7669C76.3639 21.7789 76.2994 21.7949 76.235 21.7976C73.1976 21.9433 70.1602 22.0889 67.1182 22.2319C66.8789 22.2426 66.6857 22.2666 66.5752 22.3307C66.497 22.3762 66.3957 22.4029 66.2439 22.4109C64.1177 22.5125 61.9916 22.6154 59.8608 22.7142C59.6077 22.7263 59.4558 22.7637 59.3315 22.8198C59.2901 22.8385 59.2532 22.8599 59.1934 22.8732C59.1382 22.8853 59.0554 22.8893 58.9863 22.8933C57.1639 22.9801 55.3415 23.0697 53.5145 23.1525C53.243 23.1645 53.1325 23.214 52.999 23.2661C52.953 23.2835 52.9207 23.3075 52.8609 23.3195C52.8011 23.3302 52.7137 23.3302 52.64 23.3329C51.1213 23.4051 49.6027 23.4785 48.084 23.5507C47.7895 23.544 47.725 23.6215 47.5823 23.6683C47.5317 23.6843 47.495 23.7057 47.4351 23.7164C47.3707 23.7271 47.2878 23.7257 47.2095 23.7284C45.9946 23.7859 44.7797 23.8473 43.5601 23.9008C43.2794 23.9128 43.2241 23.981 43.0722 24.0277C43.0216 24.0424 42.9711 24.0651 42.9112 24.0692C42.1519 24.1079 41.3926 24.144 40.6332 24.1787C40.3801 24.1907 40.3801 24.1894 39.9337 24.3217C39.8831 24.3364 39.8232 24.3524 39.7588 24.3564C38.622 24.4126 37.4808 24.466 36.3394 24.5208C36.1922 24.5275 36.0909 24.5595 36.0173 24.605C35.9437 24.6504 35.8378 24.6798 35.6906 24.6865C34.7794 24.7306 33.8681 24.776 32.9568 24.8161C32.7037 24.8268 32.5381 24.8602 32.4276 24.9203C32.3448 24.9657 32.2436 24.9885 32.0825 24.9965C31.1713 25.0392 30.2601 25.086 29.3443 25.1234C29.0773 25.1341 28.9392 25.1795 28.8288 25.2357C28.7413 25.2811 28.6401 25.2971 28.4698 25.3051C26.7992 25.3826 25.1241 25.4601 23.4582 25.5457C23.1774 25.5604 23.0347 25.5136 22.8506 25.4802C22.5883 25.4334 22.3445 25.3826 22.3445 25.2784C22.3445 25.2624 22.2662 25.2437 22.211 25.2303C21.8014 25.1301 21.8014 25.1301 21.737 25.0232C21.7002 24.9577 21.6587 24.8909 21.6265 24.8241C21.5667 24.7145 21.4194 24.6865 20.996 24.7065C20.8441 24.7132 20.6923 24.7226 20.5404 24.7279C20.3149 24.7372 20.1446 24.6932 20.1032 24.613C20.0802 24.5689 20.0526 24.5248 20.0296 24.4807C20.2597 24.47 20.2551 24.4687 20.66 24.307C20.8303 24.2389 20.8304 24.2389 20.5036 24.1707C20.3794 24.1453 20.2597 24.1172 20.1262 24.0932C20.0664 24.0825 19.9882 24.0758 19.9238 24.0785C19.5418 24.0945 19.1644 24.1132 18.7871 24.132C18.1796 24.1613 18.1795 24.1613 17.5628 24.025C17.5122 24.0144 17.434 23.9943 17.4432 23.9836C17.4938 23.9342 17.618 23.9128 17.7745 23.9075C18.0046 23.8994 18.2301 23.8861 18.4556 23.8754C18.6075 23.8687 18.7594 23.8607 18.9112 23.854C19.0539 23.8033 19.2012 23.7538 19.3347 23.7017C19.5464 23.6215 19.5463 23.6188 19.2564 23.5627C19.0723 23.5253 18.8744 23.4919 18.6857 23.4572C18.4602 23.4679 18.2301 23.4799 18.0046 23.4892C17.7193 23.5013 17.6042 23.4759 17.5306 23.389C17.4662 23.3129 17.5444 23.2474 17.7653 23.2313C17.9908 23.2153 18.2026 23.2046 18.3176 23.1365C18.4281 23.071 18.6214 23.0456 18.8607 23.0403C19.0125 23.0363 19.1644 23.0269 19.3163 23.0189C19.5142 23.0082 19.62 22.9401 19.5786 22.8639C19.5556 22.8145 19.5096 22.773 19.3301 22.7623C18.5339 22.7156 18.5247 22.7169 18.1289 22.626C18.0921 22.618 18.0645 22.594 18.0783 22.582C18.1013 22.5619 18.152 22.5325 18.2072 22.5285C18.7364 22.4991 19.2657 22.4724 19.7949 22.4523C19.9698 22.4457 20.0987 22.4363 20.1585 22.3869C20.2413 22.3187 20.2045 22.2559 20.0434 22.2091C19.9928 22.1945 19.9099 22.1757 19.8547 22.1771C19.2472 22.2011 18.6443 22.2319 18.0369 22.2559C17.9816 22.2586 17.8804 22.2359 17.8574 22.2185C17.8114 22.1864 17.8804 22.1437 18.0415 22.129C18.2532 22.1089 18.4695 22.1076 18.6121 22.0408C18.81 21.9459 19.0539 21.8591 19.2748 21.7682C19.3116 21.7522 19.3715 21.7214 19.3577 21.7188C19.2427 21.6894 19.1092 21.6666 18.9895 21.6386C18.787 21.5918 18.787 21.5264 18.833 21.4636C18.8698 21.4128 19.0079 21.3927 19.1782 21.3927C19.2518 21.3927 19.3439 21.3927 19.4037 21.3807C19.5602 21.3513 19.6108 21.3139 19.5326 21.2858C19.4865 21.2698 19.4037 21.2471 19.3485 21.2498C18.3637 21.2939 17.3741 21.3366 16.3939 21.3914C16.104 21.4074 15.9706 21.3566 15.7957 21.3206C15.6622 21.2925 15.5379 21.2818 15.3722 21.3019C15.2158 21.3206 15.064 21.3099 14.9673 21.2658C14.8891 21.2297 15.0271 21.199 15.3999 21.1642C15.4689 21.1576 15.5471 21.1535 15.5977 21.1402C16.1316 20.9959 16.1316 20.9945 16.4997 20.9758C16.8587 20.9585 16.8588 20.9571 17.0475 20.8796C17.1349 20.8436 17.2315 20.8075 17.3143 20.7701C17.3465 20.7554 17.4018 20.7286 17.3834 20.7206C17.2822 20.6792 17.144 20.6698 16.983 20.6792C16.624 20.7019 16.2007 20.6832 16.012 20.8101C15.9384 20.8582 15.8233 20.8716 15.6576 20.8796C13.9917 20.9571 12.3256 21.04 10.6551 21.1148C10.3836 21.1268 10.2594 21.1763 10.1535 21.2311C10.0615 21.2765 9.96022 21.2898 9.78534 21.2979C9.61046 21.3059 9.47233 21.3099 9.37108 21.2658C9.31125 21.2391 9.36189 21.2017 9.49995 21.1642C9.69784 21.1108 9.66101 21.044 9.59658 20.9812C9.55056 20.9398 9.4079 20.9104 9.25603 20.913C9.03053 20.9184 8.81429 20.9331 8.6256 20.8796C8.51515 20.8489 8.37706 20.8275 8.2528 20.8008C8.01349 20.746 7.77418 20.6899 7.43822 20.726C7.20812 20.7126 7.04704 20.6645 6.86296 20.6271C6.55462 20.5656 6.52701 20.5563 6.74791 20.4908C6.99642 20.4173 6.8031 20.3211 6.94116 20.2489C7.08843 20.1714 7.29099 20.1033 7.47047 20.0311C7.51649 20.0124 7.55793 19.9951 7.60395 19.9764C7.4981 19.9496 7.40147 19.9162 7.27722 19.8975C7.11614 19.8735 7.0333 19.8441 7.0425 19.7612C7.01029 19.7492 7.024 19.7799 7.06082 19.7879C7.10224 19.796 7.20356 19.7893 7.25418 19.7799C7.38304 19.7545 7.4474 19.7211 7.41519 19.6931C7.39678 19.6784 7.30941 19.6597 7.25418 19.6597C7.15294 19.6597 7.06551 19.6891 7.0379 19.7612C6.52246 19.816 5.98853 19.8427 5.45469 19.8641C5.39947 19.8668 5.33047 19.8401 5.26604 19.8267C5.05435 19.7813 5.05432 19.7826 4.43304 19.7692C4.36861 19.7679 4.28121 19.7492 4.249 19.7305C4.11554 19.649 4.12018 19.5595 4.05575 19.4726C4.1754 19.4165 4.29496 19.3617 4.41922 19.3069C4.66773 19.196 4.98995 19.0985 5.18324 18.9769C5.14182 18.9114 5.08659 18.8459 5.28908 18.7925C5.86434 18.7257 5.85977 18.7257 6.01624 18.6615C6.46265 18.4798 6.90442 18.2967 7.36924 18.1177C7.49349 18.0709 7.49351 18.0455 7.27261 18.0255C7.20358 18.0201 7.12985 18.0188 7.05621 18.0215C6.82611 18.0308 6.59601 18.0549 6.3705 18.0495C6.145 18.0455 5.97932 17.9867 5.79524 17.9507C5.60655 17.9132 5.41788 17.8745 5.22919 17.8357C5.01289 17.8398 4.79663 17.8772 4.58034 17.817C4.41466 17.7703 4.20758 17.7369 4.01889 17.6981C4.16156 17.5966 4.42852 17.5191 4.63562 17.4295C4.8243 17.348 4.8288 17.3494 5.33503 17.2866C5.57434 17.2572 5.65718 17.1062 5.45469 17.0621C5.21078 17.0086 4.95311 16.9592 4.7046 16.9084C4.4883 16.9124 4.26745 16.9485 4.06035 16.8884C3.89928 16.8429 3.71516 16.8122 3.44824 16.8296C2.99723 16.859 2.53704 16.8737 2.08143 16.8977C1.92496 16.9057 1.75463 16.9004 1.6856 16.855C1.63958 16.8229 1.77305 16.7788 1.92492 16.7695C2.15502 16.7561 2.36209 16.7401 2.47715 16.6733C2.5876 16.6064 2.79007 16.5864 3.02937 16.577C3.0938 16.5744 3.16749 16.5583 3.19971 16.5423C3.36538 16.4648 3.54948 16.398 3.90384 16.4007C4.05111 16.3739 4.12929 16.3405 4.08327 16.3085C4.05566 16.2911 3.95907 16.2684 3.90384 16.2711C3.52187 16.2844 3.13991 16.2978 2.76714 16.3218C2.59226 16.3325 2.45872 16.3352 2.34827 16.2951C2.27004 16.2684 2.31145 16.2323 2.45872 16.1935C2.58758 16.1601 2.62443 16.1214 2.61523 16.076C2.59222 15.9704 2.45413 15.9397 2.01233 15.9463C1.69478 15.9517 1.61654 15.9343 1.54751 15.8435C1.5291 15.8221 1.48316 15.7927 1.51538 15.778C1.71327 15.6871 1.84214 15.5749 2.21491 15.5321C2.36217 15.5161 2.51858 15.5161 2.61062 15.4814C2.70267 15.4466 2.78554 15.4065 2.88219 15.3731C3.00184 15.333 3.0846 15.2956 3.02937 15.2702C2.93733 15.2248 2.79011 15.2208 2.61984 15.2368C2.47257 15.2502 2.3161 15.2515 2.16423 15.2595C1.89271 15.2742 1.67186 15.2395 1.63964 15.1807C1.5522 15.0257 1.46013 14.872 1.3819 14.717C1.3727 14.6983 1.39564 14.6743 1.43246 14.6582C1.56132 14.6021 1.69944 14.5487 1.8329 14.4939C1.98937 14.4311 2.23792 14.4431 2.44962 14.4311C2.74875 14.4137 2.74865 14.415 3.14903 14.2868C3.30551 14.236 3.57704 14.256 3.73812 14.2106C3.78874 14.1959 3.86697 14.1719 3.85317 14.1585C3.83476 14.1411 3.74277 14.1278 3.67374 14.1197C3.60931 14.1117 3.53109 14.1077 3.46206 14.1117C2.62448 14.1505 1.79152 14.1919 0.953935 14.2293C0.81127 14.236 0.654795 14.2066 0.604171 14.1652C0.553548 14.1264 0.56731 14.0797 0.558105 14.0356C0.691566 13.9808 0.843377 13.93 0.95843 13.8712C1.04587 13.8258 1.14713 13.8057 1.32201 13.8031C1.55212 13.7991 1.77764 13.783 2.03536 13.771C2.51398 13.5759 2.98336 13.3715 3.4988 13.1764C3.70589 13.0976 3.65535 13.0174 3.69677 12.9332C3.73819 12.8557 4.04651 12.8677 4.2536 12.845C4.41928 12.8263 4.47443 12.7835 4.41 12.7541C4.37319 12.7368 4.29039 12.7167 4.22597 12.7167C4.0741 12.7167 3.92223 12.7288 3.77036 12.7354C3.61849 12.7421 3.44362 12.7381 3.31937 12.7608C3.19971 12.7822 3.12143 12.8276 3.04319 12.8664C2.95575 12.9091 2.84078 12.9239 2.6659 12.9265C2.4404 12.9292 2.21491 12.9412 1.98941 12.9506C1.74089 12.8985 1.48312 12.8477 1.24381 12.7929C1.19779 12.7822 1.18854 12.7515 1.19314 12.7314C1.20235 12.6793 1.13333 12.6473 0.981463 12.6219C0.852604 12.6005 0.746747 12.5698 0.627092 12.543C0.719134 12.507 0.820416 12.4722 0.89405 12.4335C1.05512 12.3519 1.25764 12.2932 1.6074 12.2958C1.74546 12.2437 1.85588 12.1796 2.03536 12.1435C2.20564 12.1088 2.49558 12.1435 2.62444 12.0647C2.68887 12.0259 2.78557 11.9818 2.90983 11.9658C3.10772 11.9404 3.36543 11.9538 3.48048 11.8789C3.54952 11.8362 3.65072 11.7974 3.78418 11.7867C3.93605 11.7747 4.09248 11.772 4.20293 11.7467C4.26276 11.7333 4.3272 11.7119 4.3272 11.6932C4.3272 11.6812 4.23523 11.6625 4.1708 11.6545C4.11097 11.6451 4.03265 11.6384 3.96361 11.6411C3.73351 11.6491 3.50801 11.6638 3.27791 11.6718C3.21348 11.6745 3.13987 11.6651 3.07083 11.6571C2.86834 11.6357 2.88212 11.609 3.04319 11.5609C3.20427 11.5142 3.31938 11.454 3.45284 11.3992C3.60011 11.3899 3.78417 11.3939 3.88541 11.3685C4.05569 11.3271 4.17532 11.2669 4.31338 11.2148C4.46525 11.2068 4.62171 11.2042 4.76438 11.1895C4.8242 11.1841 4.85184 11.1547 4.90246 11.1373C4.9945 11.1039 5.0728 11.0558 5.19706 11.0398C5.39955 11.0157 5.64806 11.0251 5.76771 10.9516C5.83675 10.9088 5.94255 10.8634 6.07141 10.8608C6.43038 10.8554 6.58225 10.7819 6.76633 10.7124C6.9044 10.6603 7.19894 10.687 7.35081 10.6349C7.45206 10.6015 7.52573 10.5601 7.62698 10.528C7.6684 10.5147 7.75581 10.508 7.82484 10.504C8.20221 10.4839 8.58417 10.4692 8.96154 10.4479C9.02137 10.4438 9.07664 10.4238 9.12266 10.4078C9.21931 10.373 9.27907 10.3249 9.39872 10.3022C9.51838 10.2795 9.68863 10.2795 9.8359 10.2728C10.3099 10.2528 10.3468 10.2581 10.5631 10.1445C10.7379 10.0523 11.166 10.1178 11.3087 10.0163C11.3915 9.95747 11.5433 9.90937 11.8148 9.90269C12.1968 9.89333 12.5742 9.86794 12.9561 9.85057C13.2967 9.83454 13.2921 9.83453 13.6603 9.71027C13.8259 9.65415 14.0699 9.66217 14.2862 9.65148C14.5163 9.64079 14.728 9.62476 14.8384 9.55795C14.9489 9.49248 15.1514 9.47109 15.3861 9.46173C15.6024 9.45238 15.8463 9.45907 16.0166 9.40562C16.4308 9.27735 16.4262 9.276 16.7161 9.26264C17.1717 9.24126 17.6273 9.21988 18.0829 9.19717C18.3867 9.18247 18.7042 9.1798 18.9895 9.1504C19.1966 9.12902 19.2886 9.0542 19.4221 9.00209C19.7995 8.98204 20.1768 8.96199 20.5542 8.94328C21.0834 8.91656 21.6173 8.89252 22.1511 8.86713C22.3812 8.81635 22.4135 8.70411 22.8001 8.69876C23.0302 8.69609 23.2557 8.67872 23.4858 8.66803C23.8678 8.64933 24.2451 8.62527 24.6271 8.61592C24.917 8.60924 24.9676 8.53708 25.1195 8.49165C25.1701 8.47561 25.2161 8.4529 25.276 8.44889C25.8742 8.41148 26.4909 8.40346 27.0753 8.34868C27.1352 8.34333 27.1904 8.31527 27.2042 8.29523C27.2134 8.28454 27.1352 8.2645 27.0846 8.25515C27.0247 8.24446 26.9465 8.23377 26.8821 8.23644C24.9814 8.32597 23.0808 8.41683 21.1801 8.50636C20.9132 8.51972 20.9132 8.51838 20.2643 8.66536C20.2091 8.67738 20.1446 8.69074 20.0756 8.69475C19.7718 8.71079 19.4635 8.72015 19.1644 8.74019C18.9205 8.75623 18.718 8.74018 18.5431 8.69208C18.4189 8.65734 18.29 8.64665 18.1335 8.64933C17.9586 8.65333 17.8436 8.66804 17.7424 8.70411C17.6089 8.75355 17.5399 8.81769 17.2591 8.83105C15.966 8.8885 14.6727 8.95264 13.3841 9.01411C13.2046 8.9954 13.1172 8.96734 13.1632 8.93394C13.1908 8.91389 13.2461 8.88717 13.3013 8.8845C13.8305 8.85644 14.3644 8.83239 14.8936 8.80567C14.9672 8.80166 15.0685 8.80432 15.1099 8.79095C15.3124 8.73083 15.3861 8.63328 15.7681 8.6266C15.989 8.62259 16.2144 8.60256 16.4261 8.58385C16.486 8.57851 16.5412 8.55044 16.555 8.5304C16.5596 8.51971 16.486 8.49966 16.4307 8.49031C16.2283 8.45156 15.9936 8.49834 15.7911 8.47162C15.7221 8.46226 15.6254 8.4489 15.6116 8.43286C15.6024 8.41816 15.6806 8.39411 15.7358 8.37941C15.7864 8.36605 15.8554 8.35402 15.9245 8.35002C16.5319 8.31928 17.1395 8.28721 17.747 8.26316C17.9955 8.25381 18.1703 8.2204 18.2808 8.15893C18.3636 8.1135 18.4649 8.08946 18.6213 8.08278C19.6844 8.03334 20.7475 7.97855 21.8152 7.93312C22.0821 7.92243 22.2202 7.87834 22.3307 7.82088C22.4181 7.77545 22.5194 7.75942 22.6896 7.7514C24.2129 7.68192 25.727 7.60442 27.2503 7.53761C27.531 7.52558 27.6139 7.46812 27.7566 7.41868C27.8072 7.40131 27.8393 7.37994 27.9037 7.36925C27.9682 7.35856 28.051 7.35988 28.1292 7.35721C29.3442 7.29975 30.5592 7.2383 31.7788 7.18485C32.0641 7.17282 32.1193 7.106 32.2665 7.05924C32.3172 7.04454 32.3632 7.02049 32.423 7.01648C33.3343 6.97105 34.2454 6.9283 35.1567 6.8842C35.7641 6.8548 36.3716 6.82541 36.9791 6.79735C37.2782 6.78398 37.2782 6.78264 37.6832 6.6557C37.7292 6.641 37.7937 6.62363 37.8535 6.61962C39.6023 6.5341 41.3465 6.45261 43.0953 6.36843C43.2425 6.36175 43.3484 6.331 43.422 6.28557C43.4956 6.24014 43.6016 6.2094 43.7442 6.20272C45.1111 6.13591 46.4779 6.07044 47.8493 6.00764C48.0978 5.99695 48.2726 5.96488 48.3831 5.90475C48.4659 5.85932 48.5672 5.83528 48.7236 5.8286C50.0905 5.76446 51.4574 5.6963 52.8288 5.63484C53.0911 5.62281 53.2199 5.57738 53.3488 5.52394C53.3948 5.50523 53.4316 5.47449 53.4869 5.47182C54.168 5.43441 54.8445 5.39566 55.5302 5.37027C55.8155 5.35958 55.9122 5.30346 56.0272 5.25001C56.1193 5.20725 56.2251 5.19255 56.4 5.18721C56.782 5.17518 57.1594 5.15248 57.5321 5.12976C57.5873 5.12575 57.6564 5.09635 57.661 5.07765C57.6702 5.04291 57.5643 5.01885 57.3894 5.00682C55.567 5.09368 53.74 5.18052 51.9176 5.26738C51.6184 5.28208 51.6184 5.28208 51.2134 5.40902C51.1674 5.42372 51.1029 5.4411 51.0385 5.4451C49.2897 5.52929 47.5456 5.61213 45.7968 5.69631C45.6495 5.70299 45.5437 5.73373 45.47 5.77916C45.3964 5.82459 45.2905 5.85532 45.1478 5.862C43.4772 5.94217 41.8067 6.02368 40.1316 6.09985C39.883 6.11054 39.7082 6.14126 39.5978 6.20272C39.5149 6.24815 39.4137 6.27221 39.2572 6.2789C37.6603 6.35372 36.0679 6.43255 34.4663 6.50471C34.3053 6.51139 34.1857 6.47264 34.1949 6.43656C34.1995 6.41785 34.2684 6.38713 34.3237 6.38446C35.1566 6.34037 35.9851 6.29493 36.8227 6.26152C37.1034 6.25083 37.1862 6.19204 37.3288 6.1426C37.3749 6.12523 37.4117 6.10251 37.4715 6.09316C37.536 6.08247 37.6188 6.08381 37.697 6.08114C39.6713 5.98627 41.6457 5.89007 43.6246 5.80054C43.9099 5.78718 43.9651 5.7217 44.1123 5.67493C44.1629 5.65889 44.209 5.63485 44.2688 5.63218C44.8763 5.60011 45.4838 5.57204 46.0913 5.54398C47.1543 5.49321 48.2174 5.44243 49.2851 5.39165C49.5934 5.37695 49.5934 5.37695 49.9892 5.25134C50.0352 5.23665 50.0997 5.21795 50.1595 5.21528C52.9714 5.08032 55.7834 4.94536 58.5952 4.81174C58.7425 4.80506 58.8483 4.77433 58.922 4.7289C58.9956 4.6848 59.1014 4.65274 59.2441 4.64472C63.0454 4.46299 66.8422 4.28126 70.6435 4.10221C70.892 4.09018 71.0668 4.06212 71.1773 3.99932C71.2555 3.95389 71.3614 3.92984 71.5179 3.92183C75.6966 3.72273 79.8753 3.52364 84.0586 3.32321C86.8705 3.18959 89.6824 3.05329 92.4943 2.92235C92.752 2.91032 92.89 2.86889 93.0189 2.8141C93.0603 2.7954 93.1017 2.76466 93.1569 2.76199C93.7598 2.72859 94.3627 2.69786 94.9655 2.66713C95.1542 2.7032 95.3429 2.73795 95.5316 2.77403C95.6742 2.72325 95.8124 2.67114 95.955 2.62036C96.8663 2.58161 97.7636 2.52148 98.6841 2.50277C98.7439 2.50144 98.8083 2.52683 98.8727 2.54019C99.3007 2.62437 99.5446 2.61769 99.8162 2.50545C99.9128 2.46536 99.9956 2.42929 100.143 2.42261C100.598 2.39855 101.059 2.38252 101.51 2.35446C101.754 2.33976 101.956 2.35312 102.131 2.40122C102.255 2.43596 102.384 2.45067 102.536 2.44265C103.374 2.40257 104.207 2.36381 105.044 2.32105C105.104 2.31838 105.159 2.29566 105.205 2.27962C105.302 2.24488 105.385 2.20748 105.477 2.1714C105.601 2.19411 105.739 2.21149 105.84 2.24088C105.969 2.27562 106.089 2.27562 106.264 2.26626C109.605 2.10458 112.951 1.94691 116.292 1.78389C116.577 1.77053 116.701 1.82666 116.895 1.85605C116.959 1.86674 117.023 1.8801 117.092 1.88277C117.166 1.88544 117.244 1.87743 117.318 1.87343C119.826 1.75317 122.334 1.63424 124.842 1.51398C125.174 1.49794 125.174 1.49794 125.666 1.58079C125.726 1.59148 125.804 1.60351 125.869 1.5995C127.01 1.54739 128.151 1.49127 129.288 1.43782C129.435 1.43114 129.56 1.45252 129.693 1.48325C129.955 1.54338 129.974 1.54338 130.167 1.45519C130.259 1.41377 130.356 1.38837 130.508 1.37634C130.673 1.36298 130.807 1.36701 130.936 1.39106C131.12 1.42446 131.253 1.48057 131.534 1.46588C132.749 1.40307 133.968 1.35097 135.179 1.28683C135.455 1.27213 135.602 1.31756 135.786 1.35096C135.851 1.36299 135.91 1.3817 135.979 1.38571C136.049 1.38972 136.131 1.38035 136.205 1.37634C137.724 1.30419 139.247 1.23338 140.761 1.15588C141.046 1.14119 141.171 1.19863 141.364 1.22803C141.428 1.23872 141.502 1.25743 141.562 1.25476C142.473 1.21334 143.389 1.16923 144.3 1.12514C144.627 1.1091 144.627 1.11044 145.124 1.19195C145.184 1.20264 145.262 1.21333 145.326 1.21066C146.389 1.16122 147.457 1.11044 148.52 1.05966C148.847 1.04363 148.847 1.04363 149.79 1.11312C149.859 1.11846 149.933 1.12649 150.002 1.12382C151.217 1.06636 152.437 1.01023 153.652 0.948765C153.895 0.936739 154.098 0.947426 154.273 0.995529C154.397 1.03027 154.526 1.04498 154.678 1.03696C156.045 0.971485 157.416 0.908686 158.778 0.839203C159.041 0.825841 159.211 0.855226 159.395 0.893976C159.455 0.907338 159.515 0.926049 159.584 0.931394C159.653 0.936739 159.731 0.93139 159.805 0.927381C161.171 0.861907 162.543 0.800444 163.905 0.729625C164.181 0.714927 164.328 0.760356 164.513 0.793761C164.577 0.805787 164.646 0.82984 164.701 0.828503C165.235 0.805788 165.769 0.785752 166.298 0.752347C166.583 0.73364 166.708 0.795094 166.901 0.824491C166.965 0.833844 167.039 0.853897 167.099 0.851225C168.24 0.799113 169.382 0.744332 170.518 0.688211C170.679 0.680194 170.799 0.692209 170.928 0.72695C171.098 0.773718 171.296 0.792425 171.545 0.777727C172.074 0.746994 172.608 0.725621 173.141 0.700233C173.454 0.685534 173.454 0.685539 174.412 0.755022C174.481 0.760367 174.554 0.768378 174.623 0.765706C175.535 0.722947 176.45 0.681527 177.357 0.63476C177.601 0.621398 177.803 0.63342 177.978 0.681524C178.103 0.716265 178.227 0.730971 178.383 0.722954C179.221 0.682868 180.054 0.642778 180.891 0.602692C181.195 0.587994 181.499 0.5626 181.803 0.5626C182.024 0.563936 182.185 0.628071 182.383 0.66014C182.438 0.669493 182.53 0.658816 182.603 0.656144C183.666 0.605368 184.734 0.558596 185.793 0.501139C186.069 0.486441 186.216 0.531869 186.4 0.565275C186.465 0.5773 186.534 0.601353 186.589 0.600017C186.971 0.585319 187.348 0.565274 187.73 0.547903C188.186 0.526524 188.646 0.510489 189.097 0.481093C189.465 0.457041 189.603 0.573287 189.898 0.577296C190.123 0.581304 190.353 0.558593 190.579 0.547903C191.034 0.526524 191.49 0.502475 191.946 0.483768C192.107 0.477087 192.231 0.455698 192.282 0.407595C192.291 0.398241 192.213 0.378207 192.162 0.366181C191.55 0.229888 191.55 0.229881 190.933 0.259278C190.551 0.277985 190.174 0.296695 189.792 0.312729C189.727 0.315402 189.654 0.304713 189.589 0.296696C189.405 0.27398 189.424 0.247259 189.58 0.199155C189.737 0.151052 189.856 0.0922638 189.99 0.0374794C190.178 0.0722207 190.363 0.10695 190.551 0.141691C190.703 0.13501 190.855 0.127005 191.007 0.120324C191.766 0.0855822 192.525 0.049502 193.285 0.017433C193.34 0.0147606 193.409 0.0414886 193.473 0.0548507C193.658 0.0936007 193.823 0.126997 194.09 0.112298C194.771 0.0735485 195.457 0.0454881 196.138 0.0120829C196.437 -0.00261533 196.437 -0.00261402 196.962 0.0802308C197.022 0.0895842 197.1 0.100275 197.164 0.0976021C197.85 0.0668694 198.531 0.0334681 199.217 0.00139916C199.364 -0.00528187 199.507 0.0120882 199.613 0.0508382C199.654 0.0668726 199.645 0.0935916 199.82 0.312729C200.363 0.490445 200.736 0.471747 201.113 0.455713C201.274 0.449032 201.417 0.442344 201.523 0.41562C201.578 0.400922 201.647 0.379539 201.647 0.362168C201.647 0.348806 201.546 0.327423 201.481 0.324751C201.026 0.298027 200.593 0.354155 200.147 0.366181C199.939 0.371526 199.76 0.324758 199.723 0.248594C199.714 0.227215 199.7 0.204501 199.686 0.183121C199.673 0.161742 199.663 0.139028 199.65 0.117649C199.47 0.110967 199.364 0.135015 199.286 0.180446C199.222 0.21786 199.129 0.260619 199.005 0.280662C198.881 0.302041 198.711 0.29804 198.559 0.304721C198.412 0.311402 198.251 0.32877 198.112 0.319417C197.974 0.308727 197.864 0.269971 197.735 0.245919C197.675 0.233893 197.602 0.216529 197.542 0.219202C197.013 0.241917 196.488 0.264624 195.963 0.294021C195.687 0.310055 195.549 0.253943 195.374 0.219202C195.236 0.192477 195.098 0.19915 195.075 0.260615C195.015 0.407598 195.227 0.46906 195.696 0.441C196.083 0.416948 196.433 0.412952 196.736 0.503814C196.778 0.51584 196.874 0.521183 196.934 0.518511C197.312 0.502476 197.684 0.482431 198.062 0.466397C198.131 0.463724 198.205 0.46906 198.269 0.474405C199.208 0.54656 199.208 0.547904 199.525 0.531869C199.677 0.523852 199.824 0.51717 199.811 0.314067C200.101 0.0962653 200.561 0.0815696 201.007 0.0495006C201.297 0.0294575 201.421 0.0882533 201.61 0.118986C201.674 0.129676 201.744 0.151051 201.803 0.148379C202.793 0.104284 203.778 0.0575101 204.762 0.00807041C204.928 5.31674e-05 205.048 0.00807171 205.177 0.0428131C205.342 0.0869079 205.526 0.114974 205.789 0.0989396C206.313 0.0668707 206.847 0.0468321 207.381 0.020108C207.653 0.00674594 207.653 0.00673225 208.2 0.0895771C208.26 0.0989305 208.338 0.109621 208.403 0.106948C208.937 0.0842329 209.466 0.056181 209.995 0.0321293C210.142 0.0254483 210.276 0.0441532 210.391 0.0802308C210.506 0.116308 210.644 0.135013 210.787 0.128332C211.32 0.104281 211.85 0.0775649 212.379 0.0535132C212.443 0.0508408 212.522 0.0601936 212.581 0.069547C213.143 0.152392 213.143 0.152378 213.401 0.139016C213.778 0.118973 214.165 0.10963 214.537 0.0829058C214.901 0.0561817 215.09 0.133675 215.338 0.176434C216.019 0.145701 216.705 0.12032 217.381 0.0829058C217.658 0.0668713 217.805 0.110962 217.989 0.145704C218.053 0.157729 218.118 0.18312 218.178 0.181784C218.408 0.176439 218.633 0.161743 218.859 0.151054C219.084 0.140364 219.314 0.129676 219.54 0.118986C219.798 0.157736 219.968 0.248597 220.336 0.217864C220.557 0.199157 220.792 0.195148 221.017 0.184459C221.243 0.173769 221.473 0.163081 221.698 0.152391C221.85 0.14571 222.007 0.141696 222.154 0.12967C222.425 0.109627 222.559 0.175109 222.752 0.204505C222.817 0.213859 222.89 0.229883 222.95 0.22721C223.406 0.208503 223.866 0.19247 224.312 0.161737C224.657 0.137686 224.892 0.177777 225.136 0.233898C225.187 0.245924 225.274 0.252604 225.338 0.249932C225.872 0.227216 226.401 0.199148 226.931 0.175096C227.073 0.168415 227.212 0.189794 227.327 0.224535C227.446 0.260613 227.58 0.277997 227.727 0.271316C228.256 0.247264 228.79 0.220532 229.319 0.19648C229.384 0.193808 229.462 0.204499 229.522 0.215189C230.037 0.298034 230.037 0.299371 230.341 0.283337C230.415 0.279328 230.493 0.276645 230.566 0.272637C230.944 0.25393 231.335 0.247258 231.703 0.215189C232.127 0.179111 232.435 0.224544 232.734 0.300708C233.111 0.284674 233.498 0.275318 233.866 0.248594C234.142 0.228551 234.29 0.279324 234.474 0.312729C234.538 0.324755 234.607 0.348807 234.662 0.346135C235.196 0.323419 235.73 0.303383 236.255 0.269978C236.54 0.251271 236.664 0.311389 236.857 0.342122C236.922 0.352812 236.991 0.371528 237.051 0.368856C237.354 0.358166 237.658 0.342124 237.962 0.327426C238.316 0.310055 238.316 0.31139 238.786 0.392899C239.007 0.431649 239.228 0.400915 239.444 0.391561C239.674 0.380871 239.89 0.372857 240.074 0.427641C240.189 0.462383 240.328 0.483763 240.47 0.478418C240.774 0.466392 241.082 0.454372 241.381 0.434329C241.621 0.418294 241.828 0.428978 242.003 0.478418C242.127 0.513159 242.256 0.53054 242.408 0.522523C243.089 0.490454 243.774 0.457037 244.456 0.426304C244.515 0.423631 244.598 0.435662 244.653 0.447688C244.782 0.471739 244.907 0.498458 245.031 0.525182C245.33 0.513156 245.638 0.507825 245.933 0.489118C246.246 0.470411 246.531 0.463728 246.775 0.537219C246.826 0.553254 246.899 0.575957 246.959 0.574621C247.189 0.569276 247.415 0.555918 247.64 0.545228C247.866 0.534539 248.096 0.52385 248.321 0.51316C248.584 0.546566 248.749 0.642771 249.118 0.612038C249.338 0.593332 249.573 0.589323 249.799 0.578633C250.024 0.567944 250.254 0.555919 250.48 0.546566C250.553 0.543893 250.636 0.537208 250.701 0.542553C250.77 0.547898 250.829 0.566609 250.889 0.579971C251.073 0.618721 251.244 0.657475 251.506 0.63476C251.727 0.616053 251.962 0.612043 252.187 0.600017C252.495 0.585319 252.495 0.585322 253.006 0.669503C253.213 0.704244 253.448 0.658815 253.646 0.688211C253.779 0.708255 253.894 0.741653 254.023 0.764368C254.079 0.773722 254.166 0.777724 254.23 0.775052C254.534 0.763026 254.842 0.751006 255.142 0.730963C255.386 0.714928 255.588 0.730961 255.758 0.779064C255.883 0.813806 256.007 0.828512 256.163 0.820495C256.923 0.783081 257.682 0.751001 258.437 0.709579C258.695 0.694881 258.902 0.717602 259.044 0.765706C259.288 0.84855 259.633 0.751009 259.886 0.81782C260.043 0.859242 260.199 0.907348 260.485 0.887305C261.009 0.852564 261.543 0.833846 262.072 0.809794C262.261 0.845872 262.45 0.881958 262.643 0.918035C262.947 0.903337 263.251 0.888629 263.554 0.875267C263.78 0.864578 264.01 0.852553 264.235 0.8432C264.309 0.840527 264.387 0.835181 264.456 0.841862C264.525 0.848543 264.581 0.865918 264.645 0.87928C264.963 0.944754 264.962 0.946097 265.487 0.919373C265.713 0.907347 265.929 0.899329 266.118 0.952778C266.293 1.00222 266.5 1.01156 266.739 0.996867C267.19 0.970143 267.646 0.950101 268.106 0.931394C268.248 0.924713 268.382 0.947429 268.502 0.98217C268.681 1.03695 268.902 1.03161 269.127 1.01691C269.427 0.998206 269.721 0.979503 269.974 1.05433C270.025 1.07037 270.103 1.09307 270.158 1.09173C270.536 1.08104 270.918 1.07303 271.286 1.04764C271.654 1.02226 271.833 1.1051 272.087 1.14518C272.464 1.12781 272.846 1.11044 273.223 1.09307C273.297 1.08906 273.384 1.07704 273.449 1.08372C273.72 1.11178 273.877 1.212 274.25 1.18126C274.466 1.16389 274.701 1.15855 274.926 1.15455C274.986 1.15321 275.064 1.17591 275.106 1.19329C275.129 1.20264 275.106 1.22802 275.078 1.24139C274.995 1.2788 274.894 1.31355 274.82 1.3523C274.811 1.35765 274.898 1.38169 274.949 1.39238C275.073 1.41643 275.216 1.41243 275.382 1.40174C275.524 1.39239 275.672 1.41109 275.773 1.45118C275.814 1.46721 275.8 1.49394 275.713 1.58213C275.713 1.6476 275.81 1.6182 275.842 1.57544C275.892 1.51397 275.796 1.49393 275.612 1.52734C275.483 1.55139 275.419 1.58613 275.451 1.61419C275.469 1.62889 275.557 1.6476 275.713 1.58213C276.118 1.50195 276.422 1.48726 276.726 1.47256C276.804 1.46856 276.896 1.45518 276.951 1.4632C277.149 1.49527 277.333 1.53403 277.526 1.5701C277.747 1.56209 277.954 1.54204 278.171 1.59415C278.474 1.66764 278.488 1.66096 278.783 1.64626C278.935 1.63824 279.086 1.63157 279.238 1.62489C279.39 1.61821 279.51 1.63825 279.643 1.66898C279.915 1.73178 279.938 1.73178 280.117 1.64626C280.223 1.59415 280.297 1.57678 280.43 1.60083C280.872 1.68234 280.877 1.68768 281.254 1.66363C281.567 1.64359 281.861 1.63825 282.092 1.71441C282.248 1.76786 282.299 1.75583 282.423 1.69971C282.754 1.55139 282.906 1.55406 283.527 1.66096C283.817 1.71173 284.116 1.65695 284.411 1.65027C284.66 1.64493 284.834 1.67699 284.853 1.76117C284.867 1.81329 284.908 1.85071 285.074 1.86808C285.138 1.87476 285.216 1.88411 285.281 1.88143C285.663 1.8654 286.04 1.84669 286.422 1.82798C286.615 1.81863 286.721 1.75584 286.684 1.673C286.643 1.58481 286.717 1.55272 286.993 1.52734C287.158 1.51264 287.292 1.51532 287.425 1.53937C287.573 1.5661 287.531 1.59015 287.402 1.63825C287.094 1.75584 287.131 1.82798 287.527 1.90949C287.665 1.93755 287.775 1.96295 287.807 2.00437C287.826 2.02575 287.807 2.05381 287.849 2.06984C288.074 2.15937 288.387 2.21683 288.737 2.25959C289.073 2.22351 289.303 2.28363 289.561 2.33174C289.763 2.36915 290.003 2.33709 290.219 2.32373C290.463 2.30903 290.665 2.31971 290.84 2.36915C290.964 2.4039 291.093 2.41992 291.245 2.41324C291.549 2.39854 291.857 2.3892 292.156 2.36782C292.414 2.34911 292.607 2.37584 292.768 2.42127C292.971 2.47872 293.196 2.43997 293.408 2.44799C293.693 2.45734 293.836 2.57626 294.209 2.54419C294.43 2.52548 294.66 2.5188 294.89 2.51346C294.95 2.51212 295.023 2.53484 295.074 2.55088C295.318 2.62437 295.603 2.62036 295.916 2.59898C296.133 2.58428 296.344 2.57092 296.556 2.6217C296.906 2.70722 297.292 2.78205 297.66 2.86088C297.711 2.92235 297.674 2.99449 297.937 3.03057C298.075 3.04928 298.203 3.07735 298.309 3.10808C298.438 3.14416 298.558 3.15351 298.723 3.14416C299.023 3.12545 299.336 3.12143 299.63 3.09738C299.902 3.076 300.072 3.12011 300.238 3.16153C300.371 3.19494 300.495 3.21096 300.656 3.18691C300.822 3.1642 300.942 3.17889 301.075 3.21497C301.264 3.26441 301.278 3.25907 301.904 3.27377C301.968 3.2751 302.046 3.29514 302.083 3.31251C302.101 3.32186 302.06 3.3486 302.028 3.36196C301.986 3.378 301.922 3.39669 301.862 3.4007C301.181 3.43544 300.495 3.46618 299.814 3.50092C299.745 3.50493 299.672 3.51429 299.621 3.52765C299.566 3.54235 299.497 3.56238 299.497 3.58109C299.497 3.59445 299.589 3.61049 299.653 3.61984C299.856 3.65057 300.095 3.60381 300.293 3.63855C300.426 3.66127 300.537 3.69333 300.67 3.71471C300.725 3.72406 300.813 3.72273 300.882 3.72006C301.112 3.7107 301.338 3.69734 301.568 3.68933C301.632 3.68799 301.706 3.70136 301.766 3.71205C302.207 3.79222 302.207 3.79222 302.589 3.77485C302.741 3.76816 302.902 3.74812 303.045 3.75614C303.183 3.76415 303.303 3.80023 303.427 3.82295C303.685 3.87105 303.928 3.91782 303.947 4.02204C303.956 4.06213 304.108 4.09686 304.26 4.09953C304.407 4.10221 304.564 4.08752 304.715 4.0795C305.074 4.06347 305.074 4.06347 305.539 4.14498C305.668 4.16769 305.806 4.17036 305.972 4.157C306.036 4.15165 306.115 4.15701 306.184 4.16369C306.409 4.18373 306.409 4.20911 306.262 4.25721C306.055 4.32803 306.073 4.33472 306.653 4.39485C306.874 4.41756 307.044 4.46032 307.228 4.49774C307.527 4.55787 307.523 4.55786 307.325 4.63669C307.279 4.65406 307.237 4.67277 307.191 4.69148C307.058 4.74359 306.952 4.79971 306.676 4.80506C306.372 4.8104 306.068 4.83179 305.765 4.84649C305.47 4.86118 305.392 4.89324 305.42 4.9841C305.452 5.09367 305.512 5.1057 306.041 5.10436C306.193 5.10436 306.326 5.11505 306.441 5.15113C306.386 5.19389 306.285 5.22729 306.138 5.23531C305.76 5.25535 305.378 5.27273 305.001 5.2901C304.697 5.3048 304.393 5.31949 304.09 5.33419C303.901 5.34354 303.781 5.41303 303.832 5.49053C303.859 5.53463 303.882 5.57872 303.905 5.62281C303.956 5.711 304.053 5.73373 304.361 5.72972C304.439 5.72838 304.513 5.71768 304.587 5.72035C304.886 5.72971 305.028 5.84061 305.387 5.81789C305.686 5.79919 306 5.79518 306.294 5.77113C306.566 5.74975 306.717 5.79787 306.906 5.83395C306.97 5.84597 307.04 5.87135 307.095 5.87001C307.477 5.85531 307.859 5.84062 308.232 5.81524C308.406 5.80455 308.512 5.81256 308.65 5.84463C308.982 5.92213 308.991 5.91812 309.483 5.89407C309.842 5.87536 309.847 5.87803 310.307 5.95954C310.436 5.98226 310.574 5.98225 310.74 5.97156C310.956 5.9582 311.181 5.93682 311.407 5.95687C311.476 5.96221 311.563 5.97825 311.586 5.99562C311.6 6.00765 311.536 6.03704 311.481 6.0464C311.076 6.11588 310.602 6.10386 310.16 6.13192C310.022 6.13993 309.884 6.11454 309.769 6.07846C309.649 6.04239 309.52 6.0277 309.364 6.03438C309.06 6.04907 308.752 6.05842 308.452 6.0798C308.195 6.09851 308.015 6.06777 307.836 6.02635C307.776 6.01299 307.707 5.9876 307.647 5.98893C306.966 6.01566 306.28 6.04239 305.604 6.0798C305.332 6.09584 305.176 6.05308 304.992 6.017C304.927 6.00498 304.863 5.97959 304.803 5.98092C304.573 5.98627 304.347 6.00097 304.117 6.01165C303.28 6.05174 302.447 6.09183 301.609 6.12924C301.554 6.13191 301.485 6.10385 301.42 6.09182C301.296 6.06777 301.167 6.04505 301.038 6.02234C300.808 6.03303 300.583 6.04639 300.353 6.05441C300.187 6.05975 300.04 6.07847 300.017 6.12924C300.003 6.16265 300.155 6.19337 300.316 6.1907C300.472 6.18803 300.629 6.17199 300.758 6.18936C301.397 6.27488 301.397 6.27622 301.798 6.25885C302.148 6.24282 302.111 6.22945 302.419 6.30294C302.552 6.33501 302.672 6.35372 302.824 6.34571C303.201 6.327 303.583 6.30829 303.965 6.29225C304.025 6.28958 304.103 6.30295 304.163 6.31364C304.614 6.39381 304.614 6.39648 304.987 6.37644C305.475 6.35239 305.493 6.3457 305.82 6.42721C306.046 6.48333 306.253 6.44458 306.469 6.44191C306.717 6.49402 306.989 6.5408 307.214 6.59959C307.481 6.66907 307.762 6.65703 308.066 6.63699C308.291 6.62229 308.512 6.61695 308.696 6.67173C308.871 6.72251 309.083 6.72786 309.322 6.7145C309.538 6.70248 309.759 6.67708 309.985 6.70648C310.045 6.71449 310.137 6.73454 310.132 6.74657C310.128 6.76528 310.068 6.792 310.008 6.80002C309.584 6.8548 309.12 6.85346 308.673 6.87885C308.613 6.88286 308.535 6.86816 308.475 6.85747C308.347 6.83342 308.222 6.80536 308.098 6.77997C307.873 6.78799 307.642 6.79066 307.422 6.80669C307.251 6.81872 307.122 6.81739 306.998 6.78532C306.883 6.75593 306.759 6.71984 306.621 6.71049C306.483 6.70113 306.322 6.72118 306.17 6.7292C306.018 6.73721 305.843 6.7332 305.723 6.75458C305.604 6.77596 305.53 6.82273 305.452 6.86014C305.364 6.90157 305.245 6.91494 305.07 6.91894C304.909 6.92295 304.78 6.9176 304.66 6.88019C304.61 6.86415 304.541 6.85212 304.471 6.84143C304.407 6.83208 304.333 6.81738 304.274 6.82005C303.588 6.85078 302.907 6.8842 302.221 6.91627C301.881 6.9323 301.885 6.93229 301.176 6.85346C301.112 6.84677 301.034 6.83742 300.969 6.8401C300.587 6.85613 300.21 6.87484 299.828 6.89355C299.441 6.91225 299.446 6.90958 298.788 6.8254C298.668 6.80937 298.493 6.83075 298.351 6.82807C298.052 6.82139 297.904 6.70916 297.555 6.73053C297.256 6.74924 296.942 6.75325 296.643 6.7773C296.372 6.79868 296.215 6.75192 296.031 6.71584C295.967 6.70381 295.898 6.67709 295.843 6.67976C295.157 6.70915 294.476 6.74256 293.565 6.74657C293.339 6.74657 293.44 6.77463 293.588 6.78399C293.799 6.79868 293.868 6.77062 293.753 6.71718C293.67 6.67976 293.551 6.66104 293.454 6.6704C293.403 6.67574 293.339 6.70114 293.565 6.74657C293.804 6.79734 293.79 6.8254 293.832 6.84143C293.933 6.88018 294.075 6.89622 294.223 6.89087C294.453 6.88152 294.678 6.86816 294.908 6.86014C294.973 6.85747 295.051 6.86682 295.111 6.87751C295.617 6.96036 295.622 6.96571 296.16 6.93364C296.33 6.92429 296.455 6.92429 296.588 6.94967C296.772 6.98442 296.906 7.0432 297.186 7.02449C297.559 6.99911 297.941 6.98442 298.323 6.96972C298.383 6.96705 298.447 6.9911 298.516 7.00179C298.705 7.03386 298.843 7.09399 299.124 7.0686C299.34 7.04856 299.575 7.0432 299.805 7.03919C299.865 7.03785 299.957 7.05924 299.984 7.07661C300.04 7.10734 299.971 7.14343 299.814 7.16881C299.75 7.1795 299.662 7.17683 299.589 7.18084C299.285 7.19553 298.981 7.21156 298.678 7.22359C298.516 7.23027 298.365 7.25032 298.346 7.29976C298.332 7.33317 298.498 7.36256 298.655 7.35988C298.885 7.35587 299.115 7.34519 299.336 7.32782C299.727 7.29842 300.067 7.30643 300.385 7.39061C300.61 7.44941 300.597 7.42804 300.836 7.60174C300.896 7.64584 301.075 7.64984 301.232 7.64717C301.609 7.64049 301.784 7.66054 301.752 7.70196C301.71 7.75274 301.577 7.76876 301.407 7.77544C301.103 7.78613 300.799 7.80351 300.495 7.81821C300.422 7.82222 300.339 7.83023 300.27 7.82756C300.201 7.82488 300.136 7.80885 300.077 7.79682C299.948 7.77144 299.837 7.73268 299.699 7.72333C299.561 7.71397 299.4 7.73402 299.248 7.74204C299.096 7.74872 298.935 7.76876 298.797 7.75941C298.659 7.75005 298.544 7.70998 298.42 7.68593C298.36 7.6739 298.286 7.65518 298.227 7.65652C297.923 7.66721 297.619 7.68459 297.315 7.69795C296.943 7.71532 296.943 7.71532 296.492 7.63247C296.363 7.60842 296.229 7.60976 296.059 7.62045C295.691 7.64183 295.686 7.63781 295.014 7.56031C294.95 7.5523 294.872 7.54295 294.807 7.54696C294.121 7.57769 293.44 7.61109 292.759 7.64316C292.175 7.67122 292.175 7.67123 291.853 7.80485C291.613 7.90373 291.609 7.90372 291.843 7.94915C292.032 7.98657 292.202 8.04135 292.409 8.06139C292.603 8.0801 292.842 8.01997 293.054 8.08144C293.16 8.11217 293.298 8.14558 293.431 8.15092C293.643 8.1576 293.868 8.11885 294.071 8.17764C294.172 8.20704 294.324 8.23778 294.453 8.23912C294.678 8.24179 294.908 8.2204 295.134 8.21105C295.203 8.20837 295.281 8.20838 295.346 8.21506C295.415 8.22308 295.474 8.23911 295.534 8.25248C295.718 8.29791 295.916 8.31928 296.156 8.29657C296.547 8.25915 296.897 8.27786 297.2 8.36338C297.242 8.3754 297.343 8.37675 297.407 8.3714C297.573 8.35804 297.716 8.3567 297.84 8.38208C297.891 8.39277 297.964 8.41147 297.955 8.4235C297.941 8.44354 297.886 8.47027 297.826 8.47695C297.393 8.52238 296.929 8.52773 296.482 8.55178C296.422 8.55446 296.349 8.53708 296.289 8.52505C296.16 8.501 296.05 8.46092 295.912 8.45157C295.774 8.44222 295.613 8.45959 295.461 8.46627C295.309 8.47295 295.148 8.49299 295.01 8.48497C294.872 8.47562 294.743 8.44221 294.632 8.41281C294.503 8.37941 294.379 8.37541 294.209 8.38877C293.988 8.40614 293.758 8.40881 293.532 8.41816C293.408 8.39278 293.284 8.36471 293.155 8.34065C293.095 8.32863 293.022 8.31394 292.957 8.31527C292.653 8.32596 292.35 8.34199 292.046 8.35669C291.742 8.37139 291.742 8.3714 291.227 8.28856C291.167 8.2792 291.089 8.26851 291.024 8.27118C290.642 8.28722 290.265 8.30725 289.883 8.32328C289.736 8.32996 289.602 8.31126 289.483 8.27518C289.367 8.2391 289.229 8.21906 289.087 8.22574C288.479 8.2538 287.872 8.28053 287.264 8.31394C287.02 8.3273 286.813 8.31528 286.648 8.26717C286.454 8.21239 286.238 8.22575 286.013 8.23644C285.502 8.26317 285.497 8.26182 285.17 8.19367C285.106 8.18031 285.042 8.15492 284.982 8.15626C284.452 8.1763 283.919 8.19501 283.394 8.22708C283.118 8.24445 282.971 8.19769 282.786 8.16294C282.722 8.15092 282.653 8.12553 282.598 8.1282C282.216 8.1429 281.834 8.15627 281.461 8.18299C281.088 8.20971 280.946 8.08545 280.665 8.08679C280.283 8.08812 279.906 8.11886 279.528 8.13756C279.224 8.15226 278.921 8.16695 278.617 8.18165C278.313 8.19635 278.009 8.20837 277.706 8.22574C277.545 8.2351 277.425 8.22307 277.292 8.18966C277.121 8.14557 276.919 8.11084 276.735 8.07075C276.454 8.0133 276.454 8.01329 276.113 8.02932C276.04 8.03333 275.962 8.036 275.888 8.04001C275.331 8.0694 275.331 8.06674 274.622 7.98256C274.59 7.97855 274.507 7.99325 274.475 8.00394C274.378 8.03868 274.291 8.07609 274.204 8.11217C274.079 8.09079 273.927 8.07876 273.845 8.04803C273.61 7.96118 273.242 8.0801 273.002 7.99458C272.915 7.96251 272.763 7.93445 272.625 7.92643C272.482 7.91842 272.321 7.93712 272.174 7.94514C271.792 7.96519 271.792 7.96385 271.465 8.08278C271.3 8.14157 271.06 8.13087 270.844 8.14424C270.619 8.15893 270.402 8.16695 270.214 8.11217C270.043 8.06273 269.836 8.05071 269.592 8.06674C269.293 8.08678 268.985 8.0988 268.681 8.11083C268.617 8.1135 268.538 8.10683 268.474 8.09881C267.77 8.01997 267.77 8.01864 267.429 8.03601C267.277 8.04403 267.121 8.04669 266.974 8.05872C266.725 8.0801 266.536 8.05204 266.357 8.00928C266.297 7.99592 266.228 7.97054 266.168 7.97188C265.865 7.97856 265.565 7.99058 265.266 8.00261C265.036 8.01196 264.806 8.0173 264.585 8.03601C264.217 8.06674 264.038 7.97988 263.784 7.93979C263.407 7.95716 263.025 7.96919 262.648 7.99324C262.473 8.00393 262.358 7.99993 262.224 7.96786C262.054 7.92778 261.898 7.88235 261.621 7.90239C261.253 7.92911 260.867 7.93847 260.489 7.9545C260.236 7.91308 260.052 7.82889 259.689 7.85962C259.468 7.87833 259.233 7.88234 259.007 7.89303C258.704 7.90773 258.4 7.9211 258.096 7.93713C257.77 7.95317 257.774 7.94916 257.272 7.87032C256.983 7.82356 256.683 7.87566 256.389 7.88368C256.159 7.89036 256.044 7.95183 256.099 8.03066C256.154 8.1095 256.03 8.17096 255.818 8.18165C255.289 8.20704 254.755 8.23376 254.226 8.25647C254.161 8.25914 254.083 8.24979 254.023 8.24044C253.457 8.15626 253.457 8.15761 253.204 8.16963C252.827 8.18968 252.44 8.20035 252.067 8.22574C251.81 8.24311 251.621 8.21506 251.455 8.16963C251.326 8.13489 251.207 8.12687 251.041 8.13489C249.219 8.22441 247.396 8.30726 245.578 8.39946C245.307 8.41282 245.151 8.37407 244.966 8.338C244.902 8.32597 244.842 8.30058 244.778 8.30058C244.626 8.30058 244.474 8.31261 244.322 8.32062C243.641 8.35269 242.96 8.39144 242.274 8.41549C241.984 8.42618 241.906 8.48765 241.782 8.53843C241.685 8.57718 241.575 8.5932 241.404 8.59855C241.239 8.60389 241.119 8.59721 240.99 8.56247C240.824 8.51704 240.636 8.48897 240.378 8.50768C240.079 8.52906 239.775 8.53842 239.467 8.55312C239.31 8.5598 239.191 8.58385 239.14 8.63195C239.131 8.63997 239.228 8.66002 239.283 8.67205C239.467 8.71213 239.642 8.7589 239.849 8.78696C240.061 8.81502 240.291 8.78294 240.512 8.77492C240.59 8.77225 240.663 8.76424 240.737 8.76557C240.806 8.76691 240.889 8.77359 240.94 8.78562C241.179 8.84575 241.432 8.88717 241.763 8.85109C242.049 8.86846 242.196 8.97937 242.56 8.94997C242.78 8.9326 243.011 8.92459 243.241 8.9179C243.3 8.91657 243.365 8.94062 243.429 8.95265C243.613 8.98605 243.761 9.0395 244.037 9.01678C244.331 8.99273 244.644 8.98872 244.943 8.97002C245.109 8.95933 245.229 8.96868 245.358 9.00342C245.523 9.04752 245.712 9.08091 245.97 9.05953C246.191 9.04083 246.425 9.03682 246.651 9.02479C246.945 9.01009 246.945 9.01143 247.47 9.09428C247.53 9.10363 247.608 9.11432 247.672 9.11165C248.054 9.09561 248.432 9.07557 248.814 9.05953C248.961 9.05285 249.104 9.07022 249.205 9.10897C249.246 9.12501 249.233 9.15175 249.246 9.17446C248.487 9.21054 247.728 9.24127 246.973 9.28536C246.688 9.30273 246.559 9.24795 246.37 9.21721C246.306 9.20652 246.237 9.18381 246.177 9.18648C245.643 9.2092 245.114 9.23324 244.584 9.26264C244.419 9.27199 244.295 9.26665 244.17 9.2279C243.853 9.12501 243.466 9.18113 243.107 9.19583C242.831 9.20652 242.744 9.24795 242.776 9.33614C242.817 9.44036 242.983 9.47243 243.406 9.45372C243.558 9.44704 243.71 9.43769 243.862 9.43234C244.009 9.427 244.143 9.44436 244.262 9.48044C244.377 9.51652 244.515 9.53523 244.658 9.52988C244.962 9.51785 245.27 9.50583 245.565 9.48579C245.809 9.46976 246.011 9.48312 246.181 9.53256C246.37 9.58734 246.591 9.57531 246.812 9.56329C247.327 9.53656 247.332 9.53791 247.654 9.60472C247.718 9.61808 247.783 9.64347 247.843 9.64213C248.372 9.62209 248.906 9.60472 249.426 9.57265C249.697 9.55661 249.854 9.59937 250.033 9.63411C250.098 9.64613 250.162 9.67286 250.222 9.67019C250.604 9.65549 250.986 9.64079 251.359 9.6154C251.534 9.60337 251.639 9.61139 251.782 9.64346C252.123 9.72229 252.132 9.71962 252.615 9.69423C252.762 9.68621 252.923 9.67152 253.061 9.68221C253.2 9.6929 253.31 9.73166 253.439 9.75571C253.499 9.7664 253.572 9.78109 253.637 9.77841C253.94 9.76772 254.244 9.7517 254.548 9.737C254.833 9.7223 254.833 9.72364 255.367 9.80649C255.583 9.84123 255.809 9.81182 256.025 9.80114C256.26 9.78911 256.472 9.78911 256.651 9.84123C256.831 9.89334 257.047 9.89066 257.277 9.87997C257.493 9.86928 257.714 9.83989 257.935 9.87597C258.441 9.95881 258.441 9.96014 258.754 9.9441C259.21 9.92139 259.661 9.90001 260.121 9.87997C260.181 9.87729 260.259 9.89334 260.319 9.90403C260.448 9.92808 260.558 9.96815 260.696 9.97751C260.834 9.9882 260.996 9.97217 261.143 9.96415C261.617 9.93876 261.649 9.92941 261.967 10.0176C262.233 10.0898 262.565 9.98553 262.813 10.0684C262.956 10.1151 263.149 10.1526 263.416 10.1298C263.637 10.1111 263.867 10.1058 264.097 10.0951C264.461 10.0777 264.461 10.0791 264.921 10.1592C264.981 10.1699 265.059 10.1833 265.119 10.1806C265.423 10.1699 265.731 10.1606 266.026 10.1365C266.371 10.1085 266.592 10.1592 266.849 10.2087C267.052 10.2474 267.291 10.2154 267.508 10.202C267.742 10.1886 267.954 10.1926 268.129 10.2447C268.313 10.2982 268.529 10.2915 268.759 10.2808C268.976 10.2715 269.196 10.2407 269.417 10.2782C269.891 10.361 269.891 10.361 270.237 10.345C270.54 10.3303 270.844 10.3142 271.148 10.3035C271.208 10.3009 271.281 10.3182 271.341 10.3303C271.47 10.3543 271.58 10.3944 271.718 10.4038C271.856 10.4131 272.018 10.3958 272.169 10.3891C272.321 10.3824 272.482 10.3623 272.62 10.3704C272.758 10.3784 272.887 10.4118 272.998 10.4412C273.127 10.4759 273.246 10.4799 273.421 10.4666C273.642 10.4492 273.872 10.4452 274.098 10.4358C274.222 10.4612 274.351 10.4866 274.47 10.5147C274.595 10.5441 274.728 10.5414 274.898 10.532C275.464 10.5 275.469 10.504 275.943 10.5868C276.159 10.6242 276.385 10.5935 276.601 10.5842C276.831 10.5735 277.048 10.5681 277.227 10.6216C277.402 10.6723 277.618 10.679 277.848 10.663C277.996 10.6523 278.152 10.6456 278.304 10.6416C278.373 10.6403 278.456 10.6456 278.507 10.6563C278.75 10.7124 278.99 10.7632 279.326 10.7271C279.62 10.7378 279.767 10.8474 280.122 10.826C280.421 10.8073 280.734 10.8033 281.028 10.7792C281.3 10.7579 281.493 10.7953 281.631 10.842C281.88 10.9249 282.23 10.8127 282.478 10.8942C282.621 10.9409 282.805 10.9783 283.081 10.9583C283.385 10.9369 283.481 10.965 283.569 11.0491C283.619 11.0973 283.61 11.136 283.518 11.1734C283.426 11.2122 283.325 11.2055 283.178 11.1614C283.007 11.112 282.805 11.1026 282.561 11.1133C282.322 11.124 282.174 11.0545 281.977 11.0278C281.779 10.9997 281.544 11.0465 281.337 11.0104C280.849 10.9262 280.849 10.9262 280.518 10.9423C280.292 10.953 280.057 10.9583 279.837 10.977C279.574 10.9997 279.404 10.9583 279.224 10.9209C279.16 10.9075 279.096 10.8821 279.04 10.8835C278.511 10.9035 277.977 10.9222 277.453 10.9556C277.176 10.973 277.029 10.9249 276.845 10.8915C276.781 10.8795 276.712 10.8554 276.656 10.8581C276.201 10.8768 275.75 10.9008 275.294 10.9236C275.207 10.9596 275.11 10.9944 275.027 11.0331C274.94 11.0732 274.82 11.0906 274.645 11.0892C274.355 11.0892 274.07 11.1454 273.78 11.0745C273.481 11.0024 273.458 11.0064 273.168 11.0238C272.8 11.0465 272.409 11.0411 272.064 11.0933C272.004 11.1026 271.939 11.128 271.939 11.1467C271.935 11.1587 272.031 11.1761 272.091 11.1868C272.294 11.2188 272.528 11.1721 272.731 11.2055C272.864 11.2269 272.975 11.2589 273.108 11.2816C273.163 11.291 273.246 11.2897 273.32 11.2883C273.398 11.287 273.472 11.2777 273.545 11.279C273.614 11.2803 273.688 11.2883 273.743 11.3004C273.997 11.3511 274.263 11.3979 274.489 11.458C274.71 11.5168 274.917 11.4767 275.138 11.4741C276.021 11.5676 276.021 11.5689 276.615 11.5395C276.762 11.5329 276.914 11.5248 277.066 11.5262C277.131 11.5262 277.19 11.5502 277.255 11.5636C277.439 11.6037 277.614 11.6398 277.871 11.6184C278.092 11.5997 278.327 11.5957 278.553 11.5836C278.856 11.5689 278.856 11.5689 279.372 11.6531C279.501 11.6745 279.639 11.6718 279.804 11.6611C279.947 11.6518 280.094 11.6718 280.195 11.7106C280.237 11.7266 280.223 11.7533 280.237 11.7761C279.781 11.7974 279.321 11.8121 278.879 11.8442C278.594 11.8642 278.465 11.8068 278.276 11.7761C278.212 11.7654 278.143 11.7427 278.083 11.7453C277.632 11.7654 277.181 11.7881 276.73 11.8148C276.675 11.8175 276.606 11.8482 276.601 11.8669C276.592 11.9016 276.707 11.9351 276.873 11.9337C277.094 11.9324 277.31 11.9097 277.508 11.9644C277.674 12.0125 277.881 12.0339 278.124 12.0126C278.272 12.0005 278.428 12.0005 278.576 11.9898C278.967 11.9578 279.321 11.9645 279.616 12.0553C279.841 12.0794 280.062 12.0567 280.278 12.0446C280.439 12.0353 280.596 12.0259 280.711 12.0513C280.955 12.1048 281.194 12.1582 281.53 12.1221C281.894 12.1595 282.17 12.2384 282.474 12.3025C282.616 12.3332 282.727 12.3506 282.892 12.3306C282.961 12.3226 283.044 12.3226 283.118 12.3185C283.27 12.3119 283.431 12.2918 283.569 12.2998C283.707 12.3092 283.822 12.3479 283.946 12.372C284.006 12.384 284.075 12.4041 284.135 12.4027C284.365 12.396 284.59 12.3827 284.816 12.372C285.041 12.3626 285.267 12.3533 285.492 12.3439C285.681 12.3787 285.874 12.4134 286.063 12.4482C286.367 12.4335 286.671 12.4188 286.97 12.4054C287.306 12.3894 287.306 12.3907 287.789 12.4735C288.005 12.511 288.235 12.4869 288.442 12.4695C288.788 12.4415 289.018 12.4923 289.262 12.5457C289.312 12.5564 289.404 12.5631 289.464 12.5577C289.703 12.539 289.91 12.5537 290.085 12.6032C290.21 12.6379 290.334 12.6539 290.486 12.6473C291.015 12.6219 291.544 12.5951 292.073 12.5724C292.138 12.5698 292.212 12.5818 292.271 12.5925C292.741 12.674 292.745 12.678 293.091 12.6566C293.399 12.6379 293.684 12.6299 293.928 12.7034C293.979 12.7194 294.057 12.7421 294.112 12.7408C294.49 12.7274 294.872 12.7127 295.244 12.69C295.415 12.6793 295.534 12.6833 295.668 12.7141C295.838 12.7528 295.99 12.7996 296.271 12.7822C297.048 12.7328 297.053 12.7408 297.973 12.833C298.038 12.8397 298.125 12.829 298.199 12.8236C298.355 12.8103 298.47 12.829 298.608 12.8597C298.917 12.9292 298.926 12.9252 299.221 12.9105C299.446 12.8985 299.681 12.8958 299.902 12.8757C300.242 12.8464 300.468 12.8985 300.721 12.9479C300.923 12.9867 301.158 12.9546 301.374 12.9426C301.609 12.9292 301.821 12.9332 301.996 12.984C302.115 13.0187 302.244 13.0374 302.396 13.0308C302.925 13.0067 303.455 12.98 303.984 12.9559C304.048 12.9532 304.126 12.9639 304.186 12.9733C304.711 13.0561 304.711 13.0601 305.231 13.0294C305.397 13.0201 305.535 13.0174 305.659 13.0454C305.779 13.0722 305.907 13.0976 306.032 13.1229C306.257 13.1136 306.487 13.1109 306.708 13.0949C306.878 13.0829 306.998 13.0882 307.132 13.1163C307.306 13.1523 307.454 13.2151 307.73 13.1844C307.872 13.1697 308.038 13.1737 308.181 13.1604C308.351 13.143 308.466 13.1537 308.6 13.1884C308.765 13.2298 308.936 13.2726 309.202 13.2512C309.497 13.2272 309.81 13.2232 310.109 13.2044C310.275 13.1938 310.39 13.2045 310.523 13.2392C310.689 13.2833 310.878 13.3114 311.135 13.294C311.66 13.2606 311.665 13.2672 312.175 13.3514C312.304 13.3728 312.442 13.3701 312.608 13.3595C312.751 13.3501 312.898 13.3701 312.999 13.4089C313.096 13.4517 313.087 13.4784 313.096 13.5011ZM272.087 1.44984C271.935 1.45652 271.783 1.46454 271.562 1.34829C271.548 1.32825 271.557 1.3042 271.525 1.28683C271.452 1.25075 271.336 1.22537 271.198 1.22136C270.95 1.21601 270.651 1.26143 270.655 1.29618C270.66 1.32557 270.738 1.35096 270.89 1.37501C270.954 1.38436 271.005 1.4004 271.065 1.41109C271.24 1.44182 271.378 1.50196 271.631 1.47123C271.585 1.38838 271.608 1.4298 271.631 1.47123C271.608 1.522 271.677 1.55808 271.843 1.57278C271.889 1.57679 271.958 1.57411 271.995 1.56609C272.137 1.5367 272.16 1.49662 272.054 1.39106C272.036 1.40843 272.05 1.43915 272.091 1.44717C272.133 1.45519 272.234 1.44851 272.284 1.43916C272.413 1.41377 272.478 1.38036 272.446 1.3523C272.427 1.3376 272.34 1.3189 272.284 1.3189C272.188 1.3189 272.1 1.34829 272.087 1.44984ZM309.299 16.9458C308.963 16.9712 308.577 16.9619 308.241 17.014C308.181 17.0233 308.121 17.0474 308.116 17.0661C308.112 17.0781 308.204 17.0955 308.259 17.1048C308.383 17.1262 308.521 17.1195 308.682 17.1129C308.926 17.1035 309.069 17.165 309.258 17.1957C309.318 17.2051 309.396 17.2117 309.46 17.2091C309.833 17.193 310.201 17.1757 310.574 17.157C310.638 17.153 310.707 17.1436 310.763 17.1316C310.947 17.0928 310.928 17.0674 310.749 17.038C310.551 17.006 310.395 16.9525 310.192 16.9271C309.902 16.891 309.607 16.9391 309.299 16.9458ZM283.164 17.9213C282.938 17.932 282.717 17.9426 282.492 17.9533C282.418 17.9573 282.34 17.9587 282.271 17.964C282.128 17.9734 282.022 18.0014 281.953 18.0455C282.059 18.0803 282.188 18.1003 282.331 18.0963C282.556 18.0883 282.777 18.0709 283.003 18.0669C283.247 18.0616 283.389 18.1217 283.578 18.1524C283.638 18.1618 283.711 18.1631 283.78 18.1644C284.121 18.1698 284.328 18.1003 284.264 18.0028C284.218 17.9266 284.043 17.8812 283.831 17.8905C283.61 17.8999 283.385 17.9106 283.164 17.9213ZM310.873 14.9709C310.928 14.9482 310.988 14.9322 311.016 14.9121C311.099 14.844 311.066 14.7932 310.914 14.7397C310.73 14.6743 310.505 14.7184 310.298 14.7251C310.247 14.7264 310.192 14.7544 310.164 14.7718C310.146 14.7838 310.146 14.8092 310.174 14.8159C310.399 14.8694 310.638 14.9188 310.873 14.9709ZM270.95 11.0238C270.729 11.0345 270.504 11.0425 270.283 11.0572C270.227 11.0612 270.177 11.0866 270.145 11.1039C270.085 11.136 270.149 11.1801 270.338 11.1841C270.554 11.1895 270.78 11.1667 271.005 11.1561C271.29 11.1427 271.461 11.0932 271.355 11.0505C271.254 11.0091 271.116 11.0011 270.95 11.0238ZM28.6999 8.16829C28.8472 8.16161 28.999 8.15626 29.1463 8.14691C29.2844 8.13756 29.3903 8.10816 29.4593 8.06407C29.3443 8.02933 29.2154 8.01062 29.0727 8.01463C28.8472 8.02264 28.6263 8.03333 28.4054 8.04669C28.2674 8.05471 28.1339 8.08411 28.1017 8.12954C28.0695 8.16428 28.3778 8.18433 28.6999 8.16829ZM251.488 7.96251C251.547 7.97454 251.607 7.99859 251.667 7.99859C251.814 7.99859 251.966 7.99057 252.104 7.97721C252.164 7.97186 252.21 7.94781 252.238 7.92911C252.256 7.91708 252.252 7.89571 252.224 7.88502C252.091 7.82088 251.557 7.8436 251.469 7.91709C251.46 7.93045 251.483 7.94781 251.488 7.96251ZM236.968 0.645444C236.982 0.666823 236.986 0.6882 237.005 0.709579C237.042 0.749665 237.143 0.779068 237.29 0.799111C237.405 0.765706 237.465 0.728298 237.46 0.688211C237.456 0.666832 237.442 0.645439 237.424 0.62406C237.387 0.583974 237.286 0.554587 237.138 0.534544C237.023 0.566613 236.968 0.604021 236.968 0.645444ZM321.508 18.1538C321.467 18.1711 321.426 18.1885 321.38 18.2045C321.504 18.2433 321.619 18.2553 321.706 18.2339C321.762 18.2206 321.794 18.2005 321.835 18.1832C321.711 18.1444 321.601 18.1337 321.508 18.1538ZM318.646 18.3355C318.706 18.3475 318.761 18.3636 318.826 18.3716C318.931 18.3849 319.028 18.3622 319.102 18.3141C319.042 18.3021 318.987 18.286 318.922 18.278C318.816 18.2647 318.72 18.2874 318.646 18.3355ZM320.459 18.091C320.427 18.123 320.491 18.1498 320.662 18.1725C320.703 18.1551 320.758 18.1391 320.786 18.1204C320.832 18.0896 320.754 18.0616 320.588 18.0402C320.542 18.0562 320.501 18.0736 320.459 18.091ZM310.744 16.6505C310.712 16.6826 310.776 16.7093 310.947 16.732C310.988 16.7147 311.043 16.6986 311.071 16.6799C311.117 16.6492 311.039 16.6211 310.873 16.5998C310.827 16.6158 310.786 16.6332 310.744 16.6505ZM297.509 7.19553C297.467 7.2129 297.426 7.23027 297.38 7.24631C297.504 7.28506 297.619 7.29708 297.706 7.2757C297.762 7.26234 297.794 7.2423 297.835 7.22492C297.711 7.18617 297.601 7.17549 297.509 7.19553ZM284.83 2.17941C284.94 2.18876 285.032 2.17006 285.111 2.12062C285.051 2.1086 284.995 2.09256 284.931 2.08454C284.825 2.07118 284.729 2.0939 284.655 2.142C284.715 2.15537 284.775 2.16738 284.83 2.17941ZM278.097 1.8654C278.056 1.88277 278.014 1.90014 277.968 1.91618C278.092 1.95493 278.207 1.96695 278.295 1.94557C278.35 1.93221 278.382 1.91216 278.424 1.89479C278.299 1.85604 278.189 1.84669 278.097 1.8654ZM232.44 0.644106C232.398 0.661477 232.357 0.678848 232.311 0.694883C232.435 0.733633 232.55 0.745655 232.637 0.724275C232.693 0.710913 232.725 0.69087 232.766 0.673499C232.642 0.634749 232.532 0.625399 232.44 0.644106ZM5.10032 11.5155C5.04049 11.5035 4.98072 11.4914 4.92549 11.4781C4.79203 11.5142 4.75063 11.5476 4.82426 11.5729C4.87028 11.589 4.93926 11.5983 4.99909 11.6104C5.13715 11.5743 5.16935 11.5422 5.10032 11.5155Z" fill="#FFE492"/>
<path d="M32.3082 6.7974C31.779 6.82279 31.2544 6.85485 30.7251 6.87088C30.4444 6.8789 30.3432 6.93636 30.2282 6.98981C30.1361 7.03257 30.0302 7.04593 29.86 7.05394C28.4241 7.11942 26.9928 7.1889 25.5616 7.25705C25.3821 7.23968 25.2947 7.21162 25.3361 7.17822C25.3591 7.15818 25.4143 7.13011 25.4696 7.12744C26.4498 7.078 27.4254 7.02722 28.4102 6.98847C28.691 6.97778 28.7692 6.91899 28.9119 6.87088C28.9579 6.85485 28.9948 6.8308 29.0546 6.82145C29.1144 6.81076 29.2019 6.8121 29.2801 6.80942C30.8632 6.73326 32.4464 6.65844 34.0295 6.58228C34.209 6.59965 34.2964 6.6277 34.255 6.66111C34.232 6.68115 34.1767 6.70921 34.1215 6.71188C33.514 6.73994 32.9111 6.76801 32.3082 6.7974Z" fill="#FFE492"/>
<path d="M321.303 13.9127C321.064 13.9287 320.76 13.9514 320.511 13.8739C320.392 13.8365 320.263 13.8245 320.106 13.8325C319.881 13.8458 319.651 13.8565 319.421 13.8646C319.361 13.8659 319.283 13.8512 319.223 13.8392C319.094 13.8151 318.984 13.775 318.845 13.7643C318.707 13.7536 318.542 13.783 318.399 13.7764C318.21 13.767 318.132 13.7309 318.183 13.6975C318.21 13.6788 318.266 13.6521 318.325 13.6481C319.177 13.5986 319.181 13.5986 319.421 13.6468C319.605 13.6842 319.775 13.7256 320.037 13.7029C320.258 13.6842 320.493 13.6801 320.719 13.6681C321.031 13.6521 321.032 13.6534 321.538 13.7376C321.667 13.759 321.805 13.7577 321.97 13.7456C322.113 13.7363 322.251 13.7577 322.366 13.7937C322.292 13.8392 322.187 13.8686 322.044 13.8766C321.814 13.8899 321.588 13.8993 321.303 13.9127Z" fill="#FFE492"/>
<path d="M313.797 13.5013C314.377 13.4732 314.961 13.4492 315.541 13.4171C315.78 13.4037 315.969 13.4184 316.135 13.4639C316.314 13.5133 316.517 13.5093 316.738 13.4999C316.876 13.4946 317.009 13.516 317.101 13.5534C317.138 13.5681 317.129 13.5948 317.143 13.6162C316.636 13.6402 316.126 13.6656 315.615 13.687C315.555 13.6897 315.481 13.6763 315.426 13.6656C315.302 13.6429 315.196 13.6028 315.062 13.5948C314.777 13.5761 314.492 13.6122 314.202 13.6188C314.064 13.6215 313.93 13.6015 313.838 13.5654C313.802 13.548 313.811 13.5226 313.797 13.5013Z" fill="#FFE492"/>
<path d="M103.032 2.01238C103.635 1.98298 104.238 1.95493 104.841 1.92554C105.02 1.94424 105.103 1.97096 105.066 2.00437C105.043 2.02441 104.988 2.05247 104.933 2.05515C103.727 2.11527 102.521 2.17272 101.32 2.23018C101.141 2.21147 101.058 2.18475 101.095 2.15135C101.118 2.13131 101.173 2.10324 101.228 2.10057C101.826 2.06984 102.429 2.04177 103.032 2.01238Z" fill="#FFE492"/>
<path d="M10.2984 9.43765C10.0268 9.44032 9.74157 9.48976 9.43783 9.45235C9.378 9.44566 9.29514 9.42428 9.29974 9.41225C9.30895 9.39221 9.36418 9.36682 9.42401 9.3588C9.68633 9.3254 10.0131 9.32139 10.1466 9.22786C10.211 9.17975 10.3307 9.16373 10.4917 9.15437C10.662 9.14368 10.7816 9.14768 10.9151 9.17574C11.09 9.21182 11.2373 9.27863 11.5134 9.24389C11.5272 9.26527 11.5593 9.28932 11.5455 9.30936C11.5317 9.3294 11.472 9.34812 11.4168 9.36281C11.3661 9.37618 11.297 9.3882 11.2326 9.39221C10.9289 9.40824 10.6251 9.42161 10.2984 9.43765Z" fill="#FFE492"/>
<path d="M250.397 9.16945C250.622 9.15876 250.857 9.15341 251.078 9.13471C251.253 9.12001 251.363 9.12936 251.501 9.16142C251.736 9.21754 251.75 9.21221 252.325 9.22023C252.389 9.22156 252.468 9.24159 252.504 9.25896C252.527 9.26832 252.495 9.29372 252.468 9.30708C252.426 9.32445 252.366 9.34716 252.311 9.34716C251.947 9.35117 251.579 9.43001 251.225 9.33915C251.045 9.29372 250.848 9.27233 250.604 9.29237C250.456 9.3044 250.3 9.30975 250.148 9.31509C250.001 9.32044 249.849 9.30574 249.757 9.26565C249.623 9.20686 249.702 9.18415 249.941 9.18816C250.093 9.19083 250.245 9.17613 250.397 9.16945Z" fill="#FFE492"/>
<path d="M333.41 18.3795C333.7 18.3661 333.99 18.3501 334.284 18.3394C334.344 18.3368 334.418 18.3515 334.473 18.3608C334.694 18.4009 334.662 18.469 334.671 18.5292C334.675 18.592 334.164 18.6427 333.948 18.6C333.709 18.5519 333.493 18.4971 333.161 18.5265C333.032 18.5372 332.88 18.5131 332.798 18.4744C332.673 18.4183 332.742 18.3955 332.977 18.3996C333.115 18.4022 333.263 18.3875 333.41 18.3795Z" fill="#FFE492"/>
<path d="M186.628 0.192577C186.928 0.177879 187.227 0.155174 187.526 0.153838C187.701 0.152502 187.788 0.196588 187.747 0.228657C187.724 0.2487 187.668 0.276761 187.613 0.279434C187.015 0.311503 186.417 0.338232 185.818 0.367628C185.644 0.348921 185.556 0.320865 185.598 0.288796C185.621 0.268753 185.676 0.242029 185.731 0.23802C186.03 0.219313 186.329 0.207275 186.628 0.192577Z" fill="#FFE492"/>
<path d="M327.591 14.03C327.881 14.0166 328.176 13.9966 328.466 13.9899C328.618 13.9872 328.737 14.018 328.756 14.0527C328.765 14.0687 328.691 14.0968 328.631 14.1035C328.217 14.1489 327.771 14.1543 327.338 14.177C327.2 14.1837 327.053 14.1623 326.97 14.1249C326.846 14.0674 326.915 14.046 327.15 14.05C327.297 14.0514 327.444 14.0367 327.591 14.03Z" fill="#FFE492"/>
<path d="M257.571 9.34955C257.719 9.34287 257.871 9.3255 258.013 9.33084C258.165 9.33752 258.262 9.37627 258.308 9.41502C258.358 9.45912 258.354 9.50054 258.308 9.53796C258.234 9.6021 258.16 9.59943 257.99 9.55667C257.728 9.48986 257.709 9.49787 257.189 9.50054C257.13 9.50054 257.056 9.48049 257.01 9.46312C256.941 9.4364 256.978 9.39498 257.139 9.37093C257.258 9.35356 257.424 9.35623 257.571 9.34955Z" fill="#FFE492"/>
<path d="M317.162 13.5921C317.378 13.5814 317.594 13.564 317.811 13.564C317.963 13.5627 318.082 13.5934 318.096 13.6268C318.101 13.6428 318.032 13.6696 317.977 13.6776C317.714 13.7137 317.42 13.7163 317.134 13.7284C317.001 13.7337 316.854 13.7123 316.771 13.6749C316.646 13.6188 316.72 13.5934 316.946 13.6014C317.015 13.6041 317.088 13.5961 317.162 13.5921Z" fill="#FFE492"/>
<path d="M282.349 11.9524C282.027 11.9684 281.723 11.9484 281.746 11.9136C281.778 11.8682 281.911 11.8388 282.05 11.8308C282.27 11.8174 282.491 11.8067 282.717 11.7987C282.86 11.7934 282.988 11.8134 283.103 11.8481C283.034 11.8909 282.929 11.9216 282.791 11.931C282.648 11.9403 282.496 11.9457 282.349 11.9524Z" fill="#FFE492"/>
<path d="M280.739 11.7818C280.955 11.7711 281.171 11.7537 281.388 11.7537C281.54 11.7524 281.659 11.7831 281.673 11.8165C281.678 11.8325 281.609 11.8593 281.553 11.8673C281.291 11.9034 280.997 11.906 280.711 11.9181C280.578 11.9234 280.43 11.902 280.348 11.8646C280.223 11.8085 280.297 11.7831 280.523 11.7911C280.592 11.7938 280.665 11.7858 280.739 11.7818Z" fill="#FFE492"/>
<path d="M254.514 9.33902C254.731 9.32833 254.947 9.31095 255.163 9.30961C255.315 9.30828 255.435 9.33902 255.448 9.37243C255.453 9.38846 255.384 9.41385 255.329 9.4232C255.067 9.45928 254.772 9.46195 254.487 9.47398C254.353 9.47932 254.206 9.45794 254.123 9.42053C253.999 9.36441 254.072 9.33901 254.298 9.34703C254.367 9.3497 254.441 9.34169 254.514 9.33902Z" fill="#FFE492"/>
<path d="M253.186 9.26005C253.416 9.24936 253.49 9.24268 253.563 9.24268C253.702 9.24268 253.844 9.25871 253.927 9.29746C254.051 9.35359 253.978 9.36963 253.752 9.3723C253.462 9.37497 253.177 9.40304 252.887 9.40838C252.735 9.41105 252.615 9.37897 252.606 9.34557C252.602 9.32953 252.671 9.30147 252.726 9.29613C252.919 9.27608 253.131 9.26406 253.186 9.26005Z" fill="#FFE492"/>
<path d="M279.497 1.39927C279.35 1.40595 279.194 1.42466 279.056 1.41798C278.872 1.40863 278.798 1.37255 278.844 1.33915C278.872 1.32044 278.922 1.29372 278.977 1.28971C279.272 1.271 279.571 1.25897 279.866 1.24561C280.04 1.26565 280.119 1.29371 280.073 1.32711C280.045 1.34582 279.994 1.37121 279.939 1.37655C279.796 1.38991 279.645 1.39259 279.497 1.39927Z" fill="#FFE492"/>
<path d="M100.158 2.16999C100.301 2.16866 100.43 2.18603 100.54 2.21943C100.471 2.26219 100.37 2.29025 100.232 2.30228C100.163 2.30762 100.085 2.31162 100.011 2.31296C99.8683 2.31563 99.7394 2.29693 99.6289 2.26352C99.6979 2.22076 99.8038 2.1927 99.9372 2.18068C100.006 2.17533 100.085 2.174 100.158 2.16999Z" fill="#FFE492"/>
<path d="M325.452 14.0251C325.448 13.9864 325.728 13.9423 325.981 13.9436C326.115 13.945 326.253 13.9637 326.331 13.9998C326.451 14.0545 326.382 14.0759 326.156 14.0719C326.018 14.0692 325.871 14.0919 325.733 14.0879C325.576 14.0866 325.484 14.0572 325.452 14.0251Z" fill="#FFE492"/>
<path d="M258.452 9.51132C258.447 9.49662 258.424 9.47926 258.438 9.4659C258.525 9.3924 259.055 9.36969 259.193 9.43383C259.216 9.44585 259.225 9.46589 259.207 9.47792C259.179 9.49662 259.128 9.52067 259.073 9.52602C258.93 9.53938 258.783 9.54607 258.636 9.5474C258.571 9.5474 258.512 9.52468 258.452 9.51132Z" fill="#FFE492"/>
<path d="M12.7159 9.22399C12.1729 9.25205 12.1637 9.24937 12.2603 9.18256C12.3478 9.12243 12.5089 9.08636 12.7436 9.08636C12.8126 9.08636 12.8862 9.08369 12.946 9.08904C13.0105 9.09572 13.1026 9.10906 13.1164 9.1251C13.144 9.15583 13.0657 9.18924 12.9276 9.21196C12.8678 9.22265 12.7896 9.21998 12.7159 9.22399Z" fill="#FFE492"/>
<path d="M107.344 1.98149C107.183 2.0042 107.045 1.99619 106.944 1.95343C106.843 1.91067 107.004 1.85989 107.285 1.84786C107.358 1.84519 107.436 1.83451 107.505 1.83986C107.574 1.84386 107.644 1.85989 107.685 1.87592C107.759 1.90264 107.713 1.93873 107.565 1.96946C107.505 1.98149 107.418 1.97881 107.344 1.98149Z" fill="#FFE492"/>
<path d="M325.462 13.9243C325.503 13.9069 325.545 13.8896 325.591 13.8735C325.763 13.8963 325.837 13.923 325.79 13.9537C325.763 13.9724 325.707 13.9884 325.665 14.0058C325.494 13.9831 325.425 13.955 325.462 13.9243Z" fill="#FFE492"/>
<path d="M19.498 24.4354C19.498 24.4193 19.5625 24.394 19.6131 24.3886C19.7097 24.3793 19.8294 24.398 19.9122 24.4354C20.0272 24.4888 19.9583 24.5169 19.7466 24.5022C19.5993 24.4915 19.498 24.4648 19.498 24.4354Z" fill="#FFE492"/>
<path d="M260.171 8.26698C260.231 8.279 260.291 8.29103 260.346 8.30439C260.268 8.35383 260.171 8.3752 260.07 8.36184C260.006 8.35382 259.95 8.33779 259.891 8.32576C259.969 8.27632 260.061 8.25762 260.171 8.26698Z" fill="#FFE492"/>
<path d="M258.558 8.2074C258.65 8.18736 258.76 8.19806 258.889 8.23681C258.848 8.25418 258.811 8.27423 258.76 8.28759C258.673 8.30897 258.558 8.29827 258.434 8.25818C258.47 8.24215 258.512 8.22478 258.558 8.2074Z" fill="#FFE492"/>
<path d="M257.257 8.26598C257.317 8.27801 257.377 8.29004 257.432 8.3034C257.354 8.35284 257.262 8.37421 257.156 8.36085C257.092 8.35283 257.037 8.33679 256.977 8.32477C257.055 8.27533 257.147 8.25529 257.257 8.26598Z" fill="#FFE492"/>
<path d="M257.292 8.19562C257.361 8.22234 257.324 8.25441 257.19 8.29049C257.13 8.27846 257.06 8.26912 257.014 8.25308C256.94 8.2277 256.977 8.19428 257.116 8.1582C257.172 8.17157 257.232 8.18359 257.292 8.19562Z" fill="#FFE492"/>
</svg>
